StartChar: custom_0_9_0_0_0
Encoding: 2956 -1 2711
Width: 70
Flags: H
LayerCount: 2
Fore
SplineSet
17 25 m 1
 15 25 l 1
 15 27 l 1
 17 27 l 1
 17 25 l 1
17 29 m 1
 15 29 l 1
 15 31 l 1
 17 31 l 1
 17 29 l 1
17 33 m 1
 15 33 l 1
 15 35 l 1
 17 35 l 1
 17 33 l 1
23 25 m 1
 21 25 l 1
 21 27 l 1
 23 27 l 1
 23 25 l 1
26 25 m 1
 24 25 l 1
 24 27 l 1
 25 27 l 1
 25 26 l 1
 26 26 l 1
 26 25 l 1
27 26 m 1
 26 26 l 1
 26 27 l 1
 28 27 l 1
 28 25 l 1
 27 25 l 1
 27 26 l 1
31 25 m 1
 29 25 l 1
 29 27 l 1
 31 27 l 1
 31 25 l 1
23 33 m 1
 21 33 l 1
 21 35 l 1
 23 35 l 1
 23 33 l 1
25 33 m 1
 24 33 l 1
 24 35 l 1
 26 35 l 1
 26 34 l 1
 25 34 l 1
 25 33 l 1
28 33 m 1
 26 33 l 1
 26 34 l 1
 27 34 l 1
 27 35 l 1
 28 35 l 1
 28 33 l 1
31 29 m 1
 29 29 l 1
 29 31 l 1
 31 31 l 1
 31 29 l 1
36 31 m 1
 34 31 l 1
 34 33 l 1
 36 33 l 1
 36 31 l 1
31 33 m 1
 29 33 l 1
 29 35 l 1
 31 35 l 1
 31 33 l 1
36 35 m 1
 34 35 l 1
 34 37 l 1
 36 37 l 1
 36 35 l 1
41 25 m 1
 39 25 l 1
 39 27 l 1
 41 27 l 1
 41 25 l 1
44 25 m 1
 42 25 l 1
 42 27 l 1
 43 27 l 1
 43 26 l 1
 44 26 l 1
 44 25 l 1
45 26 m 1
 44 26 l 1
 44 27 l 1
 46 27 l 1
 46 25 l 1
 45 25 l 1
 45 26 l 1
49 25 m 1
 47 25 l 1
 47 27 l 1
 49 27 l 1
 49 25 l 1
41 29 m 1
 39 29 l 1
 39 31 l 1
 41 31 l 1
 41 29 l 1
41 33 m 1
 39 33 l 1
 39 35 l 1
 41 35 l 1
 41 33 l 1
49 29 m 1
 47 29 l 1
 47 31 l 1
 49 31 l 1
 49 29 l 1
49 33 m 1
 47 33 l 1
 47 35 l 1
 49 35 l 1
 49 33 l 1
55 25 m 1
 53 25 l 1
 53 27 l 1
 55 27 l 1
 55 25 l 1
58 25 m 1
 56 25 l 1
 56 27 l 1
 57 27 l 1
 57 26 l 1
 58 26 l 1
 58 25 l 1
59 26 m 1
 58 26 l 1
 58 27 l 1
 60 27 l 1
 60 25 l 1
 59 25 l 1
 59 26 l 1
63 25 m 1
 61 25 l 1
 61 27 l 1
 63 27 l 1
 63 25 l 1
55 29 m 1
 53 29 l 1
 53 31 l 1
 55 31 l 1
 55 29 l 1
55 33 m 1
 53 33 l 1
 53 35 l 1
 55 35 l 1
 55 33 l 1
57 33 m 1
 56 33 l 1
 56 35 l 1
 58 35 l 1
 58 34 l 1
 57 34 l 1
 57 33 l 1
60 33 m 1
 58 33 l 1
 58 34 l 1
 59 34 l 1
 59 35 l 1
 60 35 l 1
 60 33 l 1
63 29 m 1
 61 29 l 1
 61 31 l 1
 63 31 l 1
 63 29 l 1
63 33 m 1
 61 33 l 1
 61 35 l 1
 63 35 l 1
 63 33 l 1
17 37 m 1
 15 37 l 1
 15 39 l 1
 17 39 l 1
 17 37 l 1
17 41 m 1
 15 41 l 1
 15 43 l 1
 17 43 l 1
 17 41 l 1
23 37 m 1
 21 37 l 1
 21 39 l 1
 23 39 l 1
 23 37 l 1
23 41 m 1
 21 41 l 1
 21 43 l 1
 23 43 l 1
 23 41 l 1
26 41 m 1
 24 41 l 1
 24 43 l 1
 25 43 l 1
 25 42 l 1
 26 42 l 1
 26 41 l 1
27 42 m 1
 26 42 l 1
 26 43 l 1
 28 43 l 1
 28 41 l 1
 27 41 l 1
 27 42 l 1
31 41 m 1
 29 41 l 1
 29 43 l 1
 31 43 l 1
 31 41 l 1
41 37 m 1
 39 37 l 1
 39 39 l 1
 41 39 l 1
 41 37 l 1
41 41 m 1
 39 41 l 1
 39 43 l 1
 41 43 l 1
 41 41 l 1
44 41 m 1
 42 41 l 1
 42 43 l 1
 43 43 l 1
 43 42 l 1
 44 42 l 1
 44 41 l 1
45 42 m 1
 44 42 l 1
 44 43 l 1
 46 43 l 1
 46 41 l 1
 45 41 l 1
 45 42 l 1
49 37 m 1
 47 37 l 1
 47 39 l 1
 49 39 l 1
 49 37 l 1
49 41 m 1
 47 41 l 1
 47 43 l 1
 49 43 l 1
 49 41 l 1
55 41 m 1
 53 41 l 1
 53 43 l 1
 55 43 l 1
 55 41 l 1
58 41 m 1
 56 41 l 1
 56 43 l 1
 57 43 l 1
 57 42 l 1
 58 42 l 1
 58 41 l 1
59 42 m 1
 58 42 l 1
 58 43 l 1
 60 43 l 1
 60 41 l 1
 59 41 l 1
 59 42 l 1
63 37 m 1
 61 37 l 1
 61 39 l 1
 63 39 l 1
 63 37 l 1
63 41 m 1
 61 41 l 1
 61 43 l 1
 63 43 l 1
 63 41 l 1
EndSplineSet
Ligature2: "'liga' Standard Ligatures in Latin lookup 0-1" zero nine zero zero zero
LCarets2: 1 0
EndChar

StartChar: custom_0_9_0_0_1
Encoding: 2957 -1 2712
Width: 70
Flags: H
LayerCount: 2
Fore
SplineSet
17 25 m 1
 15 25 l 1
 15 27 l 1
 17 27 l 1
 17 25 l 1
17 29 m 1
 15 29 l 1
 15 31 l 1
 17 31 l 1
 17 29 l 1
17 33 m 1
 15 33 l 1
 15 35 l 1
 17 35 l 1
 17 33 l 1
23 25 m 1
 21 25 l 1
 21 27 l 1
 23 27 l 1
 23 25 l 1
26 25 m 1
 24 25 l 1
 24 27 l 1
 25 27 l 1
 25 26 l 1
 26 26 l 1
 26 25 l 1
27 26 m 1
 26 26 l 1
 26 27 l 1
 28 27 l 1
 28 25 l 1
 27 25 l 1
 27 26 l 1
31 25 m 1
 29 25 l 1
 29 27 l 1
 31 27 l 1
 31 25 l 1
23 33 m 1
 21 33 l 1
 21 35 l 1
 23 35 l 1
 23 33 l 1
25 33 m 1
 24 33 l 1
 24 35 l 1
 26 35 l 1
 26 34 l 1
 25 34 l 1
 25 33 l 1
28 33 m 1
 26 33 l 1
 26 34 l 1
 27 34 l 1
 27 35 l 1
 28 35 l 1
 28 33 l 1
31 29 m 1
 29 29 l 1
 29 31 l 1
 31 31 l 1
 31 29 l 1
36 31 m 1
 34 31 l 1
 34 33 l 1
 36 33 l 1
 36 31 l 1
31 33 m 1
 29 33 l 1
 29 35 l 1
 31 35 l 1
 31 33 l 1
36 35 m 1
 34 35 l 1
 34 37 l 1
 36 37 l 1
 36 35 l 1
41 25 m 1
 39 25 l 1
 39 27 l 1
 41 27 l 1
 41 25 l 1
44 25 m 1
 42 25 l 1
 42 27 l 1
 43 27 l 1
 43 26 l 1
 44 26 l 1
 44 25 l 1
45 26 m 1
 44 26 l 1
 44 27 l 1
 46 27 l 1
 46 25 l 1
 45 25 l 1
 45 26 l 1
49 25 m 1
 47 25 l 1
 47 27 l 1
 49 27 l 1
 49 25 l 1
41 29 m 1
 39 29 l 1
 39 31 l 1
 41 31 l 1
 41 29 l 1
41 33 m 1
 39 33 l 1
 39 35 l 1
 41 35 l 1
 41 33 l 1
49 29 m 1
 47 29 l 1
 47 31 l 1
 49 31 l 1
 49 29 l 1
49 33 m 1
 47 33 l 1
 47 35 l 1
 49 35 l 1
 49 33 l 1
55 25 m 1
 53 25 l 1
 53 27 l 1
 55 27 l 1
 55 25 l 1
58 25 m 1
 56 25 l 1
 56 27 l 1
 57 27 l 1
 57 26 l 1
 58 26 l 1
 58 25 l 1
59 26 m 1
 58 26 l 1
 58 27 l 1
 60 27 l 1
 60 25 l 1
 59 25 l 1
 59 26 l 1
63 25 m 1
 61 25 l 1
 61 27 l 1
 63 27 l 1
 63 25 l 1
55 29 m 1
 53 29 l 1
 53 31 l 1
 55 31 l 1
 55 29 l 1
55 33 m 1
 53 33 l 1
 53 35 l 1
 55 35 l 1
 55 33 l 1
57 33 m 1
 56 33 l 1
 56 35 l 1
 58 35 l 1
 58 34 l 1
 57 34 l 1
 57 33 l 1
60 33 m 1
 58 33 l 1
 58 34 l 1
 59 34 l 1
 59 35 l 1
 60 35 l 1
 60 33 l 1
63 29 m 1
 61 29 l 1
 61 31 l 1
 63 31 l 1
 63 29 l 1
63 33 m 1
 61 33 l 1
 61 35 l 1
 63 35 l 1
 63 33 l 1
17 37 m 1
 15 37 l 1
 15 39 l 1
 17 39 l 1
 17 37 l 1
17 41 m 1
 15 41 l 1
 15 43 l 1
 17 43 l 1
 17 41 l 1
23 37 m 1
 21 37 l 1
 21 39 l 1
 23 39 l 1
 23 37 l 1
23 41 m 1
 21 41 l 1
 21 43 l 1
 23 43 l 1
 23 41 l 1
26 41 m 1
 24 41 l 1
 24 43 l 1
 25 43 l 1
 25 42 l 1
 26 42 l 1
 26 41 l 1
27 42 m 1
 26 42 l 1
 26 43 l 1
 28 43 l 1
 28 41 l 1
 27 41 l 1
 27 42 l 1
31 41 m 1
 29 41 l 1
 29 43 l 1
 31 43 l 1
 31 41 l 1
41 37 m 1
 39 37 l 1
 39 39 l 1
 41 39 l 1
 41 37 l 1
41 41 m 1
 39 41 l 1
 39 43 l 1
 41 43 l 1
 41 41 l 1
44 41 m 1
 42 41 l 1
 42 43 l 1
 43 43 l 1
 43 42 l 1
 44 42 l 1
 44 41 l 1
45 42 m 1
 44 42 l 1
 44 43 l 1
 46 43 l 1
 46 41 l 1
 45 41 l 1
 45 42 l 1
49 37 m 1
 47 37 l 1
 47 39 l 1
 49 39 l 1
 49 37 l 1
49 41 m 1
 47 41 l 1
 47 43 l 1
 49 43 l 1
 49 41 l 1
55 41 m 1
 53 41 l 1
 53 43 l 1
 55 43 l 1
 55 41 l 1
58 41 m 1
 56 41 l 1
 56 43 l 1
 57 43 l 1
 57 42 l 1
 58 42 l 1
 58 41 l 1
59 42 m 1
 58 42 l 1
 58 43 l 1
 60 43 l 1
 60 41 l 1
 59 41 l 1
 59 42 l 1
63 37 m 1
 61 37 l 1
 61 39 l 1
 63 39 l 1
 63 37 l 1
63 41 m 1
 61 41 l 1
 61 43 l 1
 63 43 l 1
 63 41 l 1
EndSplineSet
Ligature2: "'liga' Standard Ligatures in Latin lookup 0-1" zero nine zero zero one
LCarets2: 1 0
EndChar

StartChar: custom_0_9_0_0_2
Encoding: 2958 -1 2713
Width: 70
Flags: H
LayerCount: 2
Fore
SplineSet
17 25 m 1
 15 25 l 1
 15 27 l 1
 17 27 l 1
 17 25 l 1
17 29 m 1
 15 29 l 1
 15 31 l 1
 17 31 l 1
 17 29 l 1
17 33 m 1
 15 33 l 1
 15 35 l 1
 17 35 l 1
 17 33 l 1
23 25 m 1
 21 25 l 1
 21 27 l 1
 23 27 l 1
 23 25 l 1
26 25 m 1
 24 25 l 1
 24 27 l 1
 25 27 l 1
 25 26 l 1
 26 26 l 1
 26 25 l 1
27 26 m 1
 26 26 l 1
 26 27 l 1
 28 27 l 1
 28 25 l 1
 27 25 l 1
 27 26 l 1
31 25 m 1
 29 25 l 1
 29 27 l 1
 31 27 l 1
 31 25 l 1
23 33 m 1
 21 33 l 1
 21 35 l 1
 23 35 l 1
 23 33 l 1
25 33 m 1
 24 33 l 1
 24 35 l 1
 26 35 l 1
 26 34 l 1
 25 34 l 1
 25 33 l 1
28 33 m 1
 26 33 l 1
 26 34 l 1
 27 34 l 1
 27 35 l 1
 28 35 l 1
 28 33 l 1
31 29 m 1
 29 29 l 1
 29 31 l 1
 31 31 l 1
 31 29 l 1
36 31 m 1
 34 31 l 1
 34 33 l 1
 36 33 l 1
 36 31 l 1
31 33 m 1
 29 33 l 1
 29 35 l 1
 31 35 l 1
 31 33 l 1
36 35 m 1
 34 35 l 1
 34 37 l 1
 36 37 l 1
 36 35 l 1
41 25 m 1
 39 25 l 1
 39 27 l 1
 41 27 l 1
 41 25 l 1
44 25 m 1
 42 25 l 1
 42 27 l 1
 43 27 l 1
 43 26 l 1
 44 26 l 1
 44 25 l 1
45 26 m 1
 44 26 l 1
 44 27 l 1
 46 27 l 1
 46 25 l 1
 45 25 l 1
 45 26 l 1
49 25 m 1
 47 25 l 1
 47 27 l 1
 49 27 l 1
 49 25 l 1
41 29 m 1
 39 29 l 1
 39 31 l 1
 41 31 l 1
 41 29 l 1
41 33 m 1
 39 33 l 1
 39 35 l 1
 41 35 l 1
 41 33 l 1
49 29 m 1
 47 29 l 1
 47 31 l 1
 49 31 l 1
 49 29 l 1
49 33 m 1
 47 33 l 1
 47 35 l 1
 49 35 l 1
 49 33 l 1
55 25 m 1
 53 25 l 1
 53 27 l 1
 55 27 l 1
 55 25 l 1
58 25 m 1
 56 25 l 1
 56 27 l 1
 57 27 l 1
 57 26 l 1
 58 26 l 1
 58 25 l 1
59 26 m 1
 58 26 l 1
 58 27 l 1
 60 27 l 1
 60 25 l 1
 59 25 l 1
 59 26 l 1
63 25 m 1
 61 25 l 1
 61 27 l 1
 63 27 l 1
 63 25 l 1
55 29 m 1
 53 29 l 1
 53 31 l 1
 55 31 l 1
 55 29 l 1
55 33 m 1
 53 33 l 1
 53 35 l 1
 55 35 l 1
 55 33 l 1
57 33 m 1
 56 33 l 1
 56 35 l 1
 58 35 l 1
 58 34 l 1
 57 34 l 1
 57 33 l 1
60 33 m 1
 58 33 l 1
 58 34 l 1
 59 34 l 1
 59 35 l 1
 60 35 l 1
 60 33 l 1
63 29 m 1
 61 29 l 1
 61 31 l 1
 63 31 l 1
 63 29 l 1
63 33 m 1
 61 33 l 1
 61 35 l 1
 63 35 l 1
 63 33 l 1
17 37 m 1
 15 37 l 1
 15 39 l 1
 17 39 l 1
 17 37 l 1
17 41 m 1
 15 41 l 1
 15 43 l 1
 17 43 l 1
 17 41 l 1
23 37 m 1
 21 37 l 1
 21 39 l 1
 23 39 l 1
 23 37 l 1
23 41 m 1
 21 41 l 1
 21 43 l 1
 23 43 l 1
 23 41 l 1
26 41 m 1
 24 41 l 1
 24 43 l 1
 25 43 l 1
 25 42 l 1
 26 42 l 1
 26 41 l 1
27 42 m 1
 26 42 l 1
 26 43 l 1
 28 43 l 1
 28 41 l 1
 27 41 l 1
 27 42 l 1
31 41 m 1
 29 41 l 1
 29 43 l 1
 31 43 l 1
 31 41 l 1
41 37 m 1
 39 37 l 1
 39 39 l 1
 41 39 l 1
 41 37 l 1
41 41 m 1
 39 41 l 1
 39 43 l 1
 41 43 l 1
 41 41 l 1
44 41 m 1
 42 41 l 1
 42 43 l 1
 43 43 l 1
 43 42 l 1
 44 42 l 1
 44 41 l 1
45 42 m 1
 44 42 l 1
 44 43 l 1
 46 43 l 1
 46 41 l 1
 45 41 l 1
 45 42 l 1
49 37 m 1
 47 37 l 1
 47 39 l 1
 49 39 l 1
 49 37 l 1
49 41 m 1
 47 41 l 1
 47 43 l 1
 49 43 l 1
 49 41 l 1
55 41 m 1
 53 41 l 1
 53 43 l 1
 55 43 l 1
 55 41 l 1
58 41 m 1
 56 41 l 1
 56 43 l 1
 57 43 l 1
 57 42 l 1
 58 42 l 1
 58 41 l 1
59 42 m 1
 58 42 l 1
 58 43 l 1
 60 43 l 1
 60 41 l 1
 59 41 l 1
 59 42 l 1
63 37 m 1
 61 37 l 1
 61 39 l 1
 63 39 l 1
 63 37 l 1
63 41 m 1
 61 41 l 1
 61 43 l 1
 63 43 l 1
 63 41 l 1
EndSplineSet
Ligature2: "'liga' Standard Ligatures in Latin lookup 0-1" zero nine zero zero two
LCarets2: 1 0
EndChar

StartChar: custom_0_9_0_0_3
Encoding: 2959 -1 2714
Width: 70
Flags: H
LayerCount: 2
Fore
SplineSet
17 25 m 1
 15 25 l 1
 15 27 l 1
 17 27 l 1
 17 25 l 1
17 29 m 1
 15 29 l 1
 15 31 l 1
 17 31 l 1
 17 29 l 1
17 33 m 1
 15 33 l 1
 15 35 l 1
 17 35 l 1
 17 33 l 1
23 25 m 1
 21 25 l 1
 21 27 l 1
 23 27 l 1
 23 25 l 1
26 25 m 1
 24 25 l 1
 24 27 l 1
 25 27 l 1
 25 26 l 1
 26 26 l 1
 26 25 l 1
27 26 m 1
 26 26 l 1
 26 27 l 1
 28 27 l 1
 28 25 l 1
 27 25 l 1
 27 26 l 1
31 25 m 1
 29 25 l 1
 29 27 l 1
 31 27 l 1
 31 25 l 1
23 33 m 1
 21 33 l 1
 21 35 l 1
 23 35 l 1
 23 33 l 1
25 33 m 1
 24 33 l 1
 24 35 l 1
 26 35 l 1
 26 34 l 1
 25 34 l 1
 25 33 l 1
28 33 m 1
 26 33 l 1
 26 34 l 1
 27 34 l 1
 27 35 l 1
 28 35 l 1
 28 33 l 1
31 29 m 1
 29 29 l 1
 29 31 l 1
 31 31 l 1
 31 29 l 1
36 31 m 1
 34 31 l 1
 34 33 l 1
 36 33 l 1
 36 31 l 1
31 33 m 1
 29 33 l 1
 29 35 l 1
 31 35 l 1
 31 33 l 1
36 35 m 1
 34 35 l 1
 34 37 l 1
 36 37 l 1
 36 35 l 1
41 25 m 1
 39 25 l 1
 39 27 l 1
 41 27 l 1
 41 25 l 1
44 25 m 1
 42 25 l 1
 42 27 l 1
 43 27 l 1
 43 26 l 1
 44 26 l 1
 44 25 l 1
45 26 m 1
 44 26 l 1
 44 27 l 1
 46 27 l 1
 46 25 l 1
 45 25 l 1
 45 26 l 1
49 25 m 1
 47 25 l 1
 47 27 l 1
 49 27 l 1
 49 25 l 1
41 29 m 1
 39 29 l 1
 39 31 l 1
 41 31 l 1
 41 29 l 1
41 33 m 1
 39 33 l 1
 39 35 l 1
 41 35 l 1
 41 33 l 1
49 29 m 1
 47 29 l 1
 47 31 l 1
 49 31 l 1
 49 29 l 1
49 33 m 1
 47 33 l 1
 47 35 l 1
 49 35 l 1
 49 33 l 1
55 25 m 1
 53 25 l 1
 53 27 l 1
 55 27 l 1
 55 25 l 1
58 25 m 1
 56 25 l 1
 56 27 l 1
 57 27 l 1
 57 26 l 1
 58 26 l 1
 58 25 l 1
59 26 m 1
 58 26 l 1
 58 27 l 1
 60 27 l 1
 60 25 l 1
 59 25 l 1
 59 26 l 1
63 25 m 1
 61 25 l 1
 61 27 l 1
 63 27 l 1
 63 25 l 1
55 29 m 1
 53 29 l 1
 53 31 l 1
 55 31 l 1
 55 29 l 1
55 33 m 1
 53 33 l 1
 53 35 l 1
 55 35 l 1
 55 33 l 1
57 33 m 1
 56 33 l 1
 56 35 l 1
 58 35 l 1
 58 34 l 1
 57 34 l 1
 57 33 l 1
60 33 m 1
 58 33 l 1
 58 34 l 1
 59 34 l 1
 59 35 l 1
 60 35 l 1
 60 33 l 1
63 29 m 1
 61 29 l 1
 61 31 l 1
 63 31 l 1
 63 29 l 1
63 33 m 1
 61 33 l 1
 61 35 l 1
 63 35 l 1
 63 33 l 1
17 37 m 1
 15 37 l 1
 15 39 l 1
 17 39 l 1
 17 37 l 1
17 41 m 1
 15 41 l 1
 15 43 l 1
 17 43 l 1
 17 41 l 1
23 37 m 1
 21 37 l 1
 21 39 l 1
 23 39 l 1
 23 37 l 1
23 41 m 1
 21 41 l 1
 21 43 l 1
 23 43 l 1
 23 41 l 1
26 41 m 1
 24 41 l 1
 24 43 l 1
 25 43 l 1
 25 42 l 1
 26 42 l 1
 26 41 l 1
27 42 m 1
 26 42 l 1
 26 43 l 1
 28 43 l 1
 28 41 l 1
 27 41 l 1
 27 42 l 1
31 41 m 1
 29 41 l 1
 29 43 l 1
 31 43 l 1
 31 41 l 1
41 37 m 1
 39 37 l 1
 39 39 l 1
 41 39 l 1
 41 37 l 1
41 41 m 1
 39 41 l 1
 39 43 l 1
 41 43 l 1
 41 41 l 1
44 41 m 1
 42 41 l 1
 42 43 l 1
 43 43 l 1
 43 42 l 1
 44 42 l 1
 44 41 l 1
45 42 m 1
 44 42 l 1
 44 43 l 1
 46 43 l 1
 46 41 l 1
 45 41 l 1
 45 42 l 1
49 37 m 1
 47 37 l 1
 47 39 l 1
 49 39 l 1
 49 37 l 1
49 41 m 1
 47 41 l 1
 47 43 l 1
 49 43 l 1
 49 41 l 1
55 41 m 1
 53 41 l 1
 53 43 l 1
 55 43 l 1
 55 41 l 1
58 41 m 1
 56 41 l 1
 56 43 l 1
 57 43 l 1
 57 42 l 1
 58 42 l 1
 58 41 l 1
59 42 m 1
 58 42 l 1
 58 43 l 1
 60 43 l 1
 60 41 l 1
 59 41 l 1
 59 42 l 1
63 37 m 1
 61 37 l 1
 61 39 l 1
 63 39 l 1
 63 37 l 1
63 41 m 1
 61 41 l 1
 61 43 l 1
 63 43 l 1
 63 41 l 1
EndSplineSet
Ligature2: "'liga' Standard Ligatures in Latin lookup 0-1" zero nine zero zero three
LCarets2: 1 0
EndChar

StartChar: custom_0_9_0_0_4
Encoding: 2960 -1 2715
Width: 70
Flags: H
LayerCount: 2
Fore
SplineSet
17 25 m 1
 15 25 l 1
 15 27 l 1
 17 27 l 1
 17 25 l 1
17 29 m 1
 15 29 l 1
 15 31 l 1
 17 31 l 1
 17 29 l 1
17 33 m 1
 15 33 l 1
 15 35 l 1
 17 35 l 1
 17 33 l 1
23 25 m 1
 21 25 l 1
 21 27 l 1
 23 27 l 1
 23 25 l 1
26 25 m 1
 24 25 l 1
 24 27 l 1
 25 27 l 1
 25 26 l 1
 26 26 l 1
 26 25 l 1
27 26 m 1
 26 26 l 1
 26 27 l 1
 28 27 l 1
 28 25 l 1
 27 25 l 1
 27 26 l 1
31 25 m 1
 29 25 l 1
 29 27 l 1
 31 27 l 1
 31 25 l 1
23 33 m 1
 21 33 l 1
 21 35 l 1
 23 35 l 1
 23 33 l 1
25 33 m 1
 24 33 l 1
 24 35 l 1
 26 35 l 1
 26 34 l 1
 25 34 l 1
 25 33 l 1
28 33 m 1
 26 33 l 1
 26 34 l 1
 27 34 l 1
 27 35 l 1
 28 35 l 1
 28 33 l 1
31 29 m 1
 29 29 l 1
 29 31 l 1
 31 31 l 1
 31 29 l 1
36 31 m 1
 34 31 l 1
 34 33 l 1
 36 33 l 1
 36 31 l 1
31 33 m 1
 29 33 l 1
 29 35 l 1
 31 35 l 1
 31 33 l 1
36 35 m 1
 34 35 l 1
 34 37 l 1
 36 37 l 1
 36 35 l 1
41 25 m 1
 39 25 l 1
 39 27 l 1
 41 27 l 1
 41 25 l 1
44 25 m 1
 42 25 l 1
 42 27 l 1
 43 27 l 1
 43 26 l 1
 44 26 l 1
 44 25 l 1
45 26 m 1
 44 26 l 1
 44 27 l 1
 46 27 l 1
 46 25 l 1
 45 25 l 1
 45 26 l 1
49 25 m 1
 47 25 l 1
 47 27 l 1
 49 27 l 1
 49 25 l 1
41 29 m 1
 39 29 l 1
 39 31 l 1
 41 31 l 1
 41 29 l 1
41 33 m 1
 39 33 l 1
 39 35 l 1
 41 35 l 1
 41 33 l 1
49 29 m 1
 47 29 l 1
 47 31 l 1
 49 31 l 1
 49 29 l 1
49 33 m 1
 47 33 l 1
 47 35 l 1
 49 35 l 1
 49 33 l 1
55 25 m 1
 53 25 l 1
 53 27 l 1
 55 27 l 1
 55 25 l 1
58 25 m 1
 56 25 l 1
 56 27 l 1
 57 27 l 1
 57 26 l 1
 58 26 l 1
 58 25 l 1
59 26 m 1
 58 26 l 1
 58 27 l 1
 60 27 l 1
 60 25 l 1
 59 25 l 1
 59 26 l 1
63 25 m 1
 61 25 l 1
 61 27 l 1
 63 27 l 1
 63 25 l 1
55 29 m 1
 53 29 l 1
 53 31 l 1
 55 31 l 1
 55 29 l 1
55 33 m 1
 53 33 l 1
 53 35 l 1
 55 35 l 1
 55 33 l 1
57 33 m 1
 56 33 l 1
 56 35 l 1
 58 35 l 1
 58 34 l 1
 57 34 l 1
 57 33 l 1
60 33 m 1
 58 33 l 1
 58 34 l 1
 59 34 l 1
 59 35 l 1
 60 35 l 1
 60 33 l 1
63 29 m 1
 61 29 l 1
 61 31 l 1
 63 31 l 1
 63 29 l 1
63 33 m 1
 61 33 l 1
 61 35 l 1
 63 35 l 1
 63 33 l 1
17 37 m 1
 15 37 l 1
 15 39 l 1
 17 39 l 1
 17 37 l 1
17 41 m 1
 15 41 l 1
 15 43 l 1
 17 43 l 1
 17 41 l 1
23 37 m 1
 21 37 l 1
 21 39 l 1
 23 39 l 1
 23 37 l 1
23 41 m 1
 21 41 l 1
 21 43 l 1
 23 43 l 1
 23 41 l 1
26 41 m 1
 24 41 l 1
 24 43 l 1
 25 43 l 1
 25 42 l 1
 26 42 l 1
 26 41 l 1
27 42 m 1
 26 42 l 1
 26 43 l 1
 28 43 l 1
 28 41 l 1
 27 41 l 1
 27 42 l 1
31 41 m 1
 29 41 l 1
 29 43 l 1
 31 43 l 1
 31 41 l 1
41 37 m 1
 39 37 l 1
 39 39 l 1
 41 39 l 1
 41 37 l 1
41 41 m 1
 39 41 l 1
 39 43 l 1
 41 43 l 1
 41 41 l 1
44 41 m 1
 42 41 l 1
 42 43 l 1
 43 43 l 1
 43 42 l 1
 44 42 l 1
 44 41 l 1
45 42 m 1
 44 42 l 1
 44 43 l 1
 46 43 l 1
 46 41 l 1
 45 41 l 1
 45 42 l 1
49 37 m 1
 47 37 l 1
 47 39 l 1
 49 39 l 1
 49 37 l 1
49 41 m 1
 47 41 l 1
 47 43 l 1
 49 43 l 1
 49 41 l 1
55 41 m 1
 53 41 l 1
 53 43 l 1
 55 43 l 1
 55 41 l 1
58 41 m 1
 56 41 l 1
 56 43 l 1
 57 43 l 1
 57 42 l 1
 58 42 l 1
 58 41 l 1
59 42 m 1
 58 42 l 1
 58 43 l 1
 60 43 l 1
 60 41 l 1
 59 41 l 1
 59 42 l 1
63 37 m 1
 61 37 l 1
 61 39 l 1
 63 39 l 1
 63 37 l 1
63 41 m 1
 61 41 l 1
 61 43 l 1
 63 43 l 1
 63 41 l 1
EndSplineSet
Ligature2: "'liga' Standard Ligatures in Latin lookup 0-1" zero nine zero zero four
LCarets2: 1 0
EndChar

StartChar: custom_0_9_0_0_5
Encoding: 2961 -1 2716
Width: 70
Flags: H
LayerCount: 2
Fore
SplineSet
17 25 m 1
 15 25 l 1
 15 27 l 1
 17 27 l 1
 17 25 l 1
17 29 m 1
 15 29 l 1
 15 31 l 1
 17 31 l 1
 17 29 l 1
17 33 m 1
 15 33 l 1
 15 35 l 1
 17 35 l 1
 17 33 l 1
23 25 m 1
 21 25 l 1
 21 27 l 1
 23 27 l 1
 23 25 l 1
26 25 m 1
 24 25 l 1
 24 27 l 1
 25 27 l 1
 25 26 l 1
 26 26 l 1
 26 25 l 1
27 26 m 1
 26 26 l 1
 26 27 l 1
 28 27 l 1
 28 25 l 1
 27 25 l 1
 27 26 l 1
31 25 m 1
 29 25 l 1
 29 27 l 1
 31 27 l 1
 31 25 l 1
23 33 m 1
 21 33 l 1
 21 35 l 1
 23 35 l 1
 23 33 l 1
25 33 m 1
 24 33 l 1
 24 35 l 1
 26 35 l 1
 26 34 l 1
 25 34 l 1
 25 33 l 1
28 33 m 1
 26 33 l 1
 26 34 l 1
 27 34 l 1
 27 35 l 1
 28 35 l 1
 28 33 l 1
31 29 m 1
 29 29 l 1
 29 31 l 1
 31 31 l 1
 31 29 l 1
36 31 m 1
 34 31 l 1
 34 33 l 1
 36 33 l 1
 36 31 l 1
31 33 m 1
 29 33 l 1
 29 35 l 1
 31 35 l 1
 31 33 l 1
36 35 m 1
 34 35 l 1
 34 37 l 1
 36 37 l 1
 36 35 l 1
41 25 m 1
 39 25 l 1
 39 27 l 1
 41 27 l 1
 41 25 l 1
44 25 m 1
 42 25 l 1
 42 27 l 1
 43 27 l 1
 43 26 l 1
 44 26 l 1
 44 25 l 1
45 26 m 1
 44 26 l 1
 44 27 l 1
 46 27 l 1
 46 25 l 1
 45 25 l 1
 45 26 l 1
49 25 m 1
 47 25 l 1
 47 27 l 1
 49 27 l 1
 49 25 l 1
41 29 m 1
 39 29 l 1
 39 31 l 1
 41 31 l 1
 41 29 l 1
41 33 m 1
 39 33 l 1
 39 35 l 1
 41 35 l 1
 41 33 l 1
49 29 m 1
 47 29 l 1
 47 31 l 1
 49 31 l 1
 49 29 l 1
49 33 m 1
 47 33 l 1
 47 35 l 1
 49 35 l 1
 49 33 l 1
55 25 m 1
 53 25 l 1
 53 27 l 1
 55 27 l 1
 55 25 l 1
58 25 m 1
 56 25 l 1
 56 27 l 1
 57 27 l 1
 57 26 l 1
 58 26 l 1
 58 25 l 1
59 26 m 1
 58 26 l 1
 58 27 l 1
 60 27 l 1
 60 25 l 1
 59 25 l 1
 59 26 l 1
63 25 m 1
 61 25 l 1
 61 27 l 1
 63 27 l 1
 63 25 l 1
55 29 m 1
 53 29 l 1
 53 31 l 1
 55 31 l 1
 55 29 l 1
55 33 m 1
 53 33 l 1
 53 35 l 1
 55 35 l 1
 55 33 l 1
57 33 m 1
 56 33 l 1
 56 35 l 1
 58 35 l 1
 58 34 l 1
 57 34 l 1
 57 33 l 1
60 33 m 1
 58 33 l 1
 58 34 l 1
 59 34 l 1
 59 35 l 1
 60 35 l 1
 60 33 l 1
63 29 m 1
 61 29 l 1
 61 31 l 1
 63 31 l 1
 63 29 l 1
63 33 m 1
 61 33 l 1
 61 35 l 1
 63 35 l 1
 63 33 l 1
17 37 m 1
 15 37 l 1
 15 39 l 1
 17 39 l 1
 17 37 l 1
17 41 m 1
 15 41 l 1
 15 43 l 1
 17 43 l 1
 17 41 l 1
23 37 m 1
 21 37 l 1
 21 39 l 1
 23 39 l 1
 23 37 l 1
23 41 m 1
 21 41 l 1
 21 43 l 1
 23 43 l 1
 23 41 l 1
26 41 m 1
 24 41 l 1
 24 43 l 1
 25 43 l 1
 25 42 l 1
 26 42 l 1
 26 41 l 1
27 42 m 1
 26 42 l 1
 26 43 l 1
 28 43 l 1
 28 41 l 1
 27 41 l 1
 27 42 l 1
31 41 m 1
 29 41 l 1
 29 43 l 1
 31 43 l 1
 31 41 l 1
41 37 m 1
 39 37 l 1
 39 39 l 1
 41 39 l 1
 41 37 l 1
41 41 m 1
 39 41 l 1
 39 43 l 1
 41 43 l 1
 41 41 l 1
44 41 m 1
 42 41 l 1
 42 43 l 1
 43 43 l 1
 43 42 l 1
 44 42 l 1
 44 41 l 1
45 42 m 1
 44 42 l 1
 44 43 l 1
 46 43 l 1
 46 41 l 1
 45 41 l 1
 45 42 l 1
49 37 m 1
 47 37 l 1
 47 39 l 1
 49 39 l 1
 49 37 l 1
49 41 m 1
 47 41 l 1
 47 43 l 1
 49 43 l 1
 49 41 l 1
55 41 m 1
 53 41 l 1
 53 43 l 1
 55 43 l 1
 55 41 l 1
58 41 m 1
 56 41 l 1
 56 43 l 1
 57 43 l 1
 57 42 l 1
 58 42 l 1
 58 41 l 1
59 42 m 1
 58 42 l 1
 58 43 l 1
 60 43 l 1
 60 41 l 1
 59 41 l 1
 59 42 l 1
63 37 m 1
 61 37 l 1
 61 39 l 1
 63 39 l 1
 63 37 l 1
63 41 m 1
 61 41 l 1
 61 43 l 1
 63 43 l 1
 63 41 l 1
EndSplineSet
Ligature2: "'liga' Standard Ligatures in Latin lookup 0-1" zero nine zero zero five
LCarets2: 1 0
EndChar

StartChar: custom_0_9_0_0_6
Encoding: 2962 -1 2717
Width: 70
Flags: H
LayerCount: 2
Fore
SplineSet
17 25 m 1
 15 25 l 1
 15 27 l 1
 17 27 l 1
 17 25 l 1
17 29 m 1
 15 29 l 1
 15 31 l 1
 17 31 l 1
 17 29 l 1
17 33 m 1
 15 33 l 1
 15 35 l 1
 17 35 l 1
 17 33 l 1
23 25 m 1
 21 25 l 1
 21 27 l 1
 23 27 l 1
 23 25 l 1
26 25 m 1
 24 25 l 1
 24 27 l 1
 25 27 l 1
 25 26 l 1
 26 26 l 1
 26 25 l 1
27 26 m 1
 26 26 l 1
 26 27 l 1
 28 27 l 1
 28 25 l 1
 27 25 l 1
 27 26 l 1
31 25 m 1
 29 25 l 1
 29 27 l 1
 31 27 l 1
 31 25 l 1
23 33 m 1
 21 33 l 1
 21 35 l 1
 23 35 l 1
 23 33 l 1
25 33 m 1
 24 33 l 1
 24 35 l 1
 26 35 l 1
 26 34 l 1
 25 34 l 1
 25 33 l 1
28 33 m 1
 26 33 l 1
 26 34 l 1
 27 34 l 1
 27 35 l 1
 28 35 l 1
 28 33 l 1
31 29 m 1
 29 29 l 1
 29 31 l 1
 31 31 l 1
 31 29 l 1
36 31 m 1
 34 31 l 1
 34 33 l 1
 36 33 l 1
 36 31 l 1
31 33 m 1
 29 33 l 1
 29 35 l 1
 31 35 l 1
 31 33 l 1
36 35 m 1
 34 35 l 1
 34 37 l 1
 36 37 l 1
 36 35 l 1
41 25 m 1
 39 25 l 1
 39 27 l 1
 41 27 l 1
 41 25 l 1
44 25 m 1
 42 25 l 1
 42 27 l 1
 43 27 l 1
 43 26 l 1
 44 26 l 1
 44 25 l 1
45 26 m 1
 44 26 l 1
 44 27 l 1
 46 27 l 1
 46 25 l 1
 45 25 l 1
 45 26 l 1
49 25 m 1
 47 25 l 1
 47 27 l 1
 49 27 l 1
 49 25 l 1
41 29 m 1
 39 29 l 1
 39 31 l 1
 41 31 l 1
 41 29 l 1
41 33 m 1
 39 33 l 1
 39 35 l 1
 41 35 l 1
 41 33 l 1
49 29 m 1
 47 29 l 1
 47 31 l 1
 49 31 l 1
 49 29 l 1
49 33 m 1
 47 33 l 1
 47 35 l 1
 49 35 l 1
 49 33 l 1
55 25 m 1
 53 25 l 1
 53 27 l 1
 55 27 l 1
 55 25 l 1
58 25 m 1
 56 25 l 1
 56 27 l 1
 57 27 l 1
 57 26 l 1
 58 26 l 1
 58 25 l 1
59 26 m 1
 58 26 l 1
 58 27 l 1
 60 27 l 1
 60 25 l 1
 59 25 l 1
 59 26 l 1
63 25 m 1
 61 25 l 1
 61 27 l 1
 63 27 l 1
 63 25 l 1
55 29 m 1
 53 29 l 1
 53 31 l 1
 55 31 l 1
 55 29 l 1
55 33 m 1
 53 33 l 1
 53 35 l 1
 55 35 l 1
 55 33 l 1
57 33 m 1
 56 33 l 1
 56 35 l 1
 58 35 l 1
 58 34 l 1
 57 34 l 1
 57 33 l 1
60 33 m 1
 58 33 l 1
 58 34 l 1
 59 34 l 1
 59 35 l 1
 60 35 l 1
 60 33 l 1
63 29 m 1
 61 29 l 1
 61 31 l 1
 63 31 l 1
 63 29 l 1
63 33 m 1
 61 33 l 1
 61 35 l 1
 63 35 l 1
 63 33 l 1
17 37 m 1
 15 37 l 1
 15 39 l 1
 17 39 l 1
 17 37 l 1
17 41 m 1
 15 41 l 1
 15 43 l 1
 17 43 l 1
 17 41 l 1
23 37 m 1
 21 37 l 1
 21 39 l 1
 23 39 l 1
 23 37 l 1
23 41 m 1
 21 41 l 1
 21 43 l 1
 23 43 l 1
 23 41 l 1
26 41 m 1
 24 41 l 1
 24 43 l 1
 25 43 l 1
 25 42 l 1
 26 42 l 1
 26 41 l 1
27 42 m 1
 26 42 l 1
 26 43 l 1
 28 43 l 1
 28 41 l 1
 27 41 l 1
 27 42 l 1
31 41 m 1
 29 41 l 1
 29 43 l 1
 31 43 l 1
 31 41 l 1
41 37 m 1
 39 37 l 1
 39 39 l 1
 41 39 l 1
 41 37 l 1
41 41 m 1
 39 41 l 1
 39 43 l 1
 41 43 l 1
 41 41 l 1
44 41 m 1
 42 41 l 1
 42 43 l 1
 43 43 l 1
 43 42 l 1
 44 42 l 1
 44 41 l 1
45 42 m 1
 44 42 l 1
 44 43 l 1
 46 43 l 1
 46 41 l 1
 45 41 l 1
 45 42 l 1
49 37 m 1
 47 37 l 1
 47 39 l 1
 49 39 l 1
 49 37 l 1
49 41 m 1
 47 41 l 1
 47 43 l 1
 49 43 l 1
 49 41 l 1
55 41 m 1
 53 41 l 1
 53 43 l 1
 55 43 l 1
 55 41 l 1
58 41 m 1
 56 41 l 1
 56 43 l 1
 57 43 l 1
 57 42 l 1
 58 42 l 1
 58 41 l 1
59 42 m 1
 58 42 l 1
 58 43 l 1
 60 43 l 1
 60 41 l 1
 59 41 l 1
 59 42 l 1
63 37 m 1
 61 37 l 1
 61 39 l 1
 63 39 l 1
 63 37 l 1
63 41 m 1
 61 41 l 1
 61 43 l 1
 63 43 l 1
 63 41 l 1
EndSplineSet
Ligature2: "'liga' Standard Ligatures in Latin lookup 0-1" zero nine zero zero six
LCarets2: 1 0
EndChar

StartChar: custom_0_9_0_0_7
Encoding: 2963 -1 2718
Width: 70
Flags: H
LayerCount: 2
Fore
SplineSet
17 25 m 1
 15 25 l 1
 15 27 l 1
 17 27 l 1
 17 25 l 1
17 29 m 1
 15 29 l 1
 15 31 l 1
 17 31 l 1
 17 29 l 1
17 33 m 1
 15 33 l 1
 15 35 l 1
 17 35 l 1
 17 33 l 1
23 25 m 1
 21 25 l 1
 21 27 l 1
 23 27 l 1
 23 25 l 1
26 25 m 1
 24 25 l 1
 24 27 l 1
 25 27 l 1
 25 26 l 1
 26 26 l 1
 26 25 l 1
27 26 m 1
 26 26 l 1
 26 27 l 1
 28 27 l 1
 28 25 l 1
 27 25 l 1
 27 26 l 1
31 25 m 1
 29 25 l 1
 29 27 l 1
 31 27 l 1
 31 25 l 1
23 33 m 1
 21 33 l 1
 21 35 l 1
 23 35 l 1
 23 33 l 1
25 33 m 1
 24 33 l 1
 24 35 l 1
 26 35 l 1
 26 34 l 1
 25 34 l 1
 25 33 l 1
28 33 m 1
 26 33 l 1
 26 34 l 1
 27 34 l 1
 27 35 l 1
 28 35 l 1
 28 33 l 1
31 29 m 1
 29 29 l 1
 29 31 l 1
 31 31 l 1
 31 29 l 1
36 31 m 1
 34 31 l 1
 34 33 l 1
 36 33 l 1
 36 31 l 1
31 33 m 1
 29 33 l 1
 29 35 l 1
 31 35 l 1
 31 33 l 1
36 35 m 1
 34 35 l 1
 34 37 l 1
 36 37 l 1
 36 35 l 1
41 25 m 1
 39 25 l 1
 39 27 l 1
 41 27 l 1
 41 25 l 1
44 25 m 1
 42 25 l 1
 42 27 l 1
 43 27 l 1
 43 26 l 1
 44 26 l 1
 44 25 l 1
45 26 m 1
 44 26 l 1
 44 27 l 1
 46 27 l 1
 46 25 l 1
 45 25 l 1
 45 26 l 1
49 25 m 1
 47 25 l 1
 47 27 l 1
 49 27 l 1
 49 25 l 1
41 29 m 1
 39 29 l 1
 39 31 l 1
 41 31 l 1
 41 29 l 1
41 33 m 1
 39 33 l 1
 39 35 l 1
 41 35 l 1
 41 33 l 1
49 29 m 1
 47 29 l 1
 47 31 l 1
 49 31 l 1
 49 29 l 1
49 33 m 1
 47 33 l 1
 47 35 l 1
 49 35 l 1
 49 33 l 1
55 25 m 1
 53 25 l 1
 53 27 l 1
 55 27 l 1
 55 25 l 1
58 25 m 1
 56 25 l 1
 56 27 l 1
 57 27 l 1
 57 26 l 1
 58 26 l 1
 58 25 l 1
59 26 m 1
 58 26 l 1
 58 27 l 1
 60 27 l 1
 60 25 l 1
 59 25 l 1
 59 26 l 1
63 25 m 1
 61 25 l 1
 61 27 l 1
 63 27 l 1
 63 25 l 1
55 29 m 1
 53 29 l 1
 53 31 l 1
 55 31 l 1
 55 29 l 1
55 33 m 1
 53 33 l 1
 53 35 l 1
 55 35 l 1
 55 33 l 1
57 33 m 1
 56 33 l 1
 56 35 l 1
 58 35 l 1
 58 34 l 1
 57 34 l 1
 57 33 l 1
60 33 m 1
 58 33 l 1
 58 34 l 1
 59 34 l 1
 59 35 l 1
 60 35 l 1
 60 33 l 1
63 29 m 1
 61 29 l 1
 61 31 l 1
 63 31 l 1
 63 29 l 1
63 33 m 1
 61 33 l 1
 61 35 l 1
 63 35 l 1
 63 33 l 1
17 37 m 1
 15 37 l 1
 15 39 l 1
 17 39 l 1
 17 37 l 1
17 41 m 1
 15 41 l 1
 15 43 l 1
 17 43 l 1
 17 41 l 1
23 37 m 1
 21 37 l 1
 21 39 l 1
 23 39 l 1
 23 37 l 1
23 41 m 1
 21 41 l 1
 21 43 l 1
 23 43 l 1
 23 41 l 1
26 41 m 1
 24 41 l 1
 24 43 l 1
 25 43 l 1
 25 42 l 1
 26 42 l 1
 26 41 l 1
27 42 m 1
 26 42 l 1
 26 43 l 1
 28 43 l 1
 28 41 l 1
 27 41 l 1
 27 42 l 1
31 41 m 1
 29 41 l 1
 29 43 l 1
 31 43 l 1
 31 41 l 1
41 37 m 1
 39 37 l 1
 39 39 l 1
 41 39 l 1
 41 37 l 1
41 41 m 1
 39 41 l 1
 39 43 l 1
 41 43 l 1
 41 41 l 1
44 41 m 1
 42 41 l 1
 42 43 l 1
 43 43 l 1
 43 42 l 1
 44 42 l 1
 44 41 l 1
45 42 m 1
 44 42 l 1
 44 43 l 1
 46 43 l 1
 46 41 l 1
 45 41 l 1
 45 42 l 1
49 37 m 1
 47 37 l 1
 47 39 l 1
 49 39 l 1
 49 37 l 1
49 41 m 1
 47 41 l 1
 47 43 l 1
 49 43 l 1
 49 41 l 1
55 41 m 1
 53 41 l 1
 53 43 l 1
 55 43 l 1
 55 41 l 1
58 41 m 1
 56 41 l 1
 56 43 l 1
 57 43 l 1
 57 42 l 1
 58 42 l 1
 58 41 l 1
59 42 m 1
 58 42 l 1
 58 43 l 1
 60 43 l 1
 60 41 l 1
 59 41 l 1
 59 42 l 1
63 37 m 1
 61 37 l 1
 61 39 l 1
 63 39 l 1
 63 37 l 1
63 41 m 1
 61 41 l 1
 61 43 l 1
 63 43 l 1
 63 41 l 1
EndSplineSet
Ligature2: "'liga' Standard Ligatures in Latin lookup 0-1" zero nine zero zero seven
LCarets2: 1 0
EndChar

StartChar: custom_0_9_0_0_8
Encoding: 2964 -1 2719
Width: 70
Flags: H
LayerCount: 2
Fore
SplineSet
17 25 m 1
 15 25 l 1
 15 27 l 1
 17 27 l 1
 17 25 l 1
17 29 m 1
 15 29 l 1
 15 31 l 1
 17 31 l 1
 17 29 l 1
17 33 m 1
 15 33 l 1
 15 35 l 1
 17 35 l 1
 17 33 l 1
23 25 m 1
 21 25 l 1
 21 27 l 1
 23 27 l 1
 23 25 l 1
26 25 m 1
 24 25 l 1
 24 27 l 1
 25 27 l 1
 25 26 l 1
 26 26 l 1
 26 25 l 1
27 26 m 1
 26 26 l 1
 26 27 l 1
 28 27 l 1
 28 25 l 1
 27 25 l 1
 27 26 l 1
31 25 m 1
 29 25 l 1
 29 27 l 1
 31 27 l 1
 31 25 l 1
23 33 m 1
 21 33 l 1
 21 35 l 1
 23 35 l 1
 23 33 l 1
25 33 m 1
 24 33 l 1
 24 35 l 1
 26 35 l 1
 26 34 l 1
 25 34 l 1
 25 33 l 1
28 33 m 1
 26 33 l 1
 26 34 l 1
 27 34 l 1
 27 35 l 1
 28 35 l 1
 28 33 l 1
31 29 m 1
 29 29 l 1
 29 31 l 1
 31 31 l 1
 31 29 l 1
36 31 m 1
 34 31 l 1
 34 33 l 1
 36 33 l 1
 36 31 l 1
31 33 m 1
 29 33 l 1
 29 35 l 1
 31 35 l 1
 31 33 l 1
36 35 m 1
 34 35 l 1
 34 37 l 1
 36 37 l 1
 36 35 l 1
41 25 m 1
 39 25 l 1
 39 27 l 1
 41 27 l 1
 41 25 l 1
44 25 m 1
 42 25 l 1
 42 27 l 1
 43 27 l 1
 43 26 l 1
 44 26 l 1
 44 25 l 1
45 26 m 1
 44 26 l 1
 44 27 l 1
 46 27 l 1
 46 25 l 1
 45 25 l 1
 45 26 l 1
49 25 m 1
 47 25 l 1
 47 27 l 1
 49 27 l 1
 49 25 l 1
41 29 m 1
 39 29 l 1
 39 31 l 1
 41 31 l 1
 41 29 l 1
41 33 m 1
 39 33 l 1
 39 35 l 1
 41 35 l 1
 41 33 l 1
49 29 m 1
 47 29 l 1
 47 31 l 1
 49 31 l 1
 49 29 l 1
49 33 m 1
 47 33 l 1
 47 35 l 1
 49 35 l 1
 49 33 l 1
55 25 m 1
 53 25 l 1
 53 27 l 1
 55 27 l 1
 55 25 l 1
58 25 m 1
 56 25 l 1
 56 27 l 1
 57 27 l 1
 57 26 l 1
 58 26 l 1
 58 25 l 1
59 26 m 1
 58 26 l 1
 58 27 l 1
 60 27 l 1
 60 25 l 1
 59 25 l 1
 59 26 l 1
63 25 m 1
 61 25 l 1
 61 27 l 1
 63 27 l 1
 63 25 l 1
55 29 m 1
 53 29 l 1
 53 31 l 1
 55 31 l 1
 55 29 l 1
55 33 m 1
 53 33 l 1
 53 35 l 1
 55 35 l 1
 55 33 l 1
57 33 m 1
 56 33 l 1
 56 35 l 1
 58 35 l 1
 58 34 l 1
 57 34 l 1
 57 33 l 1
60 33 m 1
 58 33 l 1
 58 34 l 1
 59 34 l 1
 59 35 l 1
 60 35 l 1
 60 33 l 1
63 29 m 1
 61 29 l 1
 61 31 l 1
 63 31 l 1
 63 29 l 1
63 33 m 1
 61 33 l 1
 61 35 l 1
 63 35 l 1
 63 33 l 1
17 37 m 1
 15 37 l 1
 15 39 l 1
 17 39 l 1
 17 37 l 1
17 41 m 1
 15 41 l 1
 15 43 l 1
 17 43 l 1
 17 41 l 1
23 37 m 1
 21 37 l 1
 21 39 l 1
 23 39 l 1
 23 37 l 1
23 41 m 1
 21 41 l 1
 21 43 l 1
 23 43 l 1
 23 41 l 1
26 41 m 1
 24 41 l 1
 24 43 l 1
 25 43 l 1
 25 42 l 1
 26 42 l 1
 26 41 l 1
27 42 m 1
 26 42 l 1
 26 43 l 1
 28 43 l 1
 28 41 l 1
 27 41 l 1
 27 42 l 1
31 41 m 1
 29 41 l 1
 29 43 l 1
 31 43 l 1
 31 41 l 1
41 37 m 1
 39 37 l 1
 39 39 l 1
 41 39 l 1
 41 37 l 1
41 41 m 1
 39 41 l 1
 39 43 l 1
 41 43 l 1
 41 41 l 1
44 41 m 1
 42 41 l 1
 42 43 l 1
 43 43 l 1
 43 42 l 1
 44 42 l 1
 44 41 l 1
45 42 m 1
 44 42 l 1
 44 43 l 1
 46 43 l 1
 46 41 l 1
 45 41 l 1
 45 42 l 1
49 37 m 1
 47 37 l 1
 47 39 l 1
 49 39 l 1
 49 37 l 1
49 41 m 1
 47 41 l 1
 47 43 l 1
 49 43 l 1
 49 41 l 1
55 41 m 1
 53 41 l 1
 53 43 l 1
 55 43 l 1
 55 41 l 1
58 41 m 1
 56 41 l 1
 56 43 l 1
 57 43 l 1
 57 42 l 1
 58 42 l 1
 58 41 l 1
59 42 m 1
 58 42 l 1
 58 43 l 1
 60 43 l 1
 60 41 l 1
 59 41 l 1
 59 42 l 1
63 37 m 1
 61 37 l 1
 61 39 l 1
 63 39 l 1
 63 37 l 1
63 41 m 1
 61 41 l 1
 61 43 l 1
 63 43 l 1
 63 41 l 1
EndSplineSet
Ligature2: "'liga' Standard Ligatures in Latin lookup 0-1" zero nine zero zero eight
LCarets2: 1 0
EndChar

StartChar: custom_0_9_0_0_9
Encoding: 2965 -1 2720
Width: 70
Flags: H
LayerCount: 2
Fore
SplineSet
17 25 m 1
 15 25 l 1
 15 27 l 1
 17 27 l 1
 17 25 l 1
17 29 m 1
 15 29 l 1
 15 31 l 1
 17 31 l 1
 17 29 l 1
17 33 m 1
 15 33 l 1
 15 35 l 1
 17 35 l 1
 17 33 l 1
23 25 m 1
 21 25 l 1
 21 27 l 1
 23 27 l 1
 23 25 l 1
26 25 m 1
 24 25 l 1
 24 27 l 1
 25 27 l 1
 25 26 l 1
 26 26 l 1
 26 25 l 1
27 26 m 1
 26 26 l 1
 26 27 l 1
 28 27 l 1
 28 25 l 1
 27 25 l 1
 27 26 l 1
31 25 m 1
 29 25 l 1
 29 27 l 1
 31 27 l 1
 31 25 l 1
23 33 m 1
 21 33 l 1
 21 35 l 1
 23 35 l 1
 23 33 l 1
25 33 m 1
 24 33 l 1
 24 35 l 1
 26 35 l 1
 26 34 l 1
 25 34 l 1
 25 33 l 1
28 33 m 1
 26 33 l 1
 26 34 l 1
 27 34 l 1
 27 35 l 1
 28 35 l 1
 28 33 l 1
31 29 m 1
 29 29 l 1
 29 31 l 1
 31 31 l 1
 31 29 l 1
36 31 m 1
 34 31 l 1
 34 33 l 1
 36 33 l 1
 36 31 l 1
31 33 m 1
 29 33 l 1
 29 35 l 1
 31 35 l 1
 31 33 l 1
36 35 m 1
 34 35 l 1
 34 37 l 1
 36 37 l 1
 36 35 l 1
41 25 m 1
 39 25 l 1
 39 27 l 1
 41 27 l 1
 41 25 l 1
44 25 m 1
 42 25 l 1
 42 27 l 1
 43 27 l 1
 43 26 l 1
 44 26 l 1
 44 25 l 1
45 26 m 1
 44 26 l 1
 44 27 l 1
 46 27 l 1
 46 25 l 1
 45 25 l 1
 45 26 l 1
49 25 m 1
 47 25 l 1
 47 27 l 1
 49 27 l 1
 49 25 l 1
41 29 m 1
 39 29 l 1
 39 31 l 1
 41 31 l 1
 41 29 l 1
41 33 m 1
 39 33 l 1
 39 35 l 1
 41 35 l 1
 41 33 l 1
49 29 m 1
 47 29 l 1
 47 31 l 1
 49 31 l 1
 49 29 l 1
49 33 m 1
 47 33 l 1
 47 35 l 1
 49 35 l 1
 49 33 l 1
55 25 m 1
 53 25 l 1
 53 27 l 1
 55 27 l 1
 55 25 l 1
58 25 m 1
 56 25 l 1
 56 27 l 1
 57 27 l 1
 57 26 l 1
 58 26 l 1
 58 25 l 1
59 26 m 1
 58 26 l 1
 58 27 l 1
 60 27 l 1
 60 25 l 1
 59 25 l 1
 59 26 l 1
63 25 m 1
 61 25 l 1
 61 27 l 1
 63 27 l 1
 63 25 l 1
55 29 m 1
 53 29 l 1
 53 31 l 1
 55 31 l 1
 55 29 l 1
55 33 m 1
 53 33 l 1
 53 35 l 1
 55 35 l 1
 55 33 l 1
57 33 m 1
 56 33 l 1
 56 35 l 1
 58 35 l 1
 58 34 l 1
 57 34 l 1
 57 33 l 1
60 33 m 1
 58 33 l 1
 58 34 l 1
 59 34 l 1
 59 35 l 1
 60 35 l 1
 60 33 l 1
63 29 m 1
 61 29 l 1
 61 31 l 1
 63 31 l 1
 63 29 l 1
63 33 m 1
 61 33 l 1
 61 35 l 1
 63 35 l 1
 63 33 l 1
17 37 m 1
 15 37 l 1
 15 39 l 1
 17 39 l 1
 17 37 l 1
17 41 m 1
 15 41 l 1
 15 43 l 1
 17 43 l 1
 17 41 l 1
23 37 m 1
 21 37 l 1
 21 39 l 1
 23 39 l 1
 23 37 l 1
23 41 m 1
 21 41 l 1
 21 43 l 1
 23 43 l 1
 23 41 l 1
26 41 m 1
 24 41 l 1
 24 43 l 1
 25 43 l 1
 25 42 l 1
 26 42 l 1
 26 41 l 1
27 42 m 1
 26 42 l 1
 26 43 l 1
 28 43 l 1
 28 41 l 1
 27 41 l 1
 27 42 l 1
31 41 m 1
 29 41 l 1
 29 43 l 1
 31 43 l 1
 31 41 l 1
41 37 m 1
 39 37 l 1
 39 39 l 1
 41 39 l 1
 41 37 l 1
41 41 m 1
 39 41 l 1
 39 43 l 1
 41 43 l 1
 41 41 l 1
44 41 m 1
 42 41 l 1
 42 43 l 1
 43 43 l 1
 43 42 l 1
 44 42 l 1
 44 41 l 1
45 42 m 1
 44 42 l 1
 44 43 l 1
 46 43 l 1
 46 41 l 1
 45 41 l 1
 45 42 l 1
49 37 m 1
 47 37 l 1
 47 39 l 1
 49 39 l 1
 49 37 l 1
49 41 m 1
 47 41 l 1
 47 43 l 1
 49 43 l 1
 49 41 l 1
55 41 m 1
 53 41 l 1
 53 43 l 1
 55 43 l 1
 55 41 l 1
58 41 m 1
 56 41 l 1
 56 43 l 1
 57 43 l 1
 57 42 l 1
 58 42 l 1
 58 41 l 1
59 42 m 1
 58 42 l 1
 58 43 l 1
 60 43 l 1
 60 41 l 1
 59 41 l 1
 59 42 l 1
63 37 m 1
 61 37 l 1
 61 39 l 1
 63 39 l 1
 63 37 l 1
63 41 m 1
 61 41 l 1
 61 43 l 1
 63 43 l 1
 63 41 l 1
EndSplineSet
Ligature2: "'liga' Standard Ligatures in Latin lookup 0-1" zero nine zero zero nine
LCarets2: 1 0
EndChar

StartChar: custom_0_9_0_1_0
Encoding: 2966 -1 2721
Width: 70
Flags: H
LayerCount: 2
Fore
SplineSet
17 25 m 1
 15 25 l 1
 15 27 l 1
 17 27 l 1
 17 25 l 1
17 29 m 1
 15 29 l 1
 15 31 l 1
 17 31 l 1
 17 29 l 1
17 33 m 1
 15 33 l 1
 15 35 l 1
 17 35 l 1
 17 33 l 1
23 25 m 1
 21 25 l 1
 21 27 l 1
 23 27 l 1
 23 25 l 1
26 25 m 1
 24 25 l 1
 24 27 l 1
 25 27 l 1
 25 26 l 1
 26 26 l 1
 26 25 l 1
27 26 m 1
 26 26 l 1
 26 27 l 1
 28 27 l 1
 28 25 l 1
 27 25 l 1
 27 26 l 1
31 25 m 1
 29 25 l 1
 29 27 l 1
 31 27 l 1
 31 25 l 1
23 33 m 1
 21 33 l 1
 21 35 l 1
 23 35 l 1
 23 33 l 1
25 33 m 1
 24 33 l 1
 24 35 l 1
 26 35 l 1
 26 34 l 1
 25 34 l 1
 25 33 l 1
28 33 m 1
 26 33 l 1
 26 34 l 1
 27 34 l 1
 27 35 l 1
 28 35 l 1
 28 33 l 1
31 29 m 1
 29 29 l 1
 29 31 l 1
 31 31 l 1
 31 29 l 1
36 31 m 1
 34 31 l 1
 34 33 l 1
 36 33 l 1
 36 31 l 1
31 33 m 1
 29 33 l 1
 29 35 l 1
 31 35 l 1
 31 33 l 1
36 35 m 1
 34 35 l 1
 34 37 l 1
 36 37 l 1
 36 35 l 1
41 25 m 1
 39 25 l 1
 39 27 l 1
 41 27 l 1
 41 25 l 1
44 25 m 1
 42 25 l 1
 42 27 l 1
 43 27 l 1
 43 26 l 1
 44 26 l 1
 44 25 l 1
45 26 m 1
 44 26 l 1
 44 27 l 1
 46 27 l 1
 46 25 l 1
 45 25 l 1
 45 26 l 1
49 25 m 1
 47 25 l 1
 47 27 l 1
 49 27 l 1
 49 25 l 1
41 29 m 1
 39 29 l 1
 39 31 l 1
 41 31 l 1
 41 29 l 1
41 33 m 1
 39 33 l 1
 39 35 l 1
 41 35 l 1
 41 33 l 1
49 29 m 1
 47 29 l 1
 47 31 l 1
 49 31 l 1
 49 29 l 1
49 33 m 1
 47 33 l 1
 47 35 l 1
 49 35 l 1
 49 33 l 1
55 25 m 1
 53 25 l 1
 53 27 l 1
 55 27 l 1
 55 25 l 1
58 25 m 1
 56 25 l 1
 56 27 l 1
 57 27 l 1
 57 26 l 1
 58 26 l 1
 58 25 l 1
59 26 m 1
 58 26 l 1
 58 27 l 1
 60 27 l 1
 60 25 l 1
 59 25 l 1
 59 26 l 1
63 25 m 1
 61 25 l 1
 61 27 l 1
 63 27 l 1
 63 25 l 1
55 29 m 1
 53 29 l 1
 53 31 l 1
 55 31 l 1
 55 29 l 1
55 33 m 1
 53 33 l 1
 53 35 l 1
 55 35 l 1
 55 33 l 1
57 33 m 1
 56 33 l 1
 56 35 l 1
 58 35 l 1
 58 34 l 1
 57 34 l 1
 57 33 l 1
60 33 m 1
 58 33 l 1
 58 34 l 1
 59 34 l 1
 59 35 l 1
 60 35 l 1
 60 33 l 1
63 29 m 1
 61 29 l 1
 61 31 l 1
 63 31 l 1
 63 29 l 1
63 33 m 1
 61 33 l 1
 61 35 l 1
 63 35 l 1
 63 33 l 1
17 37 m 1
 15 37 l 1
 15 39 l 1
 17 39 l 1
 17 37 l 1
17 41 m 1
 15 41 l 1
 15 43 l 1
 17 43 l 1
 17 41 l 1
23 37 m 1
 21 37 l 1
 21 39 l 1
 23 39 l 1
 23 37 l 1
23 41 m 1
 21 41 l 1
 21 43 l 1
 23 43 l 1
 23 41 l 1
26 41 m 1
 24 41 l 1
 24 43 l 1
 25 43 l 1
 25 42 l 1
 26 42 l 1
 26 41 l 1
27 42 m 1
 26 42 l 1
 26 43 l 1
 28 43 l 1
 28 41 l 1
 27 41 l 1
 27 42 l 1
31 41 m 1
 29 41 l 1
 29 43 l 1
 31 43 l 1
 31 41 l 1
41 37 m 1
 39 37 l 1
 39 39 l 1
 41 39 l 1
 41 37 l 1
41 41 m 1
 39 41 l 1
 39 43 l 1
 41 43 l 1
 41 41 l 1
44 41 m 1
 42 41 l 1
 42 43 l 1
 43 43 l 1
 43 42 l 1
 44 42 l 1
 44 41 l 1
45 42 m 1
 44 42 l 1
 44 43 l 1
 46 43 l 1
 46 41 l 1
 45 41 l 1
 45 42 l 1
49 37 m 1
 47 37 l 1
 47 39 l 1
 49 39 l 1
 49 37 l 1
49 41 m 1
 47 41 l 1
 47 43 l 1
 49 43 l 1
 49 41 l 1
55 41 m 1
 53 41 l 1
 53 43 l 1
 55 43 l 1
 55 41 l 1
58 41 m 1
 56 41 l 1
 56 43 l 1
 57 43 l 1
 57 42 l 1
 58 42 l 1
 58 41 l 1
59 42 m 1
 58 42 l 1
 58 43 l 1
 60 43 l 1
 60 41 l 1
 59 41 l 1
 59 42 l 1
63 37 m 1
 61 37 l 1
 61 39 l 1
 63 39 l 1
 63 37 l 1
63 41 m 1
 61 41 l 1
 61 43 l 1
 63 43 l 1
 63 41 l 1
EndSplineSet
Ligature2: "'liga' Standard Ligatures in Latin lookup 0-1" zero nine zero one zero
LCarets2: 1 0
EndChar

StartChar: custom_0_9_0_1_1
Encoding: 2967 -1 2722
Width: 70
Flags: H
LayerCount: 2
Fore
SplineSet
17 25 m 1
 15 25 l 1
 15 27 l 1
 17 27 l 1
 17 25 l 1
17 29 m 1
 15 29 l 1
 15 31 l 1
 17 31 l 1
 17 29 l 1
17 33 m 1
 15 33 l 1
 15 35 l 1
 17 35 l 1
 17 33 l 1
23 25 m 1
 21 25 l 1
 21 27 l 1
 23 27 l 1
 23 25 l 1
26 25 m 1
 24 25 l 1
 24 27 l 1
 25 27 l 1
 25 26 l 1
 26 26 l 1
 26 25 l 1
27 26 m 1
 26 26 l 1
 26 27 l 1
 28 27 l 1
 28 25 l 1
 27 25 l 1
 27 26 l 1
31 25 m 1
 29 25 l 1
 29 27 l 1
 31 27 l 1
 31 25 l 1
23 33 m 1
 21 33 l 1
 21 35 l 1
 23 35 l 1
 23 33 l 1
25 33 m 1
 24 33 l 1
 24 35 l 1
 26 35 l 1
 26 34 l 1
 25 34 l 1
 25 33 l 1
28 33 m 1
 26 33 l 1
 26 34 l 1
 27 34 l 1
 27 35 l 1
 28 35 l 1
 28 33 l 1
31 29 m 1
 29 29 l 1
 29 31 l 1
 31 31 l 1
 31 29 l 1
36 31 m 1
 34 31 l 1
 34 33 l 1
 36 33 l 1
 36 31 l 1
31 33 m 1
 29 33 l 1
 29 35 l 1
 31 35 l 1
 31 33 l 1
36 35 m 1
 34 35 l 1
 34 37 l 1
 36 37 l 1
 36 35 l 1
41 25 m 1
 39 25 l 1
 39 27 l 1
 41 27 l 1
 41 25 l 1
44 25 m 1
 42 25 l 1
 42 27 l 1
 43 27 l 1
 43 26 l 1
 44 26 l 1
 44 25 l 1
45 26 m 1
 44 26 l 1
 44 27 l 1
 46 27 l 1
 46 25 l 1
 45 25 l 1
 45 26 l 1
49 25 m 1
 47 25 l 1
 47 27 l 1
 49 27 l 1
 49 25 l 1
41 29 m 1
 39 29 l 1
 39 31 l 1
 41 31 l 1
 41 29 l 1
41 33 m 1
 39 33 l 1
 39 35 l 1
 41 35 l 1
 41 33 l 1
49 29 m 1
 47 29 l 1
 47 31 l 1
 49 31 l 1
 49 29 l 1
49 33 m 1
 47 33 l 1
 47 35 l 1
 49 35 l 1
 49 33 l 1
55 25 m 1
 53 25 l 1
 53 27 l 1
 55 27 l 1
 55 25 l 1
58 25 m 1
 56 25 l 1
 56 27 l 1
 57 27 l 1
 57 26 l 1
 58 26 l 1
 58 25 l 1
59 26 m 1
 58 26 l 1
 58 27 l 1
 60 27 l 1
 60 25 l 1
 59 25 l 1
 59 26 l 1
63 25 m 1
 61 25 l 1
 61 27 l 1
 63 27 l 1
 63 25 l 1
55 29 m 1
 53 29 l 1
 53 31 l 1
 55 31 l 1
 55 29 l 1
55 33 m 1
 53 33 l 1
 53 35 l 1
 55 35 l 1
 55 33 l 1
57 33 m 1
 56 33 l 1
 56 35 l 1
 58 35 l 1
 58 34 l 1
 57 34 l 1
 57 33 l 1
60 33 m 1
 58 33 l 1
 58 34 l 1
 59 34 l 1
 59 35 l 1
 60 35 l 1
 60 33 l 1
63 29 m 1
 61 29 l 1
 61 31 l 1
 63 31 l 1
 63 29 l 1
63 33 m 1
 61 33 l 1
 61 35 l 1
 63 35 l 1
 63 33 l 1
17 37 m 1
 15 37 l 1
 15 39 l 1
 17 39 l 1
 17 37 l 1
17 41 m 1
 15 41 l 1
 15 43 l 1
 17 43 l 1
 17 41 l 1
23 37 m 1
 21 37 l 1
 21 39 l 1
 23 39 l 1
 23 37 l 1
23 41 m 1
 21 41 l 1
 21 43 l 1
 23 43 l 1
 23 41 l 1
26 41 m 1
 24 41 l 1
 24 43 l 1
 25 43 l 1
 25 42 l 1
 26 42 l 1
 26 41 l 1
27 42 m 1
 26 42 l 1
 26 43 l 1
 28 43 l 1
 28 41 l 1
 27 41 l 1
 27 42 l 1
31 41 m 1
 29 41 l 1
 29 43 l 1
 31 43 l 1
 31 41 l 1
41 37 m 1
 39 37 l 1
 39 39 l 1
 41 39 l 1
 41 37 l 1
41 41 m 1
 39 41 l 1
 39 43 l 1
 41 43 l 1
 41 41 l 1
44 41 m 1
 42 41 l 1
 42 43 l 1
 43 43 l 1
 43 42 l 1
 44 42 l 1
 44 41 l 1
45 42 m 1
 44 42 l 1
 44 43 l 1
 46 43 l 1
 46 41 l 1
 45 41 l 1
 45 42 l 1
49 37 m 1
 47 37 l 1
 47 39 l 1
 49 39 l 1
 49 37 l 1
49 41 m 1
 47 41 l 1
 47 43 l 1
 49 43 l 1
 49 41 l 1
55 41 m 1
 53 41 l 1
 53 43 l 1
 55 43 l 1
 55 41 l 1
58 41 m 1
 56 41 l 1
 56 43 l 1
 57 43 l 1
 57 42 l 1
 58 42 l 1
 58 41 l 1
59 42 m 1
 58 42 l 1
 58 43 l 1
 60 43 l 1
 60 41 l 1
 59 41 l 1
 59 42 l 1
63 37 m 1
 61 37 l 1
 61 39 l 1
 63 39 l 1
 63 37 l 1
63 41 m 1
 61 41 l 1
 61 43 l 1
 63 43 l 1
 63 41 l 1
EndSplineSet
Ligature2: "'liga' Standard Ligatures in Latin lookup 0-1" zero nine zero one one
LCarets2: 1 0
EndChar

StartChar: custom_0_9_0_1_2
Encoding: 2968 -1 2723
Width: 70
Flags: H
LayerCount: 2
Fore
SplineSet
17 25 m 1
 15 25 l 1
 15 27 l 1
 17 27 l 1
 17 25 l 1
17 29 m 1
 15 29 l 1
 15 31 l 1
 17 31 l 1
 17 29 l 1
17 33 m 1
 15 33 l 1
 15 35 l 1
 17 35 l 1
 17 33 l 1
23 25 m 1
 21 25 l 1
 21 27 l 1
 23 27 l 1
 23 25 l 1
26 25 m 1
 24 25 l 1
 24 27 l 1
 25 27 l 1
 25 26 l 1
 26 26 l 1
 26 25 l 1
27 26 m 1
 26 26 l 1
 26 27 l 1
 28 27 l 1
 28 25 l 1
 27 25 l 1
 27 26 l 1
31 25 m 1
 29 25 l 1
 29 27 l 1
 31 27 l 1
 31 25 l 1
23 33 m 1
 21 33 l 1
 21 35 l 1
 23 35 l 1
 23 33 l 1
25 33 m 1
 24 33 l 1
 24 35 l 1
 26 35 l 1
 26 34 l 1
 25 34 l 1
 25 33 l 1
28 33 m 1
 26 33 l 1
 26 34 l 1
 27 34 l 1
 27 35 l 1
 28 35 l 1
 28 33 l 1
31 29 m 1
 29 29 l 1
 29 31 l 1
 31 31 l 1
 31 29 l 1
36 31 m 1
 34 31 l 1
 34 33 l 1
 36 33 l 1
 36 31 l 1
31 33 m 1
 29 33 l 1
 29 35 l 1
 31 35 l 1
 31 33 l 1
36 35 m 1
 34 35 l 1
 34 37 l 1
 36 37 l 1
 36 35 l 1
41 25 m 1
 39 25 l 1
 39 27 l 1
 41 27 l 1
 41 25 l 1
44 25 m 1
 42 25 l 1
 42 27 l 1
 43 27 l 1
 43 26 l 1
 44 26 l 1
 44 25 l 1
45 26 m 1
 44 26 l 1
 44 27 l 1
 46 27 l 1
 46 25 l 1
 45 25 l 1
 45 26 l 1
49 25 m 1
 47 25 l 1
 47 27 l 1
 49 27 l 1
 49 25 l 1
41 29 m 1
 39 29 l 1
 39 31 l 1
 41 31 l 1
 41 29 l 1
41 33 m 1
 39 33 l 1
 39 35 l 1
 41 35 l 1
 41 33 l 1
49 29 m 1
 47 29 l 1
 47 31 l 1
 49 31 l 1
 49 29 l 1
49 33 m 1
 47 33 l 1
 47 35 l 1
 49 35 l 1
 49 33 l 1
55 25 m 1
 53 25 l 1
 53 27 l 1
 55 27 l 1
 55 25 l 1
58 25 m 1
 56 25 l 1
 56 27 l 1
 57 27 l 1
 57 26 l 1
 58 26 l 1
 58 25 l 1
59 26 m 1
 58 26 l 1
 58 27 l 1
 60 27 l 1
 60 25 l 1
 59 25 l 1
 59 26 l 1
63 25 m 1
 61 25 l 1
 61 27 l 1
 63 27 l 1
 63 25 l 1
55 29 m 1
 53 29 l 1
 53 31 l 1
 55 31 l 1
 55 29 l 1
55 33 m 1
 53 33 l 1
 53 35 l 1
 55 35 l 1
 55 33 l 1
57 33 m 1
 56 33 l 1
 56 35 l 1
 58 35 l 1
 58 34 l 1
 57 34 l 1
 57 33 l 1
60 33 m 1
 58 33 l 1
 58 34 l 1
 59 34 l 1
 59 35 l 1
 60 35 l 1
 60 33 l 1
63 29 m 1
 61 29 l 1
 61 31 l 1
 63 31 l 1
 63 29 l 1
63 33 m 1
 61 33 l 1
 61 35 l 1
 63 35 l 1
 63 33 l 1
17 37 m 1
 15 37 l 1
 15 39 l 1
 17 39 l 1
 17 37 l 1
17 41 m 1
 15 41 l 1
 15 43 l 1
 17 43 l 1
 17 41 l 1
23 37 m 1
 21 37 l 1
 21 39 l 1
 23 39 l 1
 23 37 l 1
23 41 m 1
 21 41 l 1
 21 43 l 1
 23 43 l 1
 23 41 l 1
26 41 m 1
 24 41 l 1
 24 43 l 1
 25 43 l 1
 25 42 l 1
 26 42 l 1
 26 41 l 1
27 42 m 1
 26 42 l 1
 26 43 l 1
 28 43 l 1
 28 41 l 1
 27 41 l 1
 27 42 l 1
31 41 m 1
 29 41 l 1
 29 43 l 1
 31 43 l 1
 31 41 l 1
41 37 m 1
 39 37 l 1
 39 39 l 1
 41 39 l 1
 41 37 l 1
41 41 m 1
 39 41 l 1
 39 43 l 1
 41 43 l 1
 41 41 l 1
44 41 m 1
 42 41 l 1
 42 43 l 1
 43 43 l 1
 43 42 l 1
 44 42 l 1
 44 41 l 1
45 42 m 1
 44 42 l 1
 44 43 l 1
 46 43 l 1
 46 41 l 1
 45 41 l 1
 45 42 l 1
49 37 m 1
 47 37 l 1
 47 39 l 1
 49 39 l 1
 49 37 l 1
49 41 m 1
 47 41 l 1
 47 43 l 1
 49 43 l 1
 49 41 l 1
55 41 m 1
 53 41 l 1
 53 43 l 1
 55 43 l 1
 55 41 l 1
58 41 m 1
 56 41 l 1
 56 43 l 1
 57 43 l 1
 57 42 l 1
 58 42 l 1
 58 41 l 1
59 42 m 1
 58 42 l 1
 58 43 l 1
 60 43 l 1
 60 41 l 1
 59 41 l 1
 59 42 l 1
63 37 m 1
 61 37 l 1
 61 39 l 1
 63 39 l 1
 63 37 l 1
63 41 m 1
 61 41 l 1
 61 43 l 1
 63 43 l 1
 63 41 l 1
EndSplineSet
Ligature2: "'liga' Standard Ligatures in Latin lookup 0-1" zero nine zero one two
LCarets2: 1 0
EndChar

StartChar: custom_0_9_0_1_3
Encoding: 2969 -1 2724
Width: 70
Flags: H
LayerCount: 2
Fore
SplineSet
17 25 m 1
 15 25 l 1
 15 27 l 1
 17 27 l 1
 17 25 l 1
17 29 m 1
 15 29 l 1
 15 31 l 1
 17 31 l 1
 17 29 l 1
17 33 m 1
 15 33 l 1
 15 35 l 1
 17 35 l 1
 17 33 l 1
23 25 m 1
 21 25 l 1
 21 27 l 1
 23 27 l 1
 23 25 l 1
26 25 m 1
 24 25 l 1
 24 27 l 1
 25 27 l 1
 25 26 l 1
 26 26 l 1
 26 25 l 1
27 26 m 1
 26 26 l 1
 26 27 l 1
 28 27 l 1
 28 25 l 1
 27 25 l 1
 27 26 l 1
31 25 m 1
 29 25 l 1
 29 27 l 1
 31 27 l 1
 31 25 l 1
23 33 m 1
 21 33 l 1
 21 35 l 1
 23 35 l 1
 23 33 l 1
25 33 m 1
 24 33 l 1
 24 35 l 1
 26 35 l 1
 26 34 l 1
 25 34 l 1
 25 33 l 1
28 33 m 1
 26 33 l 1
 26 34 l 1
 27 34 l 1
 27 35 l 1
 28 35 l 1
 28 33 l 1
31 29 m 1
 29 29 l 1
 29 31 l 1
 31 31 l 1
 31 29 l 1
36 31 m 1
 34 31 l 1
 34 33 l 1
 36 33 l 1
 36 31 l 1
31 33 m 1
 29 33 l 1
 29 35 l 1
 31 35 l 1
 31 33 l 1
36 35 m 1
 34 35 l 1
 34 37 l 1
 36 37 l 1
 36 35 l 1
41 25 m 1
 39 25 l 1
 39 27 l 1
 41 27 l 1
 41 25 l 1
44 25 m 1
 42 25 l 1
 42 27 l 1
 43 27 l 1
 43 26 l 1
 44 26 l 1
 44 25 l 1
45 26 m 1
 44 26 l 1
 44 27 l 1
 46 27 l 1
 46 25 l 1
 45 25 l 1
 45 26 l 1
49 25 m 1
 47 25 l 1
 47 27 l 1
 49 27 l 1
 49 25 l 1
41 29 m 1
 39 29 l 1
 39 31 l 1
 41 31 l 1
 41 29 l 1
41 33 m 1
 39 33 l 1
 39 35 l 1
 41 35 l 1
 41 33 l 1
49 29 m 1
 47 29 l 1
 47 31 l 1
 49 31 l 1
 49 29 l 1
49 33 m 1
 47 33 l 1
 47 35 l 1
 49 35 l 1
 49 33 l 1
55 25 m 1
 53 25 l 1
 53 27 l 1
 55 27 l 1
 55 25 l 1
58 25 m 1
 56 25 l 1
 56 27 l 1
 57 27 l 1
 57 26 l 1
 58 26 l 1
 58 25 l 1
59 26 m 1
 58 26 l 1
 58 27 l 1
 60 27 l 1
 60 25 l 1
 59 25 l 1
 59 26 l 1
63 25 m 1
 61 25 l 1
 61 27 l 1
 63 27 l 1
 63 25 l 1
55 29 m 1
 53 29 l 1
 53 31 l 1
 55 31 l 1
 55 29 l 1
55 33 m 1
 53 33 l 1
 53 35 l 1
 55 35 l 1
 55 33 l 1
57 33 m 1
 56 33 l 1
 56 35 l 1
 58 35 l 1
 58 34 l 1
 57 34 l 1
 57 33 l 1
60 33 m 1
 58 33 l 1
 58 34 l 1
 59 34 l 1
 59 35 l 1
 60 35 l 1
 60 33 l 1
63 29 m 1
 61 29 l 1
 61 31 l 1
 63 31 l 1
 63 29 l 1
63 33 m 1
 61 33 l 1
 61 35 l 1
 63 35 l 1
 63 33 l 1
17 37 m 1
 15 37 l 1
 15 39 l 1
 17 39 l 1
 17 37 l 1
17 41 m 1
 15 41 l 1
 15 43 l 1
 17 43 l 1
 17 41 l 1
23 37 m 1
 21 37 l 1
 21 39 l 1
 23 39 l 1
 23 37 l 1
23 41 m 1
 21 41 l 1
 21 43 l 1
 23 43 l 1
 23 41 l 1
26 41 m 1
 24 41 l 1
 24 43 l 1
 25 43 l 1
 25 42 l 1
 26 42 l 1
 26 41 l 1
27 42 m 1
 26 42 l 1
 26 43 l 1
 28 43 l 1
 28 41 l 1
 27 41 l 1
 27 42 l 1
31 41 m 1
 29 41 l 1
 29 43 l 1
 31 43 l 1
 31 41 l 1
41 37 m 1
 39 37 l 1
 39 39 l 1
 41 39 l 1
 41 37 l 1
41 41 m 1
 39 41 l 1
 39 43 l 1
 41 43 l 1
 41 41 l 1
44 41 m 1
 42 41 l 1
 42 43 l 1
 43 43 l 1
 43 42 l 1
 44 42 l 1
 44 41 l 1
45 42 m 1
 44 42 l 1
 44 43 l 1
 46 43 l 1
 46 41 l 1
 45 41 l 1
 45 42 l 1
49 37 m 1
 47 37 l 1
 47 39 l 1
 49 39 l 1
 49 37 l 1
49 41 m 1
 47 41 l 1
 47 43 l 1
 49 43 l 1
 49 41 l 1
55 41 m 1
 53 41 l 1
 53 43 l 1
 55 43 l 1
 55 41 l 1
58 41 m 1
 56 41 l 1
 56 43 l 1
 57 43 l 1
 57 42 l 1
 58 42 l 1
 58 41 l 1
59 42 m 1
 58 42 l 1
 58 43 l 1
 60 43 l 1
 60 41 l 1
 59 41 l 1
 59 42 l 1
63 37 m 1
 61 37 l 1
 61 39 l 1
 63 39 l 1
 63 37 l 1
63 41 m 1
 61 41 l 1
 61 43 l 1
 63 43 l 1
 63 41 l 1
EndSplineSet
Ligature2: "'liga' Standard Ligatures in Latin lookup 0-1" zero nine zero one three
LCarets2: 1 0
EndChar

StartChar: custom_0_9_0_1_4
Encoding: 2970 -1 2725
Width: 70
Flags: H
LayerCount: 2
Fore
SplineSet
17 25 m 1
 15 25 l 1
 15 27 l 1
 17 27 l 1
 17 25 l 1
17 29 m 1
 15 29 l 1
 15 31 l 1
 17 31 l 1
 17 29 l 1
17 33 m 1
 15 33 l 1
 15 35 l 1
 17 35 l 1
 17 33 l 1
23 25 m 1
 21 25 l 1
 21 27 l 1
 23 27 l 1
 23 25 l 1
26 25 m 1
 24 25 l 1
 24 27 l 1
 25 27 l 1
 25 26 l 1
 26 26 l 1
 26 25 l 1
27 26 m 1
 26 26 l 1
 26 27 l 1
 28 27 l 1
 28 25 l 1
 27 25 l 1
 27 26 l 1
31 25 m 1
 29 25 l 1
 29 27 l 1
 31 27 l 1
 31 25 l 1
23 33 m 1
 21 33 l 1
 21 35 l 1
 23 35 l 1
 23 33 l 1
25 33 m 1
 24 33 l 1
 24 35 l 1
 26 35 l 1
 26 34 l 1
 25 34 l 1
 25 33 l 1
28 33 m 1
 26 33 l 1
 26 34 l 1
 27 34 l 1
 27 35 l 1
 28 35 l 1
 28 33 l 1
31 29 m 1
 29 29 l 1
 29 31 l 1
 31 31 l 1
 31 29 l 1
36 31 m 1
 34 31 l 1
 34 33 l 1
 36 33 l 1
 36 31 l 1
31 33 m 1
 29 33 l 1
 29 35 l 1
 31 35 l 1
 31 33 l 1
36 35 m 1
 34 35 l 1
 34 37 l 1
 36 37 l 1
 36 35 l 1
41 25 m 1
 39 25 l 1
 39 27 l 1
 41 27 l 1
 41 25 l 1
44 25 m 1
 42 25 l 1
 42 27 l 1
 43 27 l 1
 43 26 l 1
 44 26 l 1
 44 25 l 1
45 26 m 1
 44 26 l 1
 44 27 l 1
 46 27 l 1
 46 25 l 1
 45 25 l 1
 45 26 l 1
49 25 m 1
 47 25 l 1
 47 27 l 1
 49 27 l 1
 49 25 l 1
41 29 m 1
 39 29 l 1
 39 31 l 1
 41 31 l 1
 41 29 l 1
41 33 m 1
 39 33 l 1
 39 35 l 1
 41 35 l 1
 41 33 l 1
49 29 m 1
 47 29 l 1
 47 31 l 1
 49 31 l 1
 49 29 l 1
49 33 m 1
 47 33 l 1
 47 35 l 1
 49 35 l 1
 49 33 l 1
55 25 m 1
 53 25 l 1
 53 27 l 1
 55 27 l 1
 55 25 l 1
58 25 m 1
 56 25 l 1
 56 27 l 1
 57 27 l 1
 57 26 l 1
 58 26 l 1
 58 25 l 1
59 26 m 1
 58 26 l 1
 58 27 l 1
 60 27 l 1
 60 25 l 1
 59 25 l 1
 59 26 l 1
63 25 m 1
 61 25 l 1
 61 27 l 1
 63 27 l 1
 63 25 l 1
55 29 m 1
 53 29 l 1
 53 31 l 1
 55 31 l 1
 55 29 l 1
55 33 m 1
 53 33 l 1
 53 35 l 1
 55 35 l 1
 55 33 l 1
57 33 m 1
 56 33 l 1
 56 35 l 1
 58 35 l 1
 58 34 l 1
 57 34 l 1
 57 33 l 1
60 33 m 1
 58 33 l 1
 58 34 l 1
 59 34 l 1
 59 35 l 1
 60 35 l 1
 60 33 l 1
63 29 m 1
 61 29 l 1
 61 31 l 1
 63 31 l 1
 63 29 l 1
63 33 m 1
 61 33 l 1
 61 35 l 1
 63 35 l 1
 63 33 l 1
17 37 m 1
 15 37 l 1
 15 39 l 1
 17 39 l 1
 17 37 l 1
17 41 m 1
 15 41 l 1
 15 43 l 1
 17 43 l 1
 17 41 l 1
23 37 m 1
 21 37 l 1
 21 39 l 1
 23 39 l 1
 23 37 l 1
23 41 m 1
 21 41 l 1
 21 43 l 1
 23 43 l 1
 23 41 l 1
26 41 m 1
 24 41 l 1
 24 43 l 1
 25 43 l 1
 25 42 l 1
 26 42 l 1
 26 41 l 1
27 42 m 1
 26 42 l 1
 26 43 l 1
 28 43 l 1
 28 41 l 1
 27 41 l 1
 27 42 l 1
31 41 m 1
 29 41 l 1
 29 43 l 1
 31 43 l 1
 31 41 l 1
41 37 m 1
 39 37 l 1
 39 39 l 1
 41 39 l 1
 41 37 l 1
41 41 m 1
 39 41 l 1
 39 43 l 1
 41 43 l 1
 41 41 l 1
44 41 m 1
 42 41 l 1
 42 43 l 1
 43 43 l 1
 43 42 l 1
 44 42 l 1
 44 41 l 1
45 42 m 1
 44 42 l 1
 44 43 l 1
 46 43 l 1
 46 41 l 1
 45 41 l 1
 45 42 l 1
49 37 m 1
 47 37 l 1
 47 39 l 1
 49 39 l 1
 49 37 l 1
49 41 m 1
 47 41 l 1
 47 43 l 1
 49 43 l 1
 49 41 l 1
55 41 m 1
 53 41 l 1
 53 43 l 1
 55 43 l 1
 55 41 l 1
58 41 m 1
 56 41 l 1
 56 43 l 1
 57 43 l 1
 57 42 l 1
 58 42 l 1
 58 41 l 1
59 42 m 1
 58 42 l 1
 58 43 l 1
 60 43 l 1
 60 41 l 1
 59 41 l 1
 59 42 l 1
63 37 m 1
 61 37 l 1
 61 39 l 1
 63 39 l 1
 63 37 l 1
63 41 m 1
 61 41 l 1
 61 43 l 1
 63 43 l 1
 63 41 l 1
EndSplineSet
Ligature2: "'liga' Standard Ligatures in Latin lookup 0-1" zero nine zero one four
LCarets2: 1 0
EndChar

StartChar: custom_0_9_0_1_5
Encoding: 2971 -1 2726
Width: 70
Flags: H
LayerCount: 2
Fore
SplineSet
17 25 m 1
 15 25 l 1
 15 27 l 1
 17 27 l 1
 17 25 l 1
17 29 m 1
 15 29 l 1
 15 31 l 1
 17 31 l 1
 17 29 l 1
17 33 m 1
 15 33 l 1
 15 35 l 1
 17 35 l 1
 17 33 l 1
23 25 m 1
 21 25 l 1
 21 27 l 1
 23 27 l 1
 23 25 l 1
26 25 m 1
 24 25 l 1
 24 27 l 1
 25 27 l 1
 25 26 l 1
 26 26 l 1
 26 25 l 1
27 26 m 1
 26 26 l 1
 26 27 l 1
 28 27 l 1
 28 25 l 1
 27 25 l 1
 27 26 l 1
31 25 m 1
 29 25 l 1
 29 27 l 1
 31 27 l 1
 31 25 l 1
23 33 m 1
 21 33 l 1
 21 35 l 1
 23 35 l 1
 23 33 l 1
25 33 m 1
 24 33 l 1
 24 35 l 1
 26 35 l 1
 26 34 l 1
 25 34 l 1
 25 33 l 1
28 33 m 1
 26 33 l 1
 26 34 l 1
 27 34 l 1
 27 35 l 1
 28 35 l 1
 28 33 l 1
31 29 m 1
 29 29 l 1
 29 31 l 1
 31 31 l 1
 31 29 l 1
36 31 m 1
 34 31 l 1
 34 33 l 1
 36 33 l 1
 36 31 l 1
31 33 m 1
 29 33 l 1
 29 35 l 1
 31 35 l 1
 31 33 l 1
36 35 m 1
 34 35 l 1
 34 37 l 1
 36 37 l 1
 36 35 l 1
41 25 m 1
 39 25 l 1
 39 27 l 1
 41 27 l 1
 41 25 l 1
44 25 m 1
 42 25 l 1
 42 27 l 1
 43 27 l 1
 43 26 l 1
 44 26 l 1
 44 25 l 1
45 26 m 1
 44 26 l 1
 44 27 l 1
 46 27 l 1
 46 25 l 1
 45 25 l 1
 45 26 l 1
49 25 m 1
 47 25 l 1
 47 27 l 1
 49 27 l 1
 49 25 l 1
41 29 m 1
 39 29 l 1
 39 31 l 1
 41 31 l 1
 41 29 l 1
41 33 m 1
 39 33 l 1
 39 35 l 1
 41 35 l 1
 41 33 l 1
49 29 m 1
 47 29 l 1
 47 31 l 1
 49 31 l 1
 49 29 l 1
49 33 m 1
 47 33 l 1
 47 35 l 1
 49 35 l 1
 49 33 l 1
55 25 m 1
 53 25 l 1
 53 27 l 1
 55 27 l 1
 55 25 l 1
58 25 m 1
 56 25 l 1
 56 27 l 1
 57 27 l 1
 57 26 l 1
 58 26 l 1
 58 25 l 1
59 26 m 1
 58 26 l 1
 58 27 l 1
 60 27 l 1
 60 25 l 1
 59 25 l 1
 59 26 l 1
63 25 m 1
 61 25 l 1
 61 27 l 1
 63 27 l 1
 63 25 l 1
55 29 m 1
 53 29 l 1
 53 31 l 1
 55 31 l 1
 55 29 l 1
55 33 m 1
 53 33 l 1
 53 35 l 1
 55 35 l 1
 55 33 l 1
57 33 m 1
 56 33 l 1
 56 35 l 1
 58 35 l 1
 58 34 l 1
 57 34 l 1
 57 33 l 1
60 33 m 1
 58 33 l 1
 58 34 l 1
 59 34 l 1
 59 35 l 1
 60 35 l 1
 60 33 l 1
63 29 m 1
 61 29 l 1
 61 31 l 1
 63 31 l 1
 63 29 l 1
63 33 m 1
 61 33 l 1
 61 35 l 1
 63 35 l 1
 63 33 l 1
17 37 m 1
 15 37 l 1
 15 39 l 1
 17 39 l 1
 17 37 l 1
17 41 m 1
 15 41 l 1
 15 43 l 1
 17 43 l 1
 17 41 l 1
23 37 m 1
 21 37 l 1
 21 39 l 1
 23 39 l 1
 23 37 l 1
23 41 m 1
 21 41 l 1
 21 43 l 1
 23 43 l 1
 23 41 l 1
26 41 m 1
 24 41 l 1
 24 43 l 1
 25 43 l 1
 25 42 l 1
 26 42 l 1
 26 41 l 1
27 42 m 1
 26 42 l 1
 26 43 l 1
 28 43 l 1
 28 41 l 1
 27 41 l 1
 27 42 l 1
31 41 m 1
 29 41 l 1
 29 43 l 1
 31 43 l 1
 31 41 l 1
41 37 m 1
 39 37 l 1
 39 39 l 1
 41 39 l 1
 41 37 l 1
41 41 m 1
 39 41 l 1
 39 43 l 1
 41 43 l 1
 41 41 l 1
44 41 m 1
 42 41 l 1
 42 43 l 1
 43 43 l 1
 43 42 l 1
 44 42 l 1
 44 41 l 1
45 42 m 1
 44 42 l 1
 44 43 l 1
 46 43 l 1
 46 41 l 1
 45 41 l 1
 45 42 l 1
49 37 m 1
 47 37 l 1
 47 39 l 1
 49 39 l 1
 49 37 l 1
49 41 m 1
 47 41 l 1
 47 43 l 1
 49 43 l 1
 49 41 l 1
55 41 m 1
 53 41 l 1
 53 43 l 1
 55 43 l 1
 55 41 l 1
58 41 m 1
 56 41 l 1
 56 43 l 1
 57 43 l 1
 57 42 l 1
 58 42 l 1
 58 41 l 1
59 42 m 1
 58 42 l 1
 58 43 l 1
 60 43 l 1
 60 41 l 1
 59 41 l 1
 59 42 l 1
63 37 m 1
 61 37 l 1
 61 39 l 1
 63 39 l 1
 63 37 l 1
63 41 m 1
 61 41 l 1
 61 43 l 1
 63 43 l 1
 63 41 l 1
EndSplineSet
Ligature2: "'liga' Standard Ligatures in Latin lookup 0-1" zero nine zero one five
LCarets2: 1 0
EndChar

StartChar: custom_0_9_0_1_6
Encoding: 2972 -1 2727
Width: 70
Flags: H
LayerCount: 2
Fore
SplineSet
17 25 m 1
 15 25 l 1
 15 27 l 1
 17 27 l 1
 17 25 l 1
17 29 m 1
 15 29 l 1
 15 31 l 1
 17 31 l 1
 17 29 l 1
17 33 m 1
 15 33 l 1
 15 35 l 1
 17 35 l 1
 17 33 l 1
23 25 m 1
 21 25 l 1
 21 27 l 1
 23 27 l 1
 23 25 l 1
26 25 m 1
 24 25 l 1
 24 27 l 1
 25 27 l 1
 25 26 l 1
 26 26 l 1
 26 25 l 1
27 26 m 1
 26 26 l 1
 26 27 l 1
 28 27 l 1
 28 25 l 1
 27 25 l 1
 27 26 l 1
31 25 m 1
 29 25 l 1
 29 27 l 1
 31 27 l 1
 31 25 l 1
23 33 m 1
 21 33 l 1
 21 35 l 1
 23 35 l 1
 23 33 l 1
25 33 m 1
 24 33 l 1
 24 35 l 1
 26 35 l 1
 26 34 l 1
 25 34 l 1
 25 33 l 1
28 33 m 1
 26 33 l 1
 26 34 l 1
 27 34 l 1
 27 35 l 1
 28 35 l 1
 28 33 l 1
31 29 m 1
 29 29 l 1
 29 31 l 1
 31 31 l 1
 31 29 l 1
36 31 m 1
 34 31 l 1
 34 33 l 1
 36 33 l 1
 36 31 l 1
31 33 m 1
 29 33 l 1
 29 35 l 1
 31 35 l 1
 31 33 l 1
36 35 m 1
 34 35 l 1
 34 37 l 1
 36 37 l 1
 36 35 l 1
41 25 m 1
 39 25 l 1
 39 27 l 1
 41 27 l 1
 41 25 l 1
44 25 m 1
 42 25 l 1
 42 27 l 1
 43 27 l 1
 43 26 l 1
 44 26 l 1
 44 25 l 1
45 26 m 1
 44 26 l 1
 44 27 l 1
 46 27 l 1
 46 25 l 1
 45 25 l 1
 45 26 l 1
49 25 m 1
 47 25 l 1
 47 27 l 1
 49 27 l 1
 49 25 l 1
41 29 m 1
 39 29 l 1
 39 31 l 1
 41 31 l 1
 41 29 l 1
41 33 m 1
 39 33 l 1
 39 35 l 1
 41 35 l 1
 41 33 l 1
49 29 m 1
 47 29 l 1
 47 31 l 1
 49 31 l 1
 49 29 l 1
49 33 m 1
 47 33 l 1
 47 35 l 1
 49 35 l 1
 49 33 l 1
55 25 m 1
 53 25 l 1
 53 27 l 1
 55 27 l 1
 55 25 l 1
58 25 m 1
 56 25 l 1
 56 27 l 1
 57 27 l 1
 57 26 l 1
 58 26 l 1
 58 25 l 1
59 26 m 1
 58 26 l 1
 58 27 l 1
 60 27 l 1
 60 25 l 1
 59 25 l 1
 59 26 l 1
63 25 m 1
 61 25 l 1
 61 27 l 1
 63 27 l 1
 63 25 l 1
55 29 m 1
 53 29 l 1
 53 31 l 1
 55 31 l 1
 55 29 l 1
55 33 m 1
 53 33 l 1
 53 35 l 1
 55 35 l 1
 55 33 l 1
57 33 m 1
 56 33 l 1
 56 35 l 1
 58 35 l 1
 58 34 l 1
 57 34 l 1
 57 33 l 1
60 33 m 1
 58 33 l 1
 58 34 l 1
 59 34 l 1
 59 35 l 1
 60 35 l 1
 60 33 l 1
63 29 m 1
 61 29 l 1
 61 31 l 1
 63 31 l 1
 63 29 l 1
63 33 m 1
 61 33 l 1
 61 35 l 1
 63 35 l 1
 63 33 l 1
17 37 m 1
 15 37 l 1
 15 39 l 1
 17 39 l 1
 17 37 l 1
17 41 m 1
 15 41 l 1
 15 43 l 1
 17 43 l 1
 17 41 l 1
23 37 m 1
 21 37 l 1
 21 39 l 1
 23 39 l 1
 23 37 l 1
23 41 m 1
 21 41 l 1
 21 43 l 1
 23 43 l 1
 23 41 l 1
26 41 m 1
 24 41 l 1
 24 43 l 1
 25 43 l 1
 25 42 l 1
 26 42 l 1
 26 41 l 1
27 42 m 1
 26 42 l 1
 26 43 l 1
 28 43 l 1
 28 41 l 1
 27 41 l 1
 27 42 l 1
31 41 m 1
 29 41 l 1
 29 43 l 1
 31 43 l 1
 31 41 l 1
41 37 m 1
 39 37 l 1
 39 39 l 1
 41 39 l 1
 41 37 l 1
41 41 m 1
 39 41 l 1
 39 43 l 1
 41 43 l 1
 41 41 l 1
44 41 m 1
 42 41 l 1
 42 43 l 1
 43 43 l 1
 43 42 l 1
 44 42 l 1
 44 41 l 1
45 42 m 1
 44 42 l 1
 44 43 l 1
 46 43 l 1
 46 41 l 1
 45 41 l 1
 45 42 l 1
49 37 m 1
 47 37 l 1
 47 39 l 1
 49 39 l 1
 49 37 l 1
49 41 m 1
 47 41 l 1
 47 43 l 1
 49 43 l 1
 49 41 l 1
55 41 m 1
 53 41 l 1
 53 43 l 1
 55 43 l 1
 55 41 l 1
58 41 m 1
 56 41 l 1
 56 43 l 1
 57 43 l 1
 57 42 l 1
 58 42 l 1
 58 41 l 1
59 42 m 1
 58 42 l 1
 58 43 l 1
 60 43 l 1
 60 41 l 1
 59 41 l 1
 59 42 l 1
63 37 m 1
 61 37 l 1
 61 39 l 1
 63 39 l 1
 63 37 l 1
63 41 m 1
 61 41 l 1
 61 43 l 1
 63 43 l 1
 63 41 l 1
EndSplineSet
Ligature2: "'liga' Standard Ligatures in Latin lookup 0-1" zero nine zero one six
LCarets2: 1 0
EndChar

StartChar: custom_0_9_0_1_7
Encoding: 2973 -1 2728
Width: 70
Flags: H
LayerCount: 2
Fore
SplineSet
17 25 m 1
 15 25 l 1
 15 27 l 1
 17 27 l 1
 17 25 l 1
17 29 m 1
 15 29 l 1
 15 31 l 1
 17 31 l 1
 17 29 l 1
17 33 m 1
 15 33 l 1
 15 35 l 1
 17 35 l 1
 17 33 l 1
23 25 m 1
 21 25 l 1
 21 27 l 1
 23 27 l 1
 23 25 l 1
26 25 m 1
 24 25 l 1
 24 27 l 1
 25 27 l 1
 25 26 l 1
 26 26 l 1
 26 25 l 1
27 26 m 1
 26 26 l 1
 26 27 l 1
 28 27 l 1
 28 25 l 1
 27 25 l 1
 27 26 l 1
31 25 m 1
 29 25 l 1
 29 27 l 1
 31 27 l 1
 31 25 l 1
23 33 m 1
 21 33 l 1
 21 35 l 1
 23 35 l 1
 23 33 l 1
25 33 m 1
 24 33 l 1
 24 35 l 1
 26 35 l 1
 26 34 l 1
 25 34 l 1
 25 33 l 1
28 33 m 1
 26 33 l 1
 26 34 l 1
 27 34 l 1
 27 35 l 1
 28 35 l 1
 28 33 l 1
31 29 m 1
 29 29 l 1
 29 31 l 1
 31 31 l 1
 31 29 l 1
36 31 m 1
 34 31 l 1
 34 33 l 1
 36 33 l 1
 36 31 l 1
31 33 m 1
 29 33 l 1
 29 35 l 1
 31 35 l 1
 31 33 l 1
36 35 m 1
 34 35 l 1
 34 37 l 1
 36 37 l 1
 36 35 l 1
41 25 m 1
 39 25 l 1
 39 27 l 1
 41 27 l 1
 41 25 l 1
44 25 m 1
 42 25 l 1
 42 27 l 1
 43 27 l 1
 43 26 l 1
 44 26 l 1
 44 25 l 1
45 26 m 1
 44 26 l 1
 44 27 l 1
 46 27 l 1
 46 25 l 1
 45 25 l 1
 45 26 l 1
49 25 m 1
 47 25 l 1
 47 27 l 1
 49 27 l 1
 49 25 l 1
41 29 m 1
 39 29 l 1
 39 31 l 1
 41 31 l 1
 41 29 l 1
41 33 m 1
 39 33 l 1
 39 35 l 1
 41 35 l 1
 41 33 l 1
49 29 m 1
 47 29 l 1
 47 31 l 1
 49 31 l 1
 49 29 l 1
49 33 m 1
 47 33 l 1
 47 35 l 1
 49 35 l 1
 49 33 l 1
55 25 m 1
 53 25 l 1
 53 27 l 1
 55 27 l 1
 55 25 l 1
58 25 m 1
 56 25 l 1
 56 27 l 1
 57 27 l 1
 57 26 l 1
 58 26 l 1
 58 25 l 1
59 26 m 1
 58 26 l 1
 58 27 l 1
 60 27 l 1
 60 25 l 1
 59 25 l 1
 59 26 l 1
63 25 m 1
 61 25 l 1
 61 27 l 1
 63 27 l 1
 63 25 l 1
55 29 m 1
 53 29 l 1
 53 31 l 1
 55 31 l 1
 55 29 l 1
55 33 m 1
 53 33 l 1
 53 35 l 1
 55 35 l 1
 55 33 l 1
57 33 m 1
 56 33 l 1
 56 35 l 1
 58 35 l 1
 58 34 l 1
 57 34 l 1
 57 33 l 1
60 33 m 1
 58 33 l 1
 58 34 l 1
 59 34 l 1
 59 35 l 1
 60 35 l 1
 60 33 l 1
63 29 m 1
 61 29 l 1
 61 31 l 1
 63 31 l 1
 63 29 l 1
63 33 m 1
 61 33 l 1
 61 35 l 1
 63 35 l 1
 63 33 l 1
17 37 m 1
 15 37 l 1
 15 39 l 1
 17 39 l 1
 17 37 l 1
17 41 m 1
 15 41 l 1
 15 43 l 1
 17 43 l 1
 17 41 l 1
23 37 m 1
 21 37 l 1
 21 39 l 1
 23 39 l 1
 23 37 l 1
23 41 m 1
 21 41 l 1
 21 43 l 1
 23 43 l 1
 23 41 l 1
26 41 m 1
 24 41 l 1
 24 43 l 1
 25 43 l 1
 25 42 l 1
 26 42 l 1
 26 41 l 1
27 42 m 1
 26 42 l 1
 26 43 l 1
 28 43 l 1
 28 41 l 1
 27 41 l 1
 27 42 l 1
31 41 m 1
 29 41 l 1
 29 43 l 1
 31 43 l 1
 31 41 l 1
41 37 m 1
 39 37 l 1
 39 39 l 1
 41 39 l 1
 41 37 l 1
41 41 m 1
 39 41 l 1
 39 43 l 1
 41 43 l 1
 41 41 l 1
44 41 m 1
 42 41 l 1
 42 43 l 1
 43 43 l 1
 43 42 l 1
 44 42 l 1
 44 41 l 1
45 42 m 1
 44 42 l 1
 44 43 l 1
 46 43 l 1
 46 41 l 1
 45 41 l 1
 45 42 l 1
49 37 m 1
 47 37 l 1
 47 39 l 1
 49 39 l 1
 49 37 l 1
49 41 m 1
 47 41 l 1
 47 43 l 1
 49 43 l 1
 49 41 l 1
55 41 m 1
 53 41 l 1
 53 43 l 1
 55 43 l 1
 55 41 l 1
58 41 m 1
 56 41 l 1
 56 43 l 1
 57 43 l 1
 57 42 l 1
 58 42 l 1
 58 41 l 1
59 42 m 1
 58 42 l 1
 58 43 l 1
 60 43 l 1
 60 41 l 1
 59 41 l 1
 59 42 l 1
63 37 m 1
 61 37 l 1
 61 39 l 1
 63 39 l 1
 63 37 l 1
63 41 m 1
 61 41 l 1
 61 43 l 1
 63 43 l 1
 63 41 l 1
EndSplineSet
Ligature2: "'liga' Standard Ligatures in Latin lookup 0-1" zero nine zero one seven
LCarets2: 1 0
EndChar

StartChar: custom_0_9_0_1_8
Encoding: 2974 -1 2729
Width: 70
Flags: H
LayerCount: 2
Fore
SplineSet
17 25 m 1
 15 25 l 1
 15 27 l 1
 17 27 l 1
 17 25 l 1
17 29 m 1
 15 29 l 1
 15 31 l 1
 17 31 l 1
 17 29 l 1
17 33 m 1
 15 33 l 1
 15 35 l 1
 17 35 l 1
 17 33 l 1
23 25 m 1
 21 25 l 1
 21 27 l 1
 23 27 l 1
 23 25 l 1
26 25 m 1
 24 25 l 1
 24 27 l 1
 25 27 l 1
 25 26 l 1
 26 26 l 1
 26 25 l 1
27 26 m 1
 26 26 l 1
 26 27 l 1
 28 27 l 1
 28 25 l 1
 27 25 l 1
 27 26 l 1
31 25 m 1
 29 25 l 1
 29 27 l 1
 31 27 l 1
 31 25 l 1
23 33 m 1
 21 33 l 1
 21 35 l 1
 23 35 l 1
 23 33 l 1
25 33 m 1
 24 33 l 1
 24 35 l 1
 26 35 l 1
 26 34 l 1
 25 34 l 1
 25 33 l 1
28 33 m 1
 26 33 l 1
 26 34 l 1
 27 34 l 1
 27 35 l 1
 28 35 l 1
 28 33 l 1
31 29 m 1
 29 29 l 1
 29 31 l 1
 31 31 l 1
 31 29 l 1
36 31 m 1
 34 31 l 1
 34 33 l 1
 36 33 l 1
 36 31 l 1
31 33 m 1
 29 33 l 1
 29 35 l 1
 31 35 l 1
 31 33 l 1
36 35 m 1
 34 35 l 1
 34 37 l 1
 36 37 l 1
 36 35 l 1
41 25 m 1
 39 25 l 1
 39 27 l 1
 41 27 l 1
 41 25 l 1
44 25 m 1
 42 25 l 1
 42 27 l 1
 43 27 l 1
 43 26 l 1
 44 26 l 1
 44 25 l 1
45 26 m 1
 44 26 l 1
 44 27 l 1
 46 27 l 1
 46 25 l 1
 45 25 l 1
 45 26 l 1
49 25 m 1
 47 25 l 1
 47 27 l 1
 49 27 l 1
 49 25 l 1
41 29 m 1
 39 29 l 1
 39 31 l 1
 41 31 l 1
 41 29 l 1
41 33 m 1
 39 33 l 1
 39 35 l 1
 41 35 l 1
 41 33 l 1
49 29 m 1
 47 29 l 1
 47 31 l 1
 49 31 l 1
 49 29 l 1
49 33 m 1
 47 33 l 1
 47 35 l 1
 49 35 l 1
 49 33 l 1
55 25 m 1
 53 25 l 1
 53 27 l 1
 55 27 l 1
 55 25 l 1
58 25 m 1
 56 25 l 1
 56 27 l 1
 57 27 l 1
 57 26 l 1
 58 26 l 1
 58 25 l 1
59 26 m 1
 58 26 l 1
 58 27 l 1
 60 27 l 1
 60 25 l 1
 59 25 l 1
 59 26 l 1
63 25 m 1
 61 25 l 1
 61 27 l 1
 63 27 l 1
 63 25 l 1
55 29 m 1
 53 29 l 1
 53 31 l 1
 55 31 l 1
 55 29 l 1
55 33 m 1
 53 33 l 1
 53 35 l 1
 55 35 l 1
 55 33 l 1
57 33 m 1
 56 33 l 1
 56 35 l 1
 58 35 l 1
 58 34 l 1
 57 34 l 1
 57 33 l 1
60 33 m 1
 58 33 l 1
 58 34 l 1
 59 34 l 1
 59 35 l 1
 60 35 l 1
 60 33 l 1
63 29 m 1
 61 29 l 1
 61 31 l 1
 63 31 l 1
 63 29 l 1
63 33 m 1
 61 33 l 1
 61 35 l 1
 63 35 l 1
 63 33 l 1
17 37 m 1
 15 37 l 1
 15 39 l 1
 17 39 l 1
 17 37 l 1
17 41 m 1
 15 41 l 1
 15 43 l 1
 17 43 l 1
 17 41 l 1
23 37 m 1
 21 37 l 1
 21 39 l 1
 23 39 l 1
 23 37 l 1
23 41 m 1
 21 41 l 1
 21 43 l 1
 23 43 l 1
 23 41 l 1
26 41 m 1
 24 41 l 1
 24 43 l 1
 25 43 l 1
 25 42 l 1
 26 42 l 1
 26 41 l 1
27 42 m 1
 26 42 l 1
 26 43 l 1
 28 43 l 1
 28 41 l 1
 27 41 l 1
 27 42 l 1
31 41 m 1
 29 41 l 1
 29 43 l 1
 31 43 l 1
 31 41 l 1
41 37 m 1
 39 37 l 1
 39 39 l 1
 41 39 l 1
 41 37 l 1
41 41 m 1
 39 41 l 1
 39 43 l 1
 41 43 l 1
 41 41 l 1
44 41 m 1
 42 41 l 1
 42 43 l 1
 43 43 l 1
 43 42 l 1
 44 42 l 1
 44 41 l 1
45 42 m 1
 44 42 l 1
 44 43 l 1
 46 43 l 1
 46 41 l 1
 45 41 l 1
 45 42 l 1
49 37 m 1
 47 37 l 1
 47 39 l 1
 49 39 l 1
 49 37 l 1
49 41 m 1
 47 41 l 1
 47 43 l 1
 49 43 l 1
 49 41 l 1
55 41 m 1
 53 41 l 1
 53 43 l 1
 55 43 l 1
 55 41 l 1
58 41 m 1
 56 41 l 1
 56 43 l 1
 57 43 l 1
 57 42 l 1
 58 42 l 1
 58 41 l 1
59 42 m 1
 58 42 l 1
 58 43 l 1
 60 43 l 1
 60 41 l 1
 59 41 l 1
 59 42 l 1
63 37 m 1
 61 37 l 1
 61 39 l 1
 63 39 l 1
 63 37 l 1
63 41 m 1
 61 41 l 1
 61 43 l 1
 63 43 l 1
 63 41 l 1
EndSplineSet
Ligature2: "'liga' Standard Ligatures in Latin lookup 0-1" zero nine zero one eight
LCarets2: 1 0
EndChar

StartChar: custom_0_9_0_1_9
Encoding: 2975 -1 2730
Width: 70
Flags: H
LayerCount: 2
Fore
SplineSet
17 25 m 1
 15 25 l 1
 15 27 l 1
 17 27 l 1
 17 25 l 1
17 29 m 1
 15 29 l 1
 15 31 l 1
 17 31 l 1
 17 29 l 1
17 33 m 1
 15 33 l 1
 15 35 l 1
 17 35 l 1
 17 33 l 1
23 25 m 1
 21 25 l 1
 21 27 l 1
 23 27 l 1
 23 25 l 1
26 25 m 1
 24 25 l 1
 24 27 l 1
 25 27 l 1
 25 26 l 1
 26 26 l 1
 26 25 l 1
27 26 m 1
 26 26 l 1
 26 27 l 1
 28 27 l 1
 28 25 l 1
 27 25 l 1
 27 26 l 1
31 25 m 1
 29 25 l 1
 29 27 l 1
 31 27 l 1
 31 25 l 1
23 33 m 1
 21 33 l 1
 21 35 l 1
 23 35 l 1
 23 33 l 1
25 33 m 1
 24 33 l 1
 24 35 l 1
 26 35 l 1
 26 34 l 1
 25 34 l 1
 25 33 l 1
28 33 m 1
 26 33 l 1
 26 34 l 1
 27 34 l 1
 27 35 l 1
 28 35 l 1
 28 33 l 1
31 29 m 1
 29 29 l 1
 29 31 l 1
 31 31 l 1
 31 29 l 1
36 31 m 1
 34 31 l 1
 34 33 l 1
 36 33 l 1
 36 31 l 1
31 33 m 1
 29 33 l 1
 29 35 l 1
 31 35 l 1
 31 33 l 1
36 35 m 1
 34 35 l 1
 34 37 l 1
 36 37 l 1
 36 35 l 1
41 25 m 1
 39 25 l 1
 39 27 l 1
 41 27 l 1
 41 25 l 1
44 25 m 1
 42 25 l 1
 42 27 l 1
 43 27 l 1
 43 26 l 1
 44 26 l 1
 44 25 l 1
45 26 m 1
 44 26 l 1
 44 27 l 1
 46 27 l 1
 46 25 l 1
 45 25 l 1
 45 26 l 1
49 25 m 1
 47 25 l 1
 47 27 l 1
 49 27 l 1
 49 25 l 1
41 29 m 1
 39 29 l 1
 39 31 l 1
 41 31 l 1
 41 29 l 1
41 33 m 1
 39 33 l 1
 39 35 l 1
 41 35 l 1
 41 33 l 1
49 29 m 1
 47 29 l 1
 47 31 l 1
 49 31 l 1
 49 29 l 1
49 33 m 1
 47 33 l 1
 47 35 l 1
 49 35 l 1
 49 33 l 1
55 25 m 1
 53 25 l 1
 53 27 l 1
 55 27 l 1
 55 25 l 1
58 25 m 1
 56 25 l 1
 56 27 l 1
 57 27 l 1
 57 26 l 1
 58 26 l 1
 58 25 l 1
59 26 m 1
 58 26 l 1
 58 27 l 1
 60 27 l 1
 60 25 l 1
 59 25 l 1
 59 26 l 1
63 25 m 1
 61 25 l 1
 61 27 l 1
 63 27 l 1
 63 25 l 1
55 29 m 1
 53 29 l 1
 53 31 l 1
 55 31 l 1
 55 29 l 1
55 33 m 1
 53 33 l 1
 53 35 l 1
 55 35 l 1
 55 33 l 1
57 33 m 1
 56 33 l 1
 56 35 l 1
 58 35 l 1
 58 34 l 1
 57 34 l 1
 57 33 l 1
60 33 m 1
 58 33 l 1
 58 34 l 1
 59 34 l 1
 59 35 l 1
 60 35 l 1
 60 33 l 1
63 29 m 1
 61 29 l 1
 61 31 l 1
 63 31 l 1
 63 29 l 1
63 33 m 1
 61 33 l 1
 61 35 l 1
 63 35 l 1
 63 33 l 1
17 37 m 1
 15 37 l 1
 15 39 l 1
 17 39 l 1
 17 37 l 1
17 41 m 1
 15 41 l 1
 15 43 l 1
 17 43 l 1
 17 41 l 1
23 37 m 1
 21 37 l 1
 21 39 l 1
 23 39 l 1
 23 37 l 1
23 41 m 1
 21 41 l 1
 21 43 l 1
 23 43 l 1
 23 41 l 1
26 41 m 1
 24 41 l 1
 24 43 l 1
 25 43 l 1
 25 42 l 1
 26 42 l 1
 26 41 l 1
27 42 m 1
 26 42 l 1
 26 43 l 1
 28 43 l 1
 28 41 l 1
 27 41 l 1
 27 42 l 1
31 41 m 1
 29 41 l 1
 29 43 l 1
 31 43 l 1
 31 41 l 1
41 37 m 1
 39 37 l 1
 39 39 l 1
 41 39 l 1
 41 37 l 1
41 41 m 1
 39 41 l 1
 39 43 l 1
 41 43 l 1
 41 41 l 1
44 41 m 1
 42 41 l 1
 42 43 l 1
 43 43 l 1
 43 42 l 1
 44 42 l 1
 44 41 l 1
45 42 m 1
 44 42 l 1
 44 43 l 1
 46 43 l 1
 46 41 l 1
 45 41 l 1
 45 42 l 1
49 37 m 1
 47 37 l 1
 47 39 l 1
 49 39 l 1
 49 37 l 1
49 41 m 1
 47 41 l 1
 47 43 l 1
 49 43 l 1
 49 41 l 1
55 41 m 1
 53 41 l 1
 53 43 l 1
 55 43 l 1
 55 41 l 1
58 41 m 1
 56 41 l 1
 56 43 l 1
 57 43 l 1
 57 42 l 1
 58 42 l 1
 58 41 l 1
59 42 m 1
 58 42 l 1
 58 43 l 1
 60 43 l 1
 60 41 l 1
 59 41 l 1
 59 42 l 1
63 37 m 1
 61 37 l 1
 61 39 l 1
 63 39 l 1
 63 37 l 1
63 41 m 1
 61 41 l 1
 61 43 l 1
 63 43 l 1
 63 41 l 1
EndSplineSet
Ligature2: "'liga' Standard Ligatures in Latin lookup 0-1" zero nine zero one nine
LCarets2: 1 0
EndChar

StartChar: custom_0_9_0_2_0
Encoding: 2976 -1 2731
Width: 70
Flags: H
LayerCount: 2
Fore
SplineSet
17 25 m 1
 15 25 l 1
 15 27 l 1
 17 27 l 1
 17 25 l 1
17 29 m 1
 15 29 l 1
 15 31 l 1
 17 31 l 1
 17 29 l 1
17 33 m 1
 15 33 l 1
 15 35 l 1
 17 35 l 1
 17 33 l 1
23 25 m 1
 21 25 l 1
 21 27 l 1
 23 27 l 1
 23 25 l 1
26 25 m 1
 24 25 l 1
 24 27 l 1
 25 27 l 1
 25 26 l 1
 26 26 l 1
 26 25 l 1
27 26 m 1
 26 26 l 1
 26 27 l 1
 28 27 l 1
 28 25 l 1
 27 25 l 1
 27 26 l 1
31 25 m 1
 29 25 l 1
 29 27 l 1
 31 27 l 1
 31 25 l 1
23 33 m 1
 21 33 l 1
 21 35 l 1
 23 35 l 1
 23 33 l 1
25 33 m 1
 24 33 l 1
 24 35 l 1
 26 35 l 1
 26 34 l 1
 25 34 l 1
 25 33 l 1
28 33 m 1
 26 33 l 1
 26 34 l 1
 27 34 l 1
 27 35 l 1
 28 35 l 1
 28 33 l 1
31 29 m 1
 29 29 l 1
 29 31 l 1
 31 31 l 1
 31 29 l 1
36 31 m 1
 34 31 l 1
 34 33 l 1
 36 33 l 1
 36 31 l 1
31 33 m 1
 29 33 l 1
 29 35 l 1
 31 35 l 1
 31 33 l 1
36 35 m 1
 34 35 l 1
 34 37 l 1
 36 37 l 1
 36 35 l 1
41 25 m 1
 39 25 l 1
 39 27 l 1
 41 27 l 1
 41 25 l 1
44 25 m 1
 42 25 l 1
 42 27 l 1
 43 27 l 1
 43 26 l 1
 44 26 l 1
 44 25 l 1
45 26 m 1
 44 26 l 1
 44 27 l 1
 46 27 l 1
 46 25 l 1
 45 25 l 1
 45 26 l 1
49 25 m 1
 47 25 l 1
 47 27 l 1
 49 27 l 1
 49 25 l 1
41 29 m 1
 39 29 l 1
 39 31 l 1
 41 31 l 1
 41 29 l 1
41 33 m 1
 39 33 l 1
 39 35 l 1
 41 35 l 1
 41 33 l 1
49 29 m 1
 47 29 l 1
 47 31 l 1
 49 31 l 1
 49 29 l 1
49 33 m 1
 47 33 l 1
 47 35 l 1
 49 35 l 1
 49 33 l 1
55 25 m 1
 53 25 l 1
 53 27 l 1
 55 27 l 1
 55 25 l 1
58 25 m 1
 56 25 l 1
 56 27 l 1
 57 27 l 1
 57 26 l 1
 58 26 l 1
 58 25 l 1
59 26 m 1
 58 26 l 1
 58 27 l 1
 60 27 l 1
 60 25 l 1
 59 25 l 1
 59 26 l 1
63 25 m 1
 61 25 l 1
 61 27 l 1
 63 27 l 1
 63 25 l 1
55 29 m 1
 53 29 l 1
 53 31 l 1
 55 31 l 1
 55 29 l 1
55 33 m 1
 53 33 l 1
 53 35 l 1
 55 35 l 1
 55 33 l 1
57 33 m 1
 56 33 l 1
 56 35 l 1
 58 35 l 1
 58 34 l 1
 57 34 l 1
 57 33 l 1
60 33 m 1
 58 33 l 1
 58 34 l 1
 59 34 l 1
 59 35 l 1
 60 35 l 1
 60 33 l 1
63 29 m 1
 61 29 l 1
 61 31 l 1
 63 31 l 1
 63 29 l 1
63 33 m 1
 61 33 l 1
 61 35 l 1
 63 35 l 1
 63 33 l 1
17 37 m 1
 15 37 l 1
 15 39 l 1
 17 39 l 1
 17 37 l 1
17 41 m 1
 15 41 l 1
 15 43 l 1
 17 43 l 1
 17 41 l 1
23 37 m 1
 21 37 l 1
 21 39 l 1
 23 39 l 1
 23 37 l 1
23 41 m 1
 21 41 l 1
 21 43 l 1
 23 43 l 1
 23 41 l 1
26 41 m 1
 24 41 l 1
 24 43 l 1
 25 43 l 1
 25 42 l 1
 26 42 l 1
 26 41 l 1
27 42 m 1
 26 42 l 1
 26 43 l 1
 28 43 l 1
 28 41 l 1
 27 41 l 1
 27 42 l 1
31 41 m 1
 29 41 l 1
 29 43 l 1
 31 43 l 1
 31 41 l 1
41 37 m 1
 39 37 l 1
 39 39 l 1
 41 39 l 1
 41 37 l 1
41 41 m 1
 39 41 l 1
 39 43 l 1
 41 43 l 1
 41 41 l 1
44 41 m 1
 42 41 l 1
 42 43 l 1
 43 43 l 1
 43 42 l 1
 44 42 l 1
 44 41 l 1
45 42 m 1
 44 42 l 1
 44 43 l 1
 46 43 l 1
 46 41 l 1
 45 41 l 1
 45 42 l 1
49 37 m 1
 47 37 l 1
 47 39 l 1
 49 39 l 1
 49 37 l 1
49 41 m 1
 47 41 l 1
 47 43 l 1
 49 43 l 1
 49 41 l 1
55 41 m 1
 53 41 l 1
 53 43 l 1
 55 43 l 1
 55 41 l 1
58 41 m 1
 56 41 l 1
 56 43 l 1
 57 43 l 1
 57 42 l 1
 58 42 l 1
 58 41 l 1
59 42 m 1
 58 42 l 1
 58 43 l 1
 60 43 l 1
 60 41 l 1
 59 41 l 1
 59 42 l 1
63 37 m 1
 61 37 l 1
 61 39 l 1
 63 39 l 1
 63 37 l 1
63 41 m 1
 61 41 l 1
 61 43 l 1
 63 43 l 1
 63 41 l 1
EndSplineSet
Ligature2: "'liga' Standard Ligatures in Latin lookup 0-1" zero nine zero two zero
LCarets2: 1 0
EndChar

StartChar: custom_0_9_0_2_1
Encoding: 2977 -1 2732
Width: 70
Flags: H
LayerCount: 2
Fore
SplineSet
17 25 m 1
 15 25 l 1
 15 27 l 1
 17 27 l 1
 17 25 l 1
17 29 m 1
 15 29 l 1
 15 31 l 1
 17 31 l 1
 17 29 l 1
17 33 m 1
 15 33 l 1
 15 35 l 1
 17 35 l 1
 17 33 l 1
23 25 m 1
 21 25 l 1
 21 27 l 1
 23 27 l 1
 23 25 l 1
26 25 m 1
 24 25 l 1
 24 27 l 1
 25 27 l 1
 25 26 l 1
 26 26 l 1
 26 25 l 1
27 26 m 1
 26 26 l 1
 26 27 l 1
 28 27 l 1
 28 25 l 1
 27 25 l 1
 27 26 l 1
31 25 m 1
 29 25 l 1
 29 27 l 1
 31 27 l 1
 31 25 l 1
23 33 m 1
 21 33 l 1
 21 35 l 1
 23 35 l 1
 23 33 l 1
25 33 m 1
 24 33 l 1
 24 35 l 1
 26 35 l 1
 26 34 l 1
 25 34 l 1
 25 33 l 1
28 33 m 1
 26 33 l 1
 26 34 l 1
 27 34 l 1
 27 35 l 1
 28 35 l 1
 28 33 l 1
31 29 m 1
 29 29 l 1
 29 31 l 1
 31 31 l 1
 31 29 l 1
36 31 m 1
 34 31 l 1
 34 33 l 1
 36 33 l 1
 36 31 l 1
31 33 m 1
 29 33 l 1
 29 35 l 1
 31 35 l 1
 31 33 l 1
36 35 m 1
 34 35 l 1
 34 37 l 1
 36 37 l 1
 36 35 l 1
41 25 m 1
 39 25 l 1
 39 27 l 1
 41 27 l 1
 41 25 l 1
44 25 m 1
 42 25 l 1
 42 27 l 1
 43 27 l 1
 43 26 l 1
 44 26 l 1
 44 25 l 1
45 26 m 1
 44 26 l 1
 44 27 l 1
 46 27 l 1
 46 25 l 1
 45 25 l 1
 45 26 l 1
49 25 m 1
 47 25 l 1
 47 27 l 1
 49 27 l 1
 49 25 l 1
41 29 m 1
 39 29 l 1
 39 31 l 1
 41 31 l 1
 41 29 l 1
41 33 m 1
 39 33 l 1
 39 35 l 1
 41 35 l 1
 41 33 l 1
49 29 m 1
 47 29 l 1
 47 31 l 1
 49 31 l 1
 49 29 l 1
49 33 m 1
 47 33 l 1
 47 35 l 1
 49 35 l 1
 49 33 l 1
55 25 m 1
 53 25 l 1
 53 27 l 1
 55 27 l 1
 55 25 l 1
58 25 m 1
 56 25 l 1
 56 27 l 1
 57 27 l 1
 57 26 l 1
 58 26 l 1
 58 25 l 1
59 26 m 1
 58 26 l 1
 58 27 l 1
 60 27 l 1
 60 25 l 1
 59 25 l 1
 59 26 l 1
63 25 m 1
 61 25 l 1
 61 27 l 1
 63 27 l 1
 63 25 l 1
55 29 m 1
 53 29 l 1
 53 31 l 1
 55 31 l 1
 55 29 l 1
55 33 m 1
 53 33 l 1
 53 35 l 1
 55 35 l 1
 55 33 l 1
57 33 m 1
 56 33 l 1
 56 35 l 1
 58 35 l 1
 58 34 l 1
 57 34 l 1
 57 33 l 1
60 33 m 1
 58 33 l 1
 58 34 l 1
 59 34 l 1
 59 35 l 1
 60 35 l 1
 60 33 l 1
63 29 m 1
 61 29 l 1
 61 31 l 1
 63 31 l 1
 63 29 l 1
63 33 m 1
 61 33 l 1
 61 35 l 1
 63 35 l 1
 63 33 l 1
17 37 m 1
 15 37 l 1
 15 39 l 1
 17 39 l 1
 17 37 l 1
17 41 m 1
 15 41 l 1
 15 43 l 1
 17 43 l 1
 17 41 l 1
23 37 m 1
 21 37 l 1
 21 39 l 1
 23 39 l 1
 23 37 l 1
23 41 m 1
 21 41 l 1
 21 43 l 1
 23 43 l 1
 23 41 l 1
26 41 m 1
 24 41 l 1
 24 43 l 1
 25 43 l 1
 25 42 l 1
 26 42 l 1
 26 41 l 1
27 42 m 1
 26 42 l 1
 26 43 l 1
 28 43 l 1
 28 41 l 1
 27 41 l 1
 27 42 l 1
31 41 m 1
 29 41 l 1
 29 43 l 1
 31 43 l 1
 31 41 l 1
41 37 m 1
 39 37 l 1
 39 39 l 1
 41 39 l 1
 41 37 l 1
41 41 m 1
 39 41 l 1
 39 43 l 1
 41 43 l 1
 41 41 l 1
44 41 m 1
 42 41 l 1
 42 43 l 1
 43 43 l 1
 43 42 l 1
 44 42 l 1
 44 41 l 1
45 42 m 1
 44 42 l 1
 44 43 l 1
 46 43 l 1
 46 41 l 1
 45 41 l 1
 45 42 l 1
49 37 m 1
 47 37 l 1
 47 39 l 1
 49 39 l 1
 49 37 l 1
49 41 m 1
 47 41 l 1
 47 43 l 1
 49 43 l 1
 49 41 l 1
55 41 m 1
 53 41 l 1
 53 43 l 1
 55 43 l 1
 55 41 l 1
58 41 m 1
 56 41 l 1
 56 43 l 1
 57 43 l 1
 57 42 l 1
 58 42 l 1
 58 41 l 1
59 42 m 1
 58 42 l 1
 58 43 l 1
 60 43 l 1
 60 41 l 1
 59 41 l 1
 59 42 l 1
63 37 m 1
 61 37 l 1
 61 39 l 1
 63 39 l 1
 63 37 l 1
63 41 m 1
 61 41 l 1
 61 43 l 1
 63 43 l 1
 63 41 l 1
EndSplineSet
Ligature2: "'liga' Standard Ligatures in Latin lookup 0-1" zero nine zero two one
LCarets2: 1 0
EndChar

StartChar: custom_0_9_0_2_2
Encoding: 2978 -1 2733
Width: 70
Flags: H
LayerCount: 2
Fore
SplineSet
17 25 m 1
 15 25 l 1
 15 27 l 1
 17 27 l 1
 17 25 l 1
17 29 m 1
 15 29 l 1
 15 31 l 1
 17 31 l 1
 17 29 l 1
17 33 m 1
 15 33 l 1
 15 35 l 1
 17 35 l 1
 17 33 l 1
23 25 m 1
 21 25 l 1
 21 27 l 1
 23 27 l 1
 23 25 l 1
26 25 m 1
 24 25 l 1
 24 27 l 1
 25 27 l 1
 25 26 l 1
 26 26 l 1
 26 25 l 1
27 26 m 1
 26 26 l 1
 26 27 l 1
 28 27 l 1
 28 25 l 1
 27 25 l 1
 27 26 l 1
31 25 m 1
 29 25 l 1
 29 27 l 1
 31 27 l 1
 31 25 l 1
23 33 m 1
 21 33 l 1
 21 35 l 1
 23 35 l 1
 23 33 l 1
25 33 m 1
 24 33 l 1
 24 35 l 1
 26 35 l 1
 26 34 l 1
 25 34 l 1
 25 33 l 1
28 33 m 1
 26 33 l 1
 26 34 l 1
 27 34 l 1
 27 35 l 1
 28 35 l 1
 28 33 l 1
31 29 m 1
 29 29 l 1
 29 31 l 1
 31 31 l 1
 31 29 l 1
36 31 m 1
 34 31 l 1
 34 33 l 1
 36 33 l 1
 36 31 l 1
31 33 m 1
 29 33 l 1
 29 35 l 1
 31 35 l 1
 31 33 l 1
36 35 m 1
 34 35 l 1
 34 37 l 1
 36 37 l 1
 36 35 l 1
41 25 m 1
 39 25 l 1
 39 27 l 1
 41 27 l 1
 41 25 l 1
44 25 m 1
 42 25 l 1
 42 27 l 1
 43 27 l 1
 43 26 l 1
 44 26 l 1
 44 25 l 1
45 26 m 1
 44 26 l 1
 44 27 l 1
 46 27 l 1
 46 25 l 1
 45 25 l 1
 45 26 l 1
49 25 m 1
 47 25 l 1
 47 27 l 1
 49 27 l 1
 49 25 l 1
41 29 m 1
 39 29 l 1
 39 31 l 1
 41 31 l 1
 41 29 l 1
41 33 m 1
 39 33 l 1
 39 35 l 1
 41 35 l 1
 41 33 l 1
49 29 m 1
 47 29 l 1
 47 31 l 1
 49 31 l 1
 49 29 l 1
49 33 m 1
 47 33 l 1
 47 35 l 1
 49 35 l 1
 49 33 l 1
55 25 m 1
 53 25 l 1
 53 27 l 1
 55 27 l 1
 55 25 l 1
58 25 m 1
 56 25 l 1
 56 27 l 1
 57 27 l 1
 57 26 l 1
 58 26 l 1
 58 25 l 1
59 26 m 1
 58 26 l 1
 58 27 l 1
 60 27 l 1
 60 25 l 1
 59 25 l 1
 59 26 l 1
63 25 m 1
 61 25 l 1
 61 27 l 1
 63 27 l 1
 63 25 l 1
55 29 m 1
 53 29 l 1
 53 31 l 1
 55 31 l 1
 55 29 l 1
55 33 m 1
 53 33 l 1
 53 35 l 1
 55 35 l 1
 55 33 l 1
57 33 m 1
 56 33 l 1
 56 35 l 1
 58 35 l 1
 58 34 l 1
 57 34 l 1
 57 33 l 1
60 33 m 1
 58 33 l 1
 58 34 l 1
 59 34 l 1
 59 35 l 1
 60 35 l 1
 60 33 l 1
63 29 m 1
 61 29 l 1
 61 31 l 1
 63 31 l 1
 63 29 l 1
63 33 m 1
 61 33 l 1
 61 35 l 1
 63 35 l 1
 63 33 l 1
17 37 m 1
 15 37 l 1
 15 39 l 1
 17 39 l 1
 17 37 l 1
17 41 m 1
 15 41 l 1
 15 43 l 1
 17 43 l 1
 17 41 l 1
23 37 m 1
 21 37 l 1
 21 39 l 1
 23 39 l 1
 23 37 l 1
23 41 m 1
 21 41 l 1
 21 43 l 1
 23 43 l 1
 23 41 l 1
26 41 m 1
 24 41 l 1
 24 43 l 1
 25 43 l 1
 25 42 l 1
 26 42 l 1
 26 41 l 1
27 42 m 1
 26 42 l 1
 26 43 l 1
 28 43 l 1
 28 41 l 1
 27 41 l 1
 27 42 l 1
31 41 m 1
 29 41 l 1
 29 43 l 1
 31 43 l 1
 31 41 l 1
41 37 m 1
 39 37 l 1
 39 39 l 1
 41 39 l 1
 41 37 l 1
41 41 m 1
 39 41 l 1
 39 43 l 1
 41 43 l 1
 41 41 l 1
44 41 m 1
 42 41 l 1
 42 43 l 1
 43 43 l 1
 43 42 l 1
 44 42 l 1
 44 41 l 1
45 42 m 1
 44 42 l 1
 44 43 l 1
 46 43 l 1
 46 41 l 1
 45 41 l 1
 45 42 l 1
49 37 m 1
 47 37 l 1
 47 39 l 1
 49 39 l 1
 49 37 l 1
49 41 m 1
 47 41 l 1
 47 43 l 1
 49 43 l 1
 49 41 l 1
55 41 m 1
 53 41 l 1
 53 43 l 1
 55 43 l 1
 55 41 l 1
58 41 m 1
 56 41 l 1
 56 43 l 1
 57 43 l 1
 57 42 l 1
 58 42 l 1
 58 41 l 1
59 42 m 1
 58 42 l 1
 58 43 l 1
 60 43 l 1
 60 41 l 1
 59 41 l 1
 59 42 l 1
63 37 m 1
 61 37 l 1
 61 39 l 1
 63 39 l 1
 63 37 l 1
63 41 m 1
 61 41 l 1
 61 43 l 1
 63 43 l 1
 63 41 l 1
EndSplineSet
Ligature2: "'liga' Standard Ligatures in Latin lookup 0-1" zero nine zero two two
LCarets2: 1 0
EndChar

StartChar: custom_0_9_0_2_3
Encoding: 2979 -1 2734
Width: 70
Flags: H
LayerCount: 2
Fore
SplineSet
17 25 m 1
 15 25 l 1
 15 27 l 1
 17 27 l 1
 17 25 l 1
17 29 m 1
 15 29 l 1
 15 31 l 1
 17 31 l 1
 17 29 l 1
17 33 m 1
 15 33 l 1
 15 35 l 1
 17 35 l 1
 17 33 l 1
23 25 m 1
 21 25 l 1
 21 27 l 1
 23 27 l 1
 23 25 l 1
26 25 m 1
 24 25 l 1
 24 27 l 1
 25 27 l 1
 25 26 l 1
 26 26 l 1
 26 25 l 1
27 26 m 1
 26 26 l 1
 26 27 l 1
 28 27 l 1
 28 25 l 1
 27 25 l 1
 27 26 l 1
31 25 m 1
 29 25 l 1
 29 27 l 1
 31 27 l 1
 31 25 l 1
23 33 m 1
 21 33 l 1
 21 35 l 1
 23 35 l 1
 23 33 l 1
25 33 m 1
 24 33 l 1
 24 35 l 1
 26 35 l 1
 26 34 l 1
 25 34 l 1
 25 33 l 1
28 33 m 1
 26 33 l 1
 26 34 l 1
 27 34 l 1
 27 35 l 1
 28 35 l 1
 28 33 l 1
31 29 m 1
 29 29 l 1
 29 31 l 1
 31 31 l 1
 31 29 l 1
36 31 m 1
 34 31 l 1
 34 33 l 1
 36 33 l 1
 36 31 l 1
31 33 m 1
 29 33 l 1
 29 35 l 1
 31 35 l 1
 31 33 l 1
36 35 m 1
 34 35 l 1
 34 37 l 1
 36 37 l 1
 36 35 l 1
41 25 m 1
 39 25 l 1
 39 27 l 1
 41 27 l 1
 41 25 l 1
44 25 m 1
 42 25 l 1
 42 27 l 1
 43 27 l 1
 43 26 l 1
 44 26 l 1
 44 25 l 1
45 26 m 1
 44 26 l 1
 44 27 l 1
 46 27 l 1
 46 25 l 1
 45 25 l 1
 45 26 l 1
49 25 m 1
 47 25 l 1
 47 27 l 1
 49 27 l 1
 49 25 l 1
41 29 m 1
 39 29 l 1
 39 31 l 1
 41 31 l 1
 41 29 l 1
41 33 m 1
 39 33 l 1
 39 35 l 1
 41 35 l 1
 41 33 l 1
49 29 m 1
 47 29 l 1
 47 31 l 1
 49 31 l 1
 49 29 l 1
49 33 m 1
 47 33 l 1
 47 35 l 1
 49 35 l 1
 49 33 l 1
55 25 m 1
 53 25 l 1
 53 27 l 1
 55 27 l 1
 55 25 l 1
58 25 m 1
 56 25 l 1
 56 27 l 1
 57 27 l 1
 57 26 l 1
 58 26 l 1
 58 25 l 1
59 26 m 1
 58 26 l 1
 58 27 l 1
 60 27 l 1
 60 25 l 1
 59 25 l 1
 59 26 l 1
63 25 m 1
 61 25 l 1
 61 27 l 1
 63 27 l 1
 63 25 l 1
55 29 m 1
 53 29 l 1
 53 31 l 1
 55 31 l 1
 55 29 l 1
55 33 m 1
 53 33 l 1
 53 35 l 1
 55 35 l 1
 55 33 l 1
57 33 m 1
 56 33 l 1
 56 35 l 1
 58 35 l 1
 58 34 l 1
 57 34 l 1
 57 33 l 1
60 33 m 1
 58 33 l 1
 58 34 l 1
 59 34 l 1
 59 35 l 1
 60 35 l 1
 60 33 l 1
63 29 m 1
 61 29 l 1
 61 31 l 1
 63 31 l 1
 63 29 l 1
63 33 m 1
 61 33 l 1
 61 35 l 1
 63 35 l 1
 63 33 l 1
17 37 m 1
 15 37 l 1
 15 39 l 1
 17 39 l 1
 17 37 l 1
17 41 m 1
 15 41 l 1
 15 43 l 1
 17 43 l 1
 17 41 l 1
23 37 m 1
 21 37 l 1
 21 39 l 1
 23 39 l 1
 23 37 l 1
23 41 m 1
 21 41 l 1
 21 43 l 1
 23 43 l 1
 23 41 l 1
26 41 m 1
 24 41 l 1
 24 43 l 1
 25 43 l 1
 25 42 l 1
 26 42 l 1
 26 41 l 1
27 42 m 1
 26 42 l 1
 26 43 l 1
 28 43 l 1
 28 41 l 1
 27 41 l 1
 27 42 l 1
31 41 m 1
 29 41 l 1
 29 43 l 1
 31 43 l 1
 31 41 l 1
41 37 m 1
 39 37 l 1
 39 39 l 1
 41 39 l 1
 41 37 l 1
41 41 m 1
 39 41 l 1
 39 43 l 1
 41 43 l 1
 41 41 l 1
44 41 m 1
 42 41 l 1
 42 43 l 1
 43 43 l 1
 43 42 l 1
 44 42 l 1
 44 41 l 1
45 42 m 1
 44 42 l 1
 44 43 l 1
 46 43 l 1
 46 41 l 1
 45 41 l 1
 45 42 l 1
49 37 m 1
 47 37 l 1
 47 39 l 1
 49 39 l 1
 49 37 l 1
49 41 m 1
 47 41 l 1
 47 43 l 1
 49 43 l 1
 49 41 l 1
55 41 m 1
 53 41 l 1
 53 43 l 1
 55 43 l 1
 55 41 l 1
58 41 m 1
 56 41 l 1
 56 43 l 1
 57 43 l 1
 57 42 l 1
 58 42 l 1
 58 41 l 1
59 42 m 1
 58 42 l 1
 58 43 l 1
 60 43 l 1
 60 41 l 1
 59 41 l 1
 59 42 l 1
63 37 m 1
 61 37 l 1
 61 39 l 1
 63 39 l 1
 63 37 l 1
63 41 m 1
 61 41 l 1
 61 43 l 1
 63 43 l 1
 63 41 l 1
EndSplineSet
Ligature2: "'liga' Standard Ligatures in Latin lookup 0-1" zero nine zero two three
LCarets2: 1 0
EndChar

StartChar: custom_0_9_0_2_4
Encoding: 2980 -1 2735
Width: 70
Flags: H
LayerCount: 2
Fore
SplineSet
17 25 m 1
 15 25 l 1
 15 27 l 1
 17 27 l 1
 17 25 l 1
17 29 m 1
 15 29 l 1
 15 31 l 1
 17 31 l 1
 17 29 l 1
17 33 m 1
 15 33 l 1
 15 35 l 1
 17 35 l 1
 17 33 l 1
23 25 m 1
 21 25 l 1
 21 27 l 1
 23 27 l 1
 23 25 l 1
26 25 m 1
 24 25 l 1
 24 27 l 1
 25 27 l 1
 25 26 l 1
 26 26 l 1
 26 25 l 1
27 26 m 1
 26 26 l 1
 26 27 l 1
 28 27 l 1
 28 25 l 1
 27 25 l 1
 27 26 l 1
31 25 m 1
 29 25 l 1
 29 27 l 1
 31 27 l 1
 31 25 l 1
23 33 m 1
 21 33 l 1
 21 35 l 1
 23 35 l 1
 23 33 l 1
25 33 m 1
 24 33 l 1
 24 35 l 1
 26 35 l 1
 26 34 l 1
 25 34 l 1
 25 33 l 1
28 33 m 1
 26 33 l 1
 26 34 l 1
 27 34 l 1
 27 35 l 1
 28 35 l 1
 28 33 l 1
31 29 m 1
 29 29 l 1
 29 31 l 1
 31 31 l 1
 31 29 l 1
36 31 m 1
 34 31 l 1
 34 33 l 1
 36 33 l 1
 36 31 l 1
31 33 m 1
 29 33 l 1
 29 35 l 1
 31 35 l 1
 31 33 l 1
36 35 m 1
 34 35 l 1
 34 37 l 1
 36 37 l 1
 36 35 l 1
41 25 m 1
 39 25 l 1
 39 27 l 1
 41 27 l 1
 41 25 l 1
44 25 m 1
 42 25 l 1
 42 27 l 1
 43 27 l 1
 43 26 l 1
 44 26 l 1
 44 25 l 1
45 26 m 1
 44 26 l 1
 44 27 l 1
 46 27 l 1
 46 25 l 1
 45 25 l 1
 45 26 l 1
49 25 m 1
 47 25 l 1
 47 27 l 1
 49 27 l 1
 49 25 l 1
41 29 m 1
 39 29 l 1
 39 31 l 1
 41 31 l 1
 41 29 l 1
41 33 m 1
 39 33 l 1
 39 35 l 1
 41 35 l 1
 41 33 l 1
49 29 m 1
 47 29 l 1
 47 31 l 1
 49 31 l 1
 49 29 l 1
49 33 m 1
 47 33 l 1
 47 35 l 1
 49 35 l 1
 49 33 l 1
55 25 m 1
 53 25 l 1
 53 27 l 1
 55 27 l 1
 55 25 l 1
58 25 m 1
 56 25 l 1
 56 27 l 1
 57 27 l 1
 57 26 l 1
 58 26 l 1
 58 25 l 1
59 26 m 1
 58 26 l 1
 58 27 l 1
 60 27 l 1
 60 25 l 1
 59 25 l 1
 59 26 l 1
63 25 m 1
 61 25 l 1
 61 27 l 1
 63 27 l 1
 63 25 l 1
55 29 m 1
 53 29 l 1
 53 31 l 1
 55 31 l 1
 55 29 l 1
55 33 m 1
 53 33 l 1
 53 35 l 1
 55 35 l 1
 55 33 l 1
57 33 m 1
 56 33 l 1
 56 35 l 1
 58 35 l 1
 58 34 l 1
 57 34 l 1
 57 33 l 1
60 33 m 1
 58 33 l 1
 58 34 l 1
 59 34 l 1
 59 35 l 1
 60 35 l 1
 60 33 l 1
63 29 m 1
 61 29 l 1
 61 31 l 1
 63 31 l 1
 63 29 l 1
63 33 m 1
 61 33 l 1
 61 35 l 1
 63 35 l 1
 63 33 l 1
17 37 m 1
 15 37 l 1
 15 39 l 1
 17 39 l 1
 17 37 l 1
17 41 m 1
 15 41 l 1
 15 43 l 1
 17 43 l 1
 17 41 l 1
23 37 m 1
 21 37 l 1
 21 39 l 1
 23 39 l 1
 23 37 l 1
23 41 m 1
 21 41 l 1
 21 43 l 1
 23 43 l 1
 23 41 l 1
26 41 m 1
 24 41 l 1
 24 43 l 1
 25 43 l 1
 25 42 l 1
 26 42 l 1
 26 41 l 1
27 42 m 1
 26 42 l 1
 26 43 l 1
 28 43 l 1
 28 41 l 1
 27 41 l 1
 27 42 l 1
31 41 m 1
 29 41 l 1
 29 43 l 1
 31 43 l 1
 31 41 l 1
41 37 m 1
 39 37 l 1
 39 39 l 1
 41 39 l 1
 41 37 l 1
41 41 m 1
 39 41 l 1
 39 43 l 1
 41 43 l 1
 41 41 l 1
44 41 m 1
 42 41 l 1
 42 43 l 1
 43 43 l 1
 43 42 l 1
 44 42 l 1
 44 41 l 1
45 42 m 1
 44 42 l 1
 44 43 l 1
 46 43 l 1
 46 41 l 1
 45 41 l 1
 45 42 l 1
49 37 m 1
 47 37 l 1
 47 39 l 1
 49 39 l 1
 49 37 l 1
49 41 m 1
 47 41 l 1
 47 43 l 1
 49 43 l 1
 49 41 l 1
55 41 m 1
 53 41 l 1
 53 43 l 1
 55 43 l 1
 55 41 l 1
58 41 m 1
 56 41 l 1
 56 43 l 1
 57 43 l 1
 57 42 l 1
 58 42 l 1
 58 41 l 1
59 42 m 1
 58 42 l 1
 58 43 l 1
 60 43 l 1
 60 41 l 1
 59 41 l 1
 59 42 l 1
63 37 m 1
 61 37 l 1
 61 39 l 1
 63 39 l 1
 63 37 l 1
63 41 m 1
 61 41 l 1
 61 43 l 1
 63 43 l 1
 63 41 l 1
EndSplineSet
Ligature2: "'liga' Standard Ligatures in Latin lookup 0-1" zero nine zero two four
LCarets2: 1 0
EndChar

StartChar: custom_0_9_0_2_5
Encoding: 2981 -1 2736
Width: 70
Flags: H
LayerCount: 2
Fore
SplineSet
17 25 m 1
 15 25 l 1
 15 27 l 1
 17 27 l 1
 17 25 l 1
17 29 m 1
 15 29 l 1
 15 31 l 1
 17 31 l 1
 17 29 l 1
17 33 m 1
 15 33 l 1
 15 35 l 1
 17 35 l 1
 17 33 l 1
23 25 m 1
 21 25 l 1
 21 27 l 1
 23 27 l 1
 23 25 l 1
26 25 m 1
 24 25 l 1
 24 27 l 1
 25 27 l 1
 25 26 l 1
 26 26 l 1
 26 25 l 1
27 26 m 1
 26 26 l 1
 26 27 l 1
 28 27 l 1
 28 25 l 1
 27 25 l 1
 27 26 l 1
31 25 m 1
 29 25 l 1
 29 27 l 1
 31 27 l 1
 31 25 l 1
23 33 m 1
 21 33 l 1
 21 35 l 1
 23 35 l 1
 23 33 l 1
25 33 m 1
 24 33 l 1
 24 35 l 1
 26 35 l 1
 26 34 l 1
 25 34 l 1
 25 33 l 1
28 33 m 1
 26 33 l 1
 26 34 l 1
 27 34 l 1
 27 35 l 1
 28 35 l 1
 28 33 l 1
31 29 m 1
 29 29 l 1
 29 31 l 1
 31 31 l 1
 31 29 l 1
36 31 m 1
 34 31 l 1
 34 33 l 1
 36 33 l 1
 36 31 l 1
31 33 m 1
 29 33 l 1
 29 35 l 1
 31 35 l 1
 31 33 l 1
36 35 m 1
 34 35 l 1
 34 37 l 1
 36 37 l 1
 36 35 l 1
41 25 m 1
 39 25 l 1
 39 27 l 1
 41 27 l 1
 41 25 l 1
44 25 m 1
 42 25 l 1
 42 27 l 1
 43 27 l 1
 43 26 l 1
 44 26 l 1
 44 25 l 1
45 26 m 1
 44 26 l 1
 44 27 l 1
 46 27 l 1
 46 25 l 1
 45 25 l 1
 45 26 l 1
49 25 m 1
 47 25 l 1
 47 27 l 1
 49 27 l 1
 49 25 l 1
41 29 m 1
 39 29 l 1
 39 31 l 1
 41 31 l 1
 41 29 l 1
41 33 m 1
 39 33 l 1
 39 35 l 1
 41 35 l 1
 41 33 l 1
49 29 m 1
 47 29 l 1
 47 31 l 1
 49 31 l 1
 49 29 l 1
49 33 m 1
 47 33 l 1
 47 35 l 1
 49 35 l 1
 49 33 l 1
55 25 m 1
 53 25 l 1
 53 27 l 1
 55 27 l 1
 55 25 l 1
58 25 m 1
 56 25 l 1
 56 27 l 1
 57 27 l 1
 57 26 l 1
 58 26 l 1
 58 25 l 1
59 26 m 1
 58 26 l 1
 58 27 l 1
 60 27 l 1
 60 25 l 1
 59 25 l 1
 59 26 l 1
63 25 m 1
 61 25 l 1
 61 27 l 1
 63 27 l 1
 63 25 l 1
55 29 m 1
 53 29 l 1
 53 31 l 1
 55 31 l 1
 55 29 l 1
55 33 m 1
 53 33 l 1
 53 35 l 1
 55 35 l 1
 55 33 l 1
57 33 m 1
 56 33 l 1
 56 35 l 1
 58 35 l 1
 58 34 l 1
 57 34 l 1
 57 33 l 1
60 33 m 1
 58 33 l 1
 58 34 l 1
 59 34 l 1
 59 35 l 1
 60 35 l 1
 60 33 l 1
63 29 m 1
 61 29 l 1
 61 31 l 1
 63 31 l 1
 63 29 l 1
63 33 m 1
 61 33 l 1
 61 35 l 1
 63 35 l 1
 63 33 l 1
17 37 m 1
 15 37 l 1
 15 39 l 1
 17 39 l 1
 17 37 l 1
17 41 m 1
 15 41 l 1
 15 43 l 1
 17 43 l 1
 17 41 l 1
23 37 m 1
 21 37 l 1
 21 39 l 1
 23 39 l 1
 23 37 l 1
23 41 m 1
 21 41 l 1
 21 43 l 1
 23 43 l 1
 23 41 l 1
26 41 m 1
 24 41 l 1
 24 43 l 1
 25 43 l 1
 25 42 l 1
 26 42 l 1
 26 41 l 1
27 42 m 1
 26 42 l 1
 26 43 l 1
 28 43 l 1
 28 41 l 1
 27 41 l 1
 27 42 l 1
31 41 m 1
 29 41 l 1
 29 43 l 1
 31 43 l 1
 31 41 l 1
41 37 m 1
 39 37 l 1
 39 39 l 1
 41 39 l 1
 41 37 l 1
41 41 m 1
 39 41 l 1
 39 43 l 1
 41 43 l 1
 41 41 l 1
44 41 m 1
 42 41 l 1
 42 43 l 1
 43 43 l 1
 43 42 l 1
 44 42 l 1
 44 41 l 1
45 42 m 1
 44 42 l 1
 44 43 l 1
 46 43 l 1
 46 41 l 1
 45 41 l 1
 45 42 l 1
49 37 m 1
 47 37 l 1
 47 39 l 1
 49 39 l 1
 49 37 l 1
49 41 m 1
 47 41 l 1
 47 43 l 1
 49 43 l 1
 49 41 l 1
55 41 m 1
 53 41 l 1
 53 43 l 1
 55 43 l 1
 55 41 l 1
58 41 m 1
 56 41 l 1
 56 43 l 1
 57 43 l 1
 57 42 l 1
 58 42 l 1
 58 41 l 1
59 42 m 1
 58 42 l 1
 58 43 l 1
 60 43 l 1
 60 41 l 1
 59 41 l 1
 59 42 l 1
63 37 m 1
 61 37 l 1
 61 39 l 1
 63 39 l 1
 63 37 l 1
63 41 m 1
 61 41 l 1
 61 43 l 1
 63 43 l 1
 63 41 l 1
EndSplineSet
Ligature2: "'liga' Standard Ligatures in Latin lookup 0-1" zero nine zero two five
LCarets2: 1 0
EndChar

StartChar: custom_0_9_0_2_6
Encoding: 2982 -1 2737
Width: 70
Flags: H
LayerCount: 2
Fore
SplineSet
17 25 m 1
 15 25 l 1
 15 27 l 1
 17 27 l 1
 17 25 l 1
17 29 m 1
 15 29 l 1
 15 31 l 1
 17 31 l 1
 17 29 l 1
17 33 m 1
 15 33 l 1
 15 35 l 1
 17 35 l 1
 17 33 l 1
23 25 m 1
 21 25 l 1
 21 27 l 1
 23 27 l 1
 23 25 l 1
26 25 m 1
 24 25 l 1
 24 27 l 1
 25 27 l 1
 25 26 l 1
 26 26 l 1
 26 25 l 1
27 26 m 1
 26 26 l 1
 26 27 l 1
 28 27 l 1
 28 25 l 1
 27 25 l 1
 27 26 l 1
31 25 m 1
 29 25 l 1
 29 27 l 1
 31 27 l 1
 31 25 l 1
23 33 m 1
 21 33 l 1
 21 35 l 1
 23 35 l 1
 23 33 l 1
25 33 m 1
 24 33 l 1
 24 35 l 1
 26 35 l 1
 26 34 l 1
 25 34 l 1
 25 33 l 1
28 33 m 1
 26 33 l 1
 26 34 l 1
 27 34 l 1
 27 35 l 1
 28 35 l 1
 28 33 l 1
31 29 m 1
 29 29 l 1
 29 31 l 1
 31 31 l 1
 31 29 l 1
36 31 m 1
 34 31 l 1
 34 33 l 1
 36 33 l 1
 36 31 l 1
31 33 m 1
 29 33 l 1
 29 35 l 1
 31 35 l 1
 31 33 l 1
36 35 m 1
 34 35 l 1
 34 37 l 1
 36 37 l 1
 36 35 l 1
41 25 m 1
 39 25 l 1
 39 27 l 1
 41 27 l 1
 41 25 l 1
44 25 m 1
 42 25 l 1
 42 27 l 1
 43 27 l 1
 43 26 l 1
 44 26 l 1
 44 25 l 1
45 26 m 1
 44 26 l 1
 44 27 l 1
 46 27 l 1
 46 25 l 1
 45 25 l 1
 45 26 l 1
49 25 m 1
 47 25 l 1
 47 27 l 1
 49 27 l 1
 49 25 l 1
41 29 m 1
 39 29 l 1
 39 31 l 1
 41 31 l 1
 41 29 l 1
41 33 m 1
 39 33 l 1
 39 35 l 1
 41 35 l 1
 41 33 l 1
49 29 m 1
 47 29 l 1
 47 31 l 1
 49 31 l 1
 49 29 l 1
49 33 m 1
 47 33 l 1
 47 35 l 1
 49 35 l 1
 49 33 l 1
55 25 m 1
 53 25 l 1
 53 27 l 1
 55 27 l 1
 55 25 l 1
58 25 m 1
 56 25 l 1
 56 27 l 1
 57 27 l 1
 57 26 l 1
 58 26 l 1
 58 25 l 1
59 26 m 1
 58 26 l 1
 58 27 l 1
 60 27 l 1
 60 25 l 1
 59 25 l 1
 59 26 l 1
63 25 m 1
 61 25 l 1
 61 27 l 1
 63 27 l 1
 63 25 l 1
55 29 m 1
 53 29 l 1
 53 31 l 1
 55 31 l 1
 55 29 l 1
55 33 m 1
 53 33 l 1
 53 35 l 1
 55 35 l 1
 55 33 l 1
57 33 m 1
 56 33 l 1
 56 35 l 1
 58 35 l 1
 58 34 l 1
 57 34 l 1
 57 33 l 1
60 33 m 1
 58 33 l 1
 58 34 l 1
 59 34 l 1
 59 35 l 1
 60 35 l 1
 60 33 l 1
63 29 m 1
 61 29 l 1
 61 31 l 1
 63 31 l 1
 63 29 l 1
63 33 m 1
 61 33 l 1
 61 35 l 1
 63 35 l 1
 63 33 l 1
17 37 m 1
 15 37 l 1
 15 39 l 1
 17 39 l 1
 17 37 l 1
17 41 m 1
 15 41 l 1
 15 43 l 1
 17 43 l 1
 17 41 l 1
23 37 m 1
 21 37 l 1
 21 39 l 1
 23 39 l 1
 23 37 l 1
23 41 m 1
 21 41 l 1
 21 43 l 1
 23 43 l 1
 23 41 l 1
26 41 m 1
 24 41 l 1
 24 43 l 1
 25 43 l 1
 25 42 l 1
 26 42 l 1
 26 41 l 1
27 42 m 1
 26 42 l 1
 26 43 l 1
 28 43 l 1
 28 41 l 1
 27 41 l 1
 27 42 l 1
31 41 m 1
 29 41 l 1
 29 43 l 1
 31 43 l 1
 31 41 l 1
41 37 m 1
 39 37 l 1
 39 39 l 1
 41 39 l 1
 41 37 l 1
41 41 m 1
 39 41 l 1
 39 43 l 1
 41 43 l 1
 41 41 l 1
44 41 m 1
 42 41 l 1
 42 43 l 1
 43 43 l 1
 43 42 l 1
 44 42 l 1
 44 41 l 1
45 42 m 1
 44 42 l 1
 44 43 l 1
 46 43 l 1
 46 41 l 1
 45 41 l 1
 45 42 l 1
49 37 m 1
 47 37 l 1
 47 39 l 1
 49 39 l 1
 49 37 l 1
49 41 m 1
 47 41 l 1
 47 43 l 1
 49 43 l 1
 49 41 l 1
55 41 m 1
 53 41 l 1
 53 43 l 1
 55 43 l 1
 55 41 l 1
58 41 m 1
 56 41 l 1
 56 43 l 1
 57 43 l 1
 57 42 l 1
 58 42 l 1
 58 41 l 1
59 42 m 1
 58 42 l 1
 58 43 l 1
 60 43 l 1
 60 41 l 1
 59 41 l 1
 59 42 l 1
63 37 m 1
 61 37 l 1
 61 39 l 1
 63 39 l 1
 63 37 l 1
63 41 m 1
 61 41 l 1
 61 43 l 1
 63 43 l 1
 63 41 l 1
EndSplineSet
Ligature2: "'liga' Standard Ligatures in Latin lookup 0-1" zero nine zero two six
LCarets2: 1 0
EndChar

StartChar: custom_0_9_0_2_7
Encoding: 2983 -1 2738
Width: 70
Flags: H
LayerCount: 2
Fore
SplineSet
17 25 m 1
 15 25 l 1
 15 27 l 1
 17 27 l 1
 17 25 l 1
17 29 m 1
 15 29 l 1
 15 31 l 1
 17 31 l 1
 17 29 l 1
17 33 m 1
 15 33 l 1
 15 35 l 1
 17 35 l 1
 17 33 l 1
23 25 m 1
 21 25 l 1
 21 27 l 1
 23 27 l 1
 23 25 l 1
26 25 m 1
 24 25 l 1
 24 27 l 1
 25 27 l 1
 25 26 l 1
 26 26 l 1
 26 25 l 1
27 26 m 1
 26 26 l 1
 26 27 l 1
 28 27 l 1
 28 25 l 1
 27 25 l 1
 27 26 l 1
31 25 m 1
 29 25 l 1
 29 27 l 1
 31 27 l 1
 31 25 l 1
23 33 m 1
 21 33 l 1
 21 35 l 1
 23 35 l 1
 23 33 l 1
25 33 m 1
 24 33 l 1
 24 35 l 1
 26 35 l 1
 26 34 l 1
 25 34 l 1
 25 33 l 1
28 33 m 1
 26 33 l 1
 26 34 l 1
 27 34 l 1
 27 35 l 1
 28 35 l 1
 28 33 l 1
31 29 m 1
 29 29 l 1
 29 31 l 1
 31 31 l 1
 31 29 l 1
36 31 m 1
 34 31 l 1
 34 33 l 1
 36 33 l 1
 36 31 l 1
31 33 m 1
 29 33 l 1
 29 35 l 1
 31 35 l 1
 31 33 l 1
36 35 m 1
 34 35 l 1
 34 37 l 1
 36 37 l 1
 36 35 l 1
41 25 m 1
 39 25 l 1
 39 27 l 1
 41 27 l 1
 41 25 l 1
44 25 m 1
 42 25 l 1
 42 27 l 1
 43 27 l 1
 43 26 l 1
 44 26 l 1
 44 25 l 1
45 26 m 1
 44 26 l 1
 44 27 l 1
 46 27 l 1
 46 25 l 1
 45 25 l 1
 45 26 l 1
49 25 m 1
 47 25 l 1
 47 27 l 1
 49 27 l 1
 49 25 l 1
41 29 m 1
 39 29 l 1
 39 31 l 1
 41 31 l 1
 41 29 l 1
41 33 m 1
 39 33 l 1
 39 35 l 1
 41 35 l 1
 41 33 l 1
49 29 m 1
 47 29 l 1
 47 31 l 1
 49 31 l 1
 49 29 l 1
49 33 m 1
 47 33 l 1
 47 35 l 1
 49 35 l 1
 49 33 l 1
55 25 m 1
 53 25 l 1
 53 27 l 1
 55 27 l 1
 55 25 l 1
58 25 m 1
 56 25 l 1
 56 27 l 1
 57 27 l 1
 57 26 l 1
 58 26 l 1
 58 25 l 1
59 26 m 1
 58 26 l 1
 58 27 l 1
 60 27 l 1
 60 25 l 1
 59 25 l 1
 59 26 l 1
63 25 m 1
 61 25 l 1
 61 27 l 1
 63 27 l 1
 63 25 l 1
55 29 m 1
 53 29 l 1
 53 31 l 1
 55 31 l 1
 55 29 l 1
55 33 m 1
 53 33 l 1
 53 35 l 1
 55 35 l 1
 55 33 l 1
57 33 m 1
 56 33 l 1
 56 35 l 1
 58 35 l 1
 58 34 l 1
 57 34 l 1
 57 33 l 1
60 33 m 1
 58 33 l 1
 58 34 l 1
 59 34 l 1
 59 35 l 1
 60 35 l 1
 60 33 l 1
63 29 m 1
 61 29 l 1
 61 31 l 1
 63 31 l 1
 63 29 l 1
63 33 m 1
 61 33 l 1
 61 35 l 1
 63 35 l 1
 63 33 l 1
17 37 m 1
 15 37 l 1
 15 39 l 1
 17 39 l 1
 17 37 l 1
17 41 m 1
 15 41 l 1
 15 43 l 1
 17 43 l 1
 17 41 l 1
23 37 m 1
 21 37 l 1
 21 39 l 1
 23 39 l 1
 23 37 l 1
23 41 m 1
 21 41 l 1
 21 43 l 1
 23 43 l 1
 23 41 l 1
26 41 m 1
 24 41 l 1
 24 43 l 1
 25 43 l 1
 25 42 l 1
 26 42 l 1
 26 41 l 1
27 42 m 1
 26 42 l 1
 26 43 l 1
 28 43 l 1
 28 41 l 1
 27 41 l 1
 27 42 l 1
31 41 m 1
 29 41 l 1
 29 43 l 1
 31 43 l 1
 31 41 l 1
41 37 m 1
 39 37 l 1
 39 39 l 1
 41 39 l 1
 41 37 l 1
41 41 m 1
 39 41 l 1
 39 43 l 1
 41 43 l 1
 41 41 l 1
44 41 m 1
 42 41 l 1
 42 43 l 1
 43 43 l 1
 43 42 l 1
 44 42 l 1
 44 41 l 1
45 42 m 1
 44 42 l 1
 44 43 l 1
 46 43 l 1
 46 41 l 1
 45 41 l 1
 45 42 l 1
49 37 m 1
 47 37 l 1
 47 39 l 1
 49 39 l 1
 49 37 l 1
49 41 m 1
 47 41 l 1
 47 43 l 1
 49 43 l 1
 49 41 l 1
55 41 m 1
 53 41 l 1
 53 43 l 1
 55 43 l 1
 55 41 l 1
58 41 m 1
 56 41 l 1
 56 43 l 1
 57 43 l 1
 57 42 l 1
 58 42 l 1
 58 41 l 1
59 42 m 1
 58 42 l 1
 58 43 l 1
 60 43 l 1
 60 41 l 1
 59 41 l 1
 59 42 l 1
63 37 m 1
 61 37 l 1
 61 39 l 1
 63 39 l 1
 63 37 l 1
63 41 m 1
 61 41 l 1
 61 43 l 1
 63 43 l 1
 63 41 l 1
EndSplineSet
Ligature2: "'liga' Standard Ligatures in Latin lookup 0-1" zero nine zero two seven
LCarets2: 1 0
EndChar

StartChar: custom_0_9_0_2_8
Encoding: 2984 -1 2739
Width: 70
Flags: H
LayerCount: 2
Fore
SplineSet
17 25 m 1
 15 25 l 1
 15 27 l 1
 17 27 l 1
 17 25 l 1
17 29 m 1
 15 29 l 1
 15 31 l 1
 17 31 l 1
 17 29 l 1
17 33 m 1
 15 33 l 1
 15 35 l 1
 17 35 l 1
 17 33 l 1
23 25 m 1
 21 25 l 1
 21 27 l 1
 23 27 l 1
 23 25 l 1
26 25 m 1
 24 25 l 1
 24 27 l 1
 25 27 l 1
 25 26 l 1
 26 26 l 1
 26 25 l 1
27 26 m 1
 26 26 l 1
 26 27 l 1
 28 27 l 1
 28 25 l 1
 27 25 l 1
 27 26 l 1
31 25 m 1
 29 25 l 1
 29 27 l 1
 31 27 l 1
 31 25 l 1
23 33 m 1
 21 33 l 1
 21 35 l 1
 23 35 l 1
 23 33 l 1
25 33 m 1
 24 33 l 1
 24 35 l 1
 26 35 l 1
 26 34 l 1
 25 34 l 1
 25 33 l 1
28 33 m 1
 26 33 l 1
 26 34 l 1
 27 34 l 1
 27 35 l 1
 28 35 l 1
 28 33 l 1
31 29 m 1
 29 29 l 1
 29 31 l 1
 31 31 l 1
 31 29 l 1
36 31 m 1
 34 31 l 1
 34 33 l 1
 36 33 l 1
 36 31 l 1
31 33 m 1
 29 33 l 1
 29 35 l 1
 31 35 l 1
 31 33 l 1
36 35 m 1
 34 35 l 1
 34 37 l 1
 36 37 l 1
 36 35 l 1
41 25 m 1
 39 25 l 1
 39 27 l 1
 41 27 l 1
 41 25 l 1
44 25 m 1
 42 25 l 1
 42 27 l 1
 43 27 l 1
 43 26 l 1
 44 26 l 1
 44 25 l 1
45 26 m 1
 44 26 l 1
 44 27 l 1
 46 27 l 1
 46 25 l 1
 45 25 l 1
 45 26 l 1
49 25 m 1
 47 25 l 1
 47 27 l 1
 49 27 l 1
 49 25 l 1
41 29 m 1
 39 29 l 1
 39 31 l 1
 41 31 l 1
 41 29 l 1
41 33 m 1
 39 33 l 1
 39 35 l 1
 41 35 l 1
 41 33 l 1
49 29 m 1
 47 29 l 1
 47 31 l 1
 49 31 l 1
 49 29 l 1
49 33 m 1
 47 33 l 1
 47 35 l 1
 49 35 l 1
 49 33 l 1
55 25 m 1
 53 25 l 1
 53 27 l 1
 55 27 l 1
 55 25 l 1
58 25 m 1
 56 25 l 1
 56 27 l 1
 57 27 l 1
 57 26 l 1
 58 26 l 1
 58 25 l 1
59 26 m 1
 58 26 l 1
 58 27 l 1
 60 27 l 1
 60 25 l 1
 59 25 l 1
 59 26 l 1
63 25 m 1
 61 25 l 1
 61 27 l 1
 63 27 l 1
 63 25 l 1
55 29 m 1
 53 29 l 1
 53 31 l 1
 55 31 l 1
 55 29 l 1
55 33 m 1
 53 33 l 1
 53 35 l 1
 55 35 l 1
 55 33 l 1
57 33 m 1
 56 33 l 1
 56 35 l 1
 58 35 l 1
 58 34 l 1
 57 34 l 1
 57 33 l 1
60 33 m 1
 58 33 l 1
 58 34 l 1
 59 34 l 1
 59 35 l 1
 60 35 l 1
 60 33 l 1
63 29 m 1
 61 29 l 1
 61 31 l 1
 63 31 l 1
 63 29 l 1
63 33 m 1
 61 33 l 1
 61 35 l 1
 63 35 l 1
 63 33 l 1
17 37 m 1
 15 37 l 1
 15 39 l 1
 17 39 l 1
 17 37 l 1
17 41 m 1
 15 41 l 1
 15 43 l 1
 17 43 l 1
 17 41 l 1
23 37 m 1
 21 37 l 1
 21 39 l 1
 23 39 l 1
 23 37 l 1
23 41 m 1
 21 41 l 1
 21 43 l 1
 23 43 l 1
 23 41 l 1
26 41 m 1
 24 41 l 1
 24 43 l 1
 25 43 l 1
 25 42 l 1
 26 42 l 1
 26 41 l 1
27 42 m 1
 26 42 l 1
 26 43 l 1
 28 43 l 1
 28 41 l 1
 27 41 l 1
 27 42 l 1
31 41 m 1
 29 41 l 1
 29 43 l 1
 31 43 l 1
 31 41 l 1
41 37 m 1
 39 37 l 1
 39 39 l 1
 41 39 l 1
 41 37 l 1
41 41 m 1
 39 41 l 1
 39 43 l 1
 41 43 l 1
 41 41 l 1
44 41 m 1
 42 41 l 1
 42 43 l 1
 43 43 l 1
 43 42 l 1
 44 42 l 1
 44 41 l 1
45 42 m 1
 44 42 l 1
 44 43 l 1
 46 43 l 1
 46 41 l 1
 45 41 l 1
 45 42 l 1
49 37 m 1
 47 37 l 1
 47 39 l 1
 49 39 l 1
 49 37 l 1
49 41 m 1
 47 41 l 1
 47 43 l 1
 49 43 l 1
 49 41 l 1
55 41 m 1
 53 41 l 1
 53 43 l 1
 55 43 l 1
 55 41 l 1
58 41 m 1
 56 41 l 1
 56 43 l 1
 57 43 l 1
 57 42 l 1
 58 42 l 1
 58 41 l 1
59 42 m 1
 58 42 l 1
 58 43 l 1
 60 43 l 1
 60 41 l 1
 59 41 l 1
 59 42 l 1
63 37 m 1
 61 37 l 1
 61 39 l 1
 63 39 l 1
 63 37 l 1
63 41 m 1
 61 41 l 1
 61 43 l 1
 63 43 l 1
 63 41 l 1
EndSplineSet
Ligature2: "'liga' Standard Ligatures in Latin lookup 0-1" zero nine zero two eight
LCarets2: 1 0
EndChar

StartChar: custom_0_9_0_2_9
Encoding: 2985 -1 2740
Width: 70
Flags: H
LayerCount: 2
Fore
SplineSet
17 25 m 1
 15 25 l 1
 15 27 l 1
 17 27 l 1
 17 25 l 1
17 29 m 1
 15 29 l 1
 15 31 l 1
 17 31 l 1
 17 29 l 1
17 33 m 1
 15 33 l 1
 15 35 l 1
 17 35 l 1
 17 33 l 1
23 25 m 1
 21 25 l 1
 21 27 l 1
 23 27 l 1
 23 25 l 1
26 25 m 1
 24 25 l 1
 24 27 l 1
 25 27 l 1
 25 26 l 1
 26 26 l 1
 26 25 l 1
27 26 m 1
 26 26 l 1
 26 27 l 1
 28 27 l 1
 28 25 l 1
 27 25 l 1
 27 26 l 1
31 25 m 1
 29 25 l 1
 29 27 l 1
 31 27 l 1
 31 25 l 1
23 33 m 1
 21 33 l 1
 21 35 l 1
 23 35 l 1
 23 33 l 1
25 33 m 1
 24 33 l 1
 24 35 l 1
 26 35 l 1
 26 34 l 1
 25 34 l 1
 25 33 l 1
28 33 m 1
 26 33 l 1
 26 34 l 1
 27 34 l 1
 27 35 l 1
 28 35 l 1
 28 33 l 1
31 29 m 1
 29 29 l 1
 29 31 l 1
 31 31 l 1
 31 29 l 1
36 31 m 1
 34 31 l 1
 34 33 l 1
 36 33 l 1
 36 31 l 1
31 33 m 1
 29 33 l 1
 29 35 l 1
 31 35 l 1
 31 33 l 1
36 35 m 1
 34 35 l 1
 34 37 l 1
 36 37 l 1
 36 35 l 1
41 25 m 1
 39 25 l 1
 39 27 l 1
 41 27 l 1
 41 25 l 1
44 25 m 1
 42 25 l 1
 42 27 l 1
 43 27 l 1
 43 26 l 1
 44 26 l 1
 44 25 l 1
45 26 m 1
 44 26 l 1
 44 27 l 1
 46 27 l 1
 46 25 l 1
 45 25 l 1
 45 26 l 1
49 25 m 1
 47 25 l 1
 47 27 l 1
 49 27 l 1
 49 25 l 1
41 29 m 1
 39 29 l 1
 39 31 l 1
 41 31 l 1
 41 29 l 1
41 33 m 1
 39 33 l 1
 39 35 l 1
 41 35 l 1
 41 33 l 1
49 29 m 1
 47 29 l 1
 47 31 l 1
 49 31 l 1
 49 29 l 1
49 33 m 1
 47 33 l 1
 47 35 l 1
 49 35 l 1
 49 33 l 1
55 25 m 1
 53 25 l 1
 53 27 l 1
 55 27 l 1
 55 25 l 1
58 25 m 1
 56 25 l 1
 56 27 l 1
 57 27 l 1
 57 26 l 1
 58 26 l 1
 58 25 l 1
59 26 m 1
 58 26 l 1
 58 27 l 1
 60 27 l 1
 60 25 l 1
 59 25 l 1
 59 26 l 1
63 25 m 1
 61 25 l 1
 61 27 l 1
 63 27 l 1
 63 25 l 1
55 29 m 1
 53 29 l 1
 53 31 l 1
 55 31 l 1
 55 29 l 1
55 33 m 1
 53 33 l 1
 53 35 l 1
 55 35 l 1
 55 33 l 1
57 33 m 1
 56 33 l 1
 56 35 l 1
 58 35 l 1
 58 34 l 1
 57 34 l 1
 57 33 l 1
60 33 m 1
 58 33 l 1
 58 34 l 1
 59 34 l 1
 59 35 l 1
 60 35 l 1
 60 33 l 1
63 29 m 1
 61 29 l 1
 61 31 l 1
 63 31 l 1
 63 29 l 1
63 33 m 1
 61 33 l 1
 61 35 l 1
 63 35 l 1
 63 33 l 1
17 37 m 1
 15 37 l 1
 15 39 l 1
 17 39 l 1
 17 37 l 1
17 41 m 1
 15 41 l 1
 15 43 l 1
 17 43 l 1
 17 41 l 1
23 37 m 1
 21 37 l 1
 21 39 l 1
 23 39 l 1
 23 37 l 1
23 41 m 1
 21 41 l 1
 21 43 l 1
 23 43 l 1
 23 41 l 1
26 41 m 1
 24 41 l 1
 24 43 l 1
 25 43 l 1
 25 42 l 1
 26 42 l 1
 26 41 l 1
27 42 m 1
 26 42 l 1
 26 43 l 1
 28 43 l 1
 28 41 l 1
 27 41 l 1
 27 42 l 1
31 41 m 1
 29 41 l 1
 29 43 l 1
 31 43 l 1
 31 41 l 1
41 37 m 1
 39 37 l 1
 39 39 l 1
 41 39 l 1
 41 37 l 1
41 41 m 1
 39 41 l 1
 39 43 l 1
 41 43 l 1
 41 41 l 1
44 41 m 1
 42 41 l 1
 42 43 l 1
 43 43 l 1
 43 42 l 1
 44 42 l 1
 44 41 l 1
45 42 m 1
 44 42 l 1
 44 43 l 1
 46 43 l 1
 46 41 l 1
 45 41 l 1
 45 42 l 1
49 37 m 1
 47 37 l 1
 47 39 l 1
 49 39 l 1
 49 37 l 1
49 41 m 1
 47 41 l 1
 47 43 l 1
 49 43 l 1
 49 41 l 1
55 41 m 1
 53 41 l 1
 53 43 l 1
 55 43 l 1
 55 41 l 1
58 41 m 1
 56 41 l 1
 56 43 l 1
 57 43 l 1
 57 42 l 1
 58 42 l 1
 58 41 l 1
59 42 m 1
 58 42 l 1
 58 43 l 1
 60 43 l 1
 60 41 l 1
 59 41 l 1
 59 42 l 1
63 37 m 1
 61 37 l 1
 61 39 l 1
 63 39 l 1
 63 37 l 1
63 41 m 1
 61 41 l 1
 61 43 l 1
 63 43 l 1
 63 41 l 1
EndSplineSet
Ligature2: "'liga' Standard Ligatures in Latin lookup 0-1" zero nine zero two nine
LCarets2: 1 0
EndChar

StartChar: custom_0_9_0_3_0
Encoding: 2986 -1 2741
Width: 70
Flags: H
LayerCount: 2
Fore
SplineSet
17 25 m 1
 15 25 l 1
 15 27 l 1
 17 27 l 1
 17 25 l 1
17 29 m 1
 15 29 l 1
 15 31 l 1
 17 31 l 1
 17 29 l 1
17 33 m 1
 15 33 l 1
 15 35 l 1
 17 35 l 1
 17 33 l 1
23 25 m 1
 21 25 l 1
 21 27 l 1
 23 27 l 1
 23 25 l 1
26 25 m 1
 24 25 l 1
 24 27 l 1
 25 27 l 1
 25 26 l 1
 26 26 l 1
 26 25 l 1
27 26 m 1
 26 26 l 1
 26 27 l 1
 28 27 l 1
 28 25 l 1
 27 25 l 1
 27 26 l 1
31 25 m 1
 29 25 l 1
 29 27 l 1
 31 27 l 1
 31 25 l 1
23 33 m 1
 21 33 l 1
 21 35 l 1
 23 35 l 1
 23 33 l 1
25 33 m 1
 24 33 l 1
 24 35 l 1
 26 35 l 1
 26 34 l 1
 25 34 l 1
 25 33 l 1
28 33 m 1
 26 33 l 1
 26 34 l 1
 27 34 l 1
 27 35 l 1
 28 35 l 1
 28 33 l 1
31 29 m 1
 29 29 l 1
 29 31 l 1
 31 31 l 1
 31 29 l 1
36 31 m 1
 34 31 l 1
 34 33 l 1
 36 33 l 1
 36 31 l 1
31 33 m 1
 29 33 l 1
 29 35 l 1
 31 35 l 1
 31 33 l 1
36 35 m 1
 34 35 l 1
 34 37 l 1
 36 37 l 1
 36 35 l 1
41 25 m 1
 39 25 l 1
 39 27 l 1
 41 27 l 1
 41 25 l 1
44 25 m 1
 42 25 l 1
 42 27 l 1
 43 27 l 1
 43 26 l 1
 44 26 l 1
 44 25 l 1
45 26 m 1
 44 26 l 1
 44 27 l 1
 46 27 l 1
 46 25 l 1
 45 25 l 1
 45 26 l 1
49 25 m 1
 47 25 l 1
 47 27 l 1
 49 27 l 1
 49 25 l 1
41 29 m 1
 39 29 l 1
 39 31 l 1
 41 31 l 1
 41 29 l 1
41 33 m 1
 39 33 l 1
 39 35 l 1
 41 35 l 1
 41 33 l 1
49 29 m 1
 47 29 l 1
 47 31 l 1
 49 31 l 1
 49 29 l 1
49 33 m 1
 47 33 l 1
 47 35 l 1
 49 35 l 1
 49 33 l 1
55 25 m 1
 53 25 l 1
 53 27 l 1
 55 27 l 1
 55 25 l 1
58 25 m 1
 56 25 l 1
 56 27 l 1
 57 27 l 1
 57 26 l 1
 58 26 l 1
 58 25 l 1
59 26 m 1
 58 26 l 1
 58 27 l 1
 60 27 l 1
 60 25 l 1
 59 25 l 1
 59 26 l 1
63 25 m 1
 61 25 l 1
 61 27 l 1
 63 27 l 1
 63 25 l 1
55 29 m 1
 53 29 l 1
 53 31 l 1
 55 31 l 1
 55 29 l 1
55 33 m 1
 53 33 l 1
 53 35 l 1
 55 35 l 1
 55 33 l 1
57 33 m 1
 56 33 l 1
 56 35 l 1
 58 35 l 1
 58 34 l 1
 57 34 l 1
 57 33 l 1
60 33 m 1
 58 33 l 1
 58 34 l 1
 59 34 l 1
 59 35 l 1
 60 35 l 1
 60 33 l 1
63 29 m 1
 61 29 l 1
 61 31 l 1
 63 31 l 1
 63 29 l 1
63 33 m 1
 61 33 l 1
 61 35 l 1
 63 35 l 1
 63 33 l 1
17 37 m 1
 15 37 l 1
 15 39 l 1
 17 39 l 1
 17 37 l 1
17 41 m 1
 15 41 l 1
 15 43 l 1
 17 43 l 1
 17 41 l 1
23 37 m 1
 21 37 l 1
 21 39 l 1
 23 39 l 1
 23 37 l 1
23 41 m 1
 21 41 l 1
 21 43 l 1
 23 43 l 1
 23 41 l 1
26 41 m 1
 24 41 l 1
 24 43 l 1
 25 43 l 1
 25 42 l 1
 26 42 l 1
 26 41 l 1
27 42 m 1
 26 42 l 1
 26 43 l 1
 28 43 l 1
 28 41 l 1
 27 41 l 1
 27 42 l 1
31 41 m 1
 29 41 l 1
 29 43 l 1
 31 43 l 1
 31 41 l 1
41 37 m 1
 39 37 l 1
 39 39 l 1
 41 39 l 1
 41 37 l 1
41 41 m 1
 39 41 l 1
 39 43 l 1
 41 43 l 1
 41 41 l 1
44 41 m 1
 42 41 l 1
 42 43 l 1
 43 43 l 1
 43 42 l 1
 44 42 l 1
 44 41 l 1
45 42 m 1
 44 42 l 1
 44 43 l 1
 46 43 l 1
 46 41 l 1
 45 41 l 1
 45 42 l 1
49 37 m 1
 47 37 l 1
 47 39 l 1
 49 39 l 1
 49 37 l 1
49 41 m 1
 47 41 l 1
 47 43 l 1
 49 43 l 1
 49 41 l 1
55 41 m 1
 53 41 l 1
 53 43 l 1
 55 43 l 1
 55 41 l 1
58 41 m 1
 56 41 l 1
 56 43 l 1
 57 43 l 1
 57 42 l 1
 58 42 l 1
 58 41 l 1
59 42 m 1
 58 42 l 1
 58 43 l 1
 60 43 l 1
 60 41 l 1
 59 41 l 1
 59 42 l 1
63 37 m 1
 61 37 l 1
 61 39 l 1
 63 39 l 1
 63 37 l 1
63 41 m 1
 61 41 l 1
 61 43 l 1
 63 43 l 1
 63 41 l 1
EndSplineSet
Ligature2: "'liga' Standard Ligatures in Latin lookup 0-1" zero nine zero three zero
LCarets2: 1 0
EndChar

StartChar: custom_0_9_0_3_1
Encoding: 2987 -1 2742
Width: 70
Flags: H
LayerCount: 2
Fore
SplineSet
17 25 m 1
 15 25 l 1
 15 27 l 1
 17 27 l 1
 17 25 l 1
17 29 m 1
 15 29 l 1
 15 31 l 1
 17 31 l 1
 17 29 l 1
17 33 m 1
 15 33 l 1
 15 35 l 1
 17 35 l 1
 17 33 l 1
23 25 m 1
 21 25 l 1
 21 27 l 1
 23 27 l 1
 23 25 l 1
26 25 m 1
 24 25 l 1
 24 27 l 1
 25 27 l 1
 25 26 l 1
 26 26 l 1
 26 25 l 1
27 26 m 1
 26 26 l 1
 26 27 l 1
 28 27 l 1
 28 25 l 1
 27 25 l 1
 27 26 l 1
31 25 m 1
 29 25 l 1
 29 27 l 1
 31 27 l 1
 31 25 l 1
23 33 m 1
 21 33 l 1
 21 35 l 1
 23 35 l 1
 23 33 l 1
25 33 m 1
 24 33 l 1
 24 35 l 1
 26 35 l 1
 26 34 l 1
 25 34 l 1
 25 33 l 1
28 33 m 1
 26 33 l 1
 26 34 l 1
 27 34 l 1
 27 35 l 1
 28 35 l 1
 28 33 l 1
31 29 m 1
 29 29 l 1
 29 31 l 1
 31 31 l 1
 31 29 l 1
36 31 m 1
 34 31 l 1
 34 33 l 1
 36 33 l 1
 36 31 l 1
31 33 m 1
 29 33 l 1
 29 35 l 1
 31 35 l 1
 31 33 l 1
36 35 m 1
 34 35 l 1
 34 37 l 1
 36 37 l 1
 36 35 l 1
41 25 m 1
 39 25 l 1
 39 27 l 1
 41 27 l 1
 41 25 l 1
44 25 m 1
 42 25 l 1
 42 27 l 1
 43 27 l 1
 43 26 l 1
 44 26 l 1
 44 25 l 1
45 26 m 1
 44 26 l 1
 44 27 l 1
 46 27 l 1
 46 25 l 1
 45 25 l 1
 45 26 l 1
49 25 m 1
 47 25 l 1
 47 27 l 1
 49 27 l 1
 49 25 l 1
41 29 m 1
 39 29 l 1
 39 31 l 1
 41 31 l 1
 41 29 l 1
41 33 m 1
 39 33 l 1
 39 35 l 1
 41 35 l 1
 41 33 l 1
49 29 m 1
 47 29 l 1
 47 31 l 1
 49 31 l 1
 49 29 l 1
49 33 m 1
 47 33 l 1
 47 35 l 1
 49 35 l 1
 49 33 l 1
55 25 m 1
 53 25 l 1
 53 27 l 1
 55 27 l 1
 55 25 l 1
58 25 m 1
 56 25 l 1
 56 27 l 1
 57 27 l 1
 57 26 l 1
 58 26 l 1
 58 25 l 1
59 26 m 1
 58 26 l 1
 58 27 l 1
 60 27 l 1
 60 25 l 1
 59 25 l 1
 59 26 l 1
63 25 m 1
 61 25 l 1
 61 27 l 1
 63 27 l 1
 63 25 l 1
55 29 m 1
 53 29 l 1
 53 31 l 1
 55 31 l 1
 55 29 l 1
55 33 m 1
 53 33 l 1
 53 35 l 1
 55 35 l 1
 55 33 l 1
57 33 m 1
 56 33 l 1
 56 35 l 1
 58 35 l 1
 58 34 l 1
 57 34 l 1
 57 33 l 1
60 33 m 1
 58 33 l 1
 58 34 l 1
 59 34 l 1
 59 35 l 1
 60 35 l 1
 60 33 l 1
63 29 m 1
 61 29 l 1
 61 31 l 1
 63 31 l 1
 63 29 l 1
63 33 m 1
 61 33 l 1
 61 35 l 1
 63 35 l 1
 63 33 l 1
17 37 m 1
 15 37 l 1
 15 39 l 1
 17 39 l 1
 17 37 l 1
17 41 m 1
 15 41 l 1
 15 43 l 1
 17 43 l 1
 17 41 l 1
23 37 m 1
 21 37 l 1
 21 39 l 1
 23 39 l 1
 23 37 l 1
23 41 m 1
 21 41 l 1
 21 43 l 1
 23 43 l 1
 23 41 l 1
26 41 m 1
 24 41 l 1
 24 43 l 1
 25 43 l 1
 25 42 l 1
 26 42 l 1
 26 41 l 1
27 42 m 1
 26 42 l 1
 26 43 l 1
 28 43 l 1
 28 41 l 1
 27 41 l 1
 27 42 l 1
31 41 m 1
 29 41 l 1
 29 43 l 1
 31 43 l 1
 31 41 l 1
41 37 m 1
 39 37 l 1
 39 39 l 1
 41 39 l 1
 41 37 l 1
41 41 m 1
 39 41 l 1
 39 43 l 1
 41 43 l 1
 41 41 l 1
44 41 m 1
 42 41 l 1
 42 43 l 1
 43 43 l 1
 43 42 l 1
 44 42 l 1
 44 41 l 1
45 42 m 1
 44 42 l 1
 44 43 l 1
 46 43 l 1
 46 41 l 1
 45 41 l 1
 45 42 l 1
49 37 m 1
 47 37 l 1
 47 39 l 1
 49 39 l 1
 49 37 l 1
49 41 m 1
 47 41 l 1
 47 43 l 1
 49 43 l 1
 49 41 l 1
55 41 m 1
 53 41 l 1
 53 43 l 1
 55 43 l 1
 55 41 l 1
58 41 m 1
 56 41 l 1
 56 43 l 1
 57 43 l 1
 57 42 l 1
 58 42 l 1
 58 41 l 1
59 42 m 1
 58 42 l 1
 58 43 l 1
 60 43 l 1
 60 41 l 1
 59 41 l 1
 59 42 l 1
63 37 m 1
 61 37 l 1
 61 39 l 1
 63 39 l 1
 63 37 l 1
63 41 m 1
 61 41 l 1
 61 43 l 1
 63 43 l 1
 63 41 l 1
EndSplineSet
Ligature2: "'liga' Standard Ligatures in Latin lookup 0-1" zero nine zero three one
LCarets2: 1 0
EndChar

StartChar: custom_0_9_0_3_2
Encoding: 2988 -1 2743
Width: 70
Flags: H
LayerCount: 2
Fore
SplineSet
17 25 m 1
 15 25 l 1
 15 27 l 1
 17 27 l 1
 17 25 l 1
17 29 m 1
 15 29 l 1
 15 31 l 1
 17 31 l 1
 17 29 l 1
17 33 m 1
 15 33 l 1
 15 35 l 1
 17 35 l 1
 17 33 l 1
23 25 m 1
 21 25 l 1
 21 27 l 1
 23 27 l 1
 23 25 l 1
26 25 m 1
 24 25 l 1
 24 27 l 1
 25 27 l 1
 25 26 l 1
 26 26 l 1
 26 25 l 1
27 26 m 1
 26 26 l 1
 26 27 l 1
 28 27 l 1
 28 25 l 1
 27 25 l 1
 27 26 l 1
31 25 m 1
 29 25 l 1
 29 27 l 1
 31 27 l 1
 31 25 l 1
23 33 m 1
 21 33 l 1
 21 35 l 1
 23 35 l 1
 23 33 l 1
25 33 m 1
 24 33 l 1
 24 35 l 1
 26 35 l 1
 26 34 l 1
 25 34 l 1
 25 33 l 1
28 33 m 1
 26 33 l 1
 26 34 l 1
 27 34 l 1
 27 35 l 1
 28 35 l 1
 28 33 l 1
31 29 m 1
 29 29 l 1
 29 31 l 1
 31 31 l 1
 31 29 l 1
36 31 m 1
 34 31 l 1
 34 33 l 1
 36 33 l 1
 36 31 l 1
31 33 m 1
 29 33 l 1
 29 35 l 1
 31 35 l 1
 31 33 l 1
36 35 m 1
 34 35 l 1
 34 37 l 1
 36 37 l 1
 36 35 l 1
41 25 m 1
 39 25 l 1
 39 27 l 1
 41 27 l 1
 41 25 l 1
44 25 m 1
 42 25 l 1
 42 27 l 1
 43 27 l 1
 43 26 l 1
 44 26 l 1
 44 25 l 1
45 26 m 1
 44 26 l 1
 44 27 l 1
 46 27 l 1
 46 25 l 1
 45 25 l 1
 45 26 l 1
49 25 m 1
 47 25 l 1
 47 27 l 1
 49 27 l 1
 49 25 l 1
41 29 m 1
 39 29 l 1
 39 31 l 1
 41 31 l 1
 41 29 l 1
41 33 m 1
 39 33 l 1
 39 35 l 1
 41 35 l 1
 41 33 l 1
49 29 m 1
 47 29 l 1
 47 31 l 1
 49 31 l 1
 49 29 l 1
49 33 m 1
 47 33 l 1
 47 35 l 1
 49 35 l 1
 49 33 l 1
55 25 m 1
 53 25 l 1
 53 27 l 1
 55 27 l 1
 55 25 l 1
58 25 m 1
 56 25 l 1
 56 27 l 1
 57 27 l 1
 57 26 l 1
 58 26 l 1
 58 25 l 1
59 26 m 1
 58 26 l 1
 58 27 l 1
 60 27 l 1
 60 25 l 1
 59 25 l 1
 59 26 l 1
63 25 m 1
 61 25 l 1
 61 27 l 1
 63 27 l 1
 63 25 l 1
55 29 m 1
 53 29 l 1
 53 31 l 1
 55 31 l 1
 55 29 l 1
55 33 m 1
 53 33 l 1
 53 35 l 1
 55 35 l 1
 55 33 l 1
57 33 m 1
 56 33 l 1
 56 35 l 1
 58 35 l 1
 58 34 l 1
 57 34 l 1
 57 33 l 1
60 33 m 1
 58 33 l 1
 58 34 l 1
 59 34 l 1
 59 35 l 1
 60 35 l 1
 60 33 l 1
63 29 m 1
 61 29 l 1
 61 31 l 1
 63 31 l 1
 63 29 l 1
63 33 m 1
 61 33 l 1
 61 35 l 1
 63 35 l 1
 63 33 l 1
17 37 m 1
 15 37 l 1
 15 39 l 1
 17 39 l 1
 17 37 l 1
17 41 m 1
 15 41 l 1
 15 43 l 1
 17 43 l 1
 17 41 l 1
23 37 m 1
 21 37 l 1
 21 39 l 1
 23 39 l 1
 23 37 l 1
23 41 m 1
 21 41 l 1
 21 43 l 1
 23 43 l 1
 23 41 l 1
26 41 m 1
 24 41 l 1
 24 43 l 1
 25 43 l 1
 25 42 l 1
 26 42 l 1
 26 41 l 1
27 42 m 1
 26 42 l 1
 26 43 l 1
 28 43 l 1
 28 41 l 1
 27 41 l 1
 27 42 l 1
31 41 m 1
 29 41 l 1
 29 43 l 1
 31 43 l 1
 31 41 l 1
41 37 m 1
 39 37 l 1
 39 39 l 1
 41 39 l 1
 41 37 l 1
41 41 m 1
 39 41 l 1
 39 43 l 1
 41 43 l 1
 41 41 l 1
44 41 m 1
 42 41 l 1
 42 43 l 1
 43 43 l 1
 43 42 l 1
 44 42 l 1
 44 41 l 1
45 42 m 1
 44 42 l 1
 44 43 l 1
 46 43 l 1
 46 41 l 1
 45 41 l 1
 45 42 l 1
49 37 m 1
 47 37 l 1
 47 39 l 1
 49 39 l 1
 49 37 l 1
49 41 m 1
 47 41 l 1
 47 43 l 1
 49 43 l 1
 49 41 l 1
55 41 m 1
 53 41 l 1
 53 43 l 1
 55 43 l 1
 55 41 l 1
58 41 m 1
 56 41 l 1
 56 43 l 1
 57 43 l 1
 57 42 l 1
 58 42 l 1
 58 41 l 1
59 42 m 1
 58 42 l 1
 58 43 l 1
 60 43 l 1
 60 41 l 1
 59 41 l 1
 59 42 l 1
63 37 m 1
 61 37 l 1
 61 39 l 1
 63 39 l 1
 63 37 l 1
63 41 m 1
 61 41 l 1
 61 43 l 1
 63 43 l 1
 63 41 l 1
EndSplineSet
Ligature2: "'liga' Standard Ligatures in Latin lookup 0-1" zero nine zero three two
LCarets2: 1 0
EndChar

StartChar: custom_0_9_0_3_3
Encoding: 2989 -1 2744
Width: 70
Flags: H
LayerCount: 2
Fore
SplineSet
17 25 m 1
 15 25 l 1
 15 27 l 1
 17 27 l 1
 17 25 l 1
17 29 m 1
 15 29 l 1
 15 31 l 1
 17 31 l 1
 17 29 l 1
17 33 m 1
 15 33 l 1
 15 35 l 1
 17 35 l 1
 17 33 l 1
23 25 m 1
 21 25 l 1
 21 27 l 1
 23 27 l 1
 23 25 l 1
26 25 m 1
 24 25 l 1
 24 27 l 1
 25 27 l 1
 25 26 l 1
 26 26 l 1
 26 25 l 1
27 26 m 1
 26 26 l 1
 26 27 l 1
 28 27 l 1
 28 25 l 1
 27 25 l 1
 27 26 l 1
31 25 m 1
 29 25 l 1
 29 27 l 1
 31 27 l 1
 31 25 l 1
23 33 m 1
 21 33 l 1
 21 35 l 1
 23 35 l 1
 23 33 l 1
25 33 m 1
 24 33 l 1
 24 35 l 1
 26 35 l 1
 26 34 l 1
 25 34 l 1
 25 33 l 1
28 33 m 1
 26 33 l 1
 26 34 l 1
 27 34 l 1
 27 35 l 1
 28 35 l 1
 28 33 l 1
31 29 m 1
 29 29 l 1
 29 31 l 1
 31 31 l 1
 31 29 l 1
36 31 m 1
 34 31 l 1
 34 33 l 1
 36 33 l 1
 36 31 l 1
31 33 m 1
 29 33 l 1
 29 35 l 1
 31 35 l 1
 31 33 l 1
36 35 m 1
 34 35 l 1
 34 37 l 1
 36 37 l 1
 36 35 l 1
41 25 m 1
 39 25 l 1
 39 27 l 1
 41 27 l 1
 41 25 l 1
44 25 m 1
 42 25 l 1
 42 27 l 1
 43 27 l 1
 43 26 l 1
 44 26 l 1
 44 25 l 1
45 26 m 1
 44 26 l 1
 44 27 l 1
 46 27 l 1
 46 25 l 1
 45 25 l 1
 45 26 l 1
49 25 m 1
 47 25 l 1
 47 27 l 1
 49 27 l 1
 49 25 l 1
41 29 m 1
 39 29 l 1
 39 31 l 1
 41 31 l 1
 41 29 l 1
41 33 m 1
 39 33 l 1
 39 35 l 1
 41 35 l 1
 41 33 l 1
49 29 m 1
 47 29 l 1
 47 31 l 1
 49 31 l 1
 49 29 l 1
49 33 m 1
 47 33 l 1
 47 35 l 1
 49 35 l 1
 49 33 l 1
55 25 m 1
 53 25 l 1
 53 27 l 1
 55 27 l 1
 55 25 l 1
58 25 m 1
 56 25 l 1
 56 27 l 1
 57 27 l 1
 57 26 l 1
 58 26 l 1
 58 25 l 1
59 26 m 1
 58 26 l 1
 58 27 l 1
 60 27 l 1
 60 25 l 1
 59 25 l 1
 59 26 l 1
63 25 m 1
 61 25 l 1
 61 27 l 1
 63 27 l 1
 63 25 l 1
55 29 m 1
 53 29 l 1
 53 31 l 1
 55 31 l 1
 55 29 l 1
55 33 m 1
 53 33 l 1
 53 35 l 1
 55 35 l 1
 55 33 l 1
57 33 m 1
 56 33 l 1
 56 35 l 1
 58 35 l 1
 58 34 l 1
 57 34 l 1
 57 33 l 1
60 33 m 1
 58 33 l 1
 58 34 l 1
 59 34 l 1
 59 35 l 1
 60 35 l 1
 60 33 l 1
63 29 m 1
 61 29 l 1
 61 31 l 1
 63 31 l 1
 63 29 l 1
63 33 m 1
 61 33 l 1
 61 35 l 1
 63 35 l 1
 63 33 l 1
17 37 m 1
 15 37 l 1
 15 39 l 1
 17 39 l 1
 17 37 l 1
17 41 m 1
 15 41 l 1
 15 43 l 1
 17 43 l 1
 17 41 l 1
23 37 m 1
 21 37 l 1
 21 39 l 1
 23 39 l 1
 23 37 l 1
23 41 m 1
 21 41 l 1
 21 43 l 1
 23 43 l 1
 23 41 l 1
26 41 m 1
 24 41 l 1
 24 43 l 1
 25 43 l 1
 25 42 l 1
 26 42 l 1
 26 41 l 1
27 42 m 1
 26 42 l 1
 26 43 l 1
 28 43 l 1
 28 41 l 1
 27 41 l 1
 27 42 l 1
31 41 m 1
 29 41 l 1
 29 43 l 1
 31 43 l 1
 31 41 l 1
41 37 m 1
 39 37 l 1
 39 39 l 1
 41 39 l 1
 41 37 l 1
41 41 m 1
 39 41 l 1
 39 43 l 1
 41 43 l 1
 41 41 l 1
44 41 m 1
 42 41 l 1
 42 43 l 1
 43 43 l 1
 43 42 l 1
 44 42 l 1
 44 41 l 1
45 42 m 1
 44 42 l 1
 44 43 l 1
 46 43 l 1
 46 41 l 1
 45 41 l 1
 45 42 l 1
49 37 m 1
 47 37 l 1
 47 39 l 1
 49 39 l 1
 49 37 l 1
49 41 m 1
 47 41 l 1
 47 43 l 1
 49 43 l 1
 49 41 l 1
55 41 m 1
 53 41 l 1
 53 43 l 1
 55 43 l 1
 55 41 l 1
58 41 m 1
 56 41 l 1
 56 43 l 1
 57 43 l 1
 57 42 l 1
 58 42 l 1
 58 41 l 1
59 42 m 1
 58 42 l 1
 58 43 l 1
 60 43 l 1
 60 41 l 1
 59 41 l 1
 59 42 l 1
63 37 m 1
 61 37 l 1
 61 39 l 1
 63 39 l 1
 63 37 l 1
63 41 m 1
 61 41 l 1
 61 43 l 1
 63 43 l 1
 63 41 l 1
EndSplineSet
Ligature2: "'liga' Standard Ligatures in Latin lookup 0-1" zero nine zero three three
LCarets2: 1 0
EndChar

StartChar: custom_0_9_0_3_4
Encoding: 2990 -1 2745
Width: 70
Flags: H
LayerCount: 2
Fore
SplineSet
17 25 m 1
 15 25 l 1
 15 27 l 1
 17 27 l 1
 17 25 l 1
17 29 m 1
 15 29 l 1
 15 31 l 1
 17 31 l 1
 17 29 l 1
17 33 m 1
 15 33 l 1
 15 35 l 1
 17 35 l 1
 17 33 l 1
23 25 m 1
 21 25 l 1
 21 27 l 1
 23 27 l 1
 23 25 l 1
26 25 m 1
 24 25 l 1
 24 27 l 1
 25 27 l 1
 25 26 l 1
 26 26 l 1
 26 25 l 1
27 26 m 1
 26 26 l 1
 26 27 l 1
 28 27 l 1
 28 25 l 1
 27 25 l 1
 27 26 l 1
31 25 m 1
 29 25 l 1
 29 27 l 1
 31 27 l 1
 31 25 l 1
23 33 m 1
 21 33 l 1
 21 35 l 1
 23 35 l 1
 23 33 l 1
25 33 m 1
 24 33 l 1
 24 35 l 1
 26 35 l 1
 26 34 l 1
 25 34 l 1
 25 33 l 1
28 33 m 1
 26 33 l 1
 26 34 l 1
 27 34 l 1
 27 35 l 1
 28 35 l 1
 28 33 l 1
31 29 m 1
 29 29 l 1
 29 31 l 1
 31 31 l 1
 31 29 l 1
36 31 m 1
 34 31 l 1
 34 33 l 1
 36 33 l 1
 36 31 l 1
31 33 m 1
 29 33 l 1
 29 35 l 1
 31 35 l 1
 31 33 l 1
36 35 m 1
 34 35 l 1
 34 37 l 1
 36 37 l 1
 36 35 l 1
41 25 m 1
 39 25 l 1
 39 27 l 1
 41 27 l 1
 41 25 l 1
44 25 m 1
 42 25 l 1
 42 27 l 1
 43 27 l 1
 43 26 l 1
 44 26 l 1
 44 25 l 1
45 26 m 1
 44 26 l 1
 44 27 l 1
 46 27 l 1
 46 25 l 1
 45 25 l 1
 45 26 l 1
49 25 m 1
 47 25 l 1
 47 27 l 1
 49 27 l 1
 49 25 l 1
41 29 m 1
 39 29 l 1
 39 31 l 1
 41 31 l 1
 41 29 l 1
41 33 m 1
 39 33 l 1
 39 35 l 1
 41 35 l 1
 41 33 l 1
49 29 m 1
 47 29 l 1
 47 31 l 1
 49 31 l 1
 49 29 l 1
49 33 m 1
 47 33 l 1
 47 35 l 1
 49 35 l 1
 49 33 l 1
55 25 m 1
 53 25 l 1
 53 27 l 1
 55 27 l 1
 55 25 l 1
58 25 m 1
 56 25 l 1
 56 27 l 1
 57 27 l 1
 57 26 l 1
 58 26 l 1
 58 25 l 1
59 26 m 1
 58 26 l 1
 58 27 l 1
 60 27 l 1
 60 25 l 1
 59 25 l 1
 59 26 l 1
63 25 m 1
 61 25 l 1
 61 27 l 1
 63 27 l 1
 63 25 l 1
55 29 m 1
 53 29 l 1
 53 31 l 1
 55 31 l 1
 55 29 l 1
55 33 m 1
 53 33 l 1
 53 35 l 1
 55 35 l 1
 55 33 l 1
57 33 m 1
 56 33 l 1
 56 35 l 1
 58 35 l 1
 58 34 l 1
 57 34 l 1
 57 33 l 1
60 33 m 1
 58 33 l 1
 58 34 l 1
 59 34 l 1
 59 35 l 1
 60 35 l 1
 60 33 l 1
63 29 m 1
 61 29 l 1
 61 31 l 1
 63 31 l 1
 63 29 l 1
63 33 m 1
 61 33 l 1
 61 35 l 1
 63 35 l 1
 63 33 l 1
17 37 m 1
 15 37 l 1
 15 39 l 1
 17 39 l 1
 17 37 l 1
17 41 m 1
 15 41 l 1
 15 43 l 1
 17 43 l 1
 17 41 l 1
23 37 m 1
 21 37 l 1
 21 39 l 1
 23 39 l 1
 23 37 l 1
23 41 m 1
 21 41 l 1
 21 43 l 1
 23 43 l 1
 23 41 l 1
26 41 m 1
 24 41 l 1
 24 43 l 1
 25 43 l 1
 25 42 l 1
 26 42 l 1
 26 41 l 1
27 42 m 1
 26 42 l 1
 26 43 l 1
 28 43 l 1
 28 41 l 1
 27 41 l 1
 27 42 l 1
31 41 m 1
 29 41 l 1
 29 43 l 1
 31 43 l 1
 31 41 l 1
41 37 m 1
 39 37 l 1
 39 39 l 1
 41 39 l 1
 41 37 l 1
41 41 m 1
 39 41 l 1
 39 43 l 1
 41 43 l 1
 41 41 l 1
44 41 m 1
 42 41 l 1
 42 43 l 1
 43 43 l 1
 43 42 l 1
 44 42 l 1
 44 41 l 1
45 42 m 1
 44 42 l 1
 44 43 l 1
 46 43 l 1
 46 41 l 1
 45 41 l 1
 45 42 l 1
49 37 m 1
 47 37 l 1
 47 39 l 1
 49 39 l 1
 49 37 l 1
49 41 m 1
 47 41 l 1
 47 43 l 1
 49 43 l 1
 49 41 l 1
55 41 m 1
 53 41 l 1
 53 43 l 1
 55 43 l 1
 55 41 l 1
58 41 m 1
 56 41 l 1
 56 43 l 1
 57 43 l 1
 57 42 l 1
 58 42 l 1
 58 41 l 1
59 42 m 1
 58 42 l 1
 58 43 l 1
 60 43 l 1
 60 41 l 1
 59 41 l 1
 59 42 l 1
63 37 m 1
 61 37 l 1
 61 39 l 1
 63 39 l 1
 63 37 l 1
63 41 m 1
 61 41 l 1
 61 43 l 1
 63 43 l 1
 63 41 l 1
EndSplineSet
Ligature2: "'liga' Standard Ligatures in Latin lookup 0-1" zero nine zero three four
LCarets2: 1 0
EndChar

StartChar: custom_0_9_0_3_5
Encoding: 2991 -1 2746
Width: 70
Flags: H
LayerCount: 2
Fore
SplineSet
17 25 m 1
 15 25 l 1
 15 27 l 1
 17 27 l 1
 17 25 l 1
17 29 m 1
 15 29 l 1
 15 31 l 1
 17 31 l 1
 17 29 l 1
17 33 m 1
 15 33 l 1
 15 35 l 1
 17 35 l 1
 17 33 l 1
23 25 m 1
 21 25 l 1
 21 27 l 1
 23 27 l 1
 23 25 l 1
26 25 m 1
 24 25 l 1
 24 27 l 1
 25 27 l 1
 25 26 l 1
 26 26 l 1
 26 25 l 1
27 26 m 1
 26 26 l 1
 26 27 l 1
 28 27 l 1
 28 25 l 1
 27 25 l 1
 27 26 l 1
31 25 m 1
 29 25 l 1
 29 27 l 1
 31 27 l 1
 31 25 l 1
23 33 m 1
 21 33 l 1
 21 35 l 1
 23 35 l 1
 23 33 l 1
25 33 m 1
 24 33 l 1
 24 35 l 1
 26 35 l 1
 26 34 l 1
 25 34 l 1
 25 33 l 1
28 33 m 1
 26 33 l 1
 26 34 l 1
 27 34 l 1
 27 35 l 1
 28 35 l 1
 28 33 l 1
31 29 m 1
 29 29 l 1
 29 31 l 1
 31 31 l 1
 31 29 l 1
36 31 m 1
 34 31 l 1
 34 33 l 1
 36 33 l 1
 36 31 l 1
31 33 m 1
 29 33 l 1
 29 35 l 1
 31 35 l 1
 31 33 l 1
36 35 m 1
 34 35 l 1
 34 37 l 1
 36 37 l 1
 36 35 l 1
41 25 m 1
 39 25 l 1
 39 27 l 1
 41 27 l 1
 41 25 l 1
44 25 m 1
 42 25 l 1
 42 27 l 1
 43 27 l 1
 43 26 l 1
 44 26 l 1
 44 25 l 1
45 26 m 1
 44 26 l 1
 44 27 l 1
 46 27 l 1
 46 25 l 1
 45 25 l 1
 45 26 l 1
49 25 m 1
 47 25 l 1
 47 27 l 1
 49 27 l 1
 49 25 l 1
41 29 m 1
 39 29 l 1
 39 31 l 1
 41 31 l 1
 41 29 l 1
41 33 m 1
 39 33 l 1
 39 35 l 1
 41 35 l 1
 41 33 l 1
49 29 m 1
 47 29 l 1
 47 31 l 1
 49 31 l 1
 49 29 l 1
49 33 m 1
 47 33 l 1
 47 35 l 1
 49 35 l 1
 49 33 l 1
55 25 m 1
 53 25 l 1
 53 27 l 1
 55 27 l 1
 55 25 l 1
58 25 m 1
 56 25 l 1
 56 27 l 1
 57 27 l 1
 57 26 l 1
 58 26 l 1
 58 25 l 1
59 26 m 1
 58 26 l 1
 58 27 l 1
 60 27 l 1
 60 25 l 1
 59 25 l 1
 59 26 l 1
63 25 m 1
 61 25 l 1
 61 27 l 1
 63 27 l 1
 63 25 l 1
55 29 m 1
 53 29 l 1
 53 31 l 1
 55 31 l 1
 55 29 l 1
55 33 m 1
 53 33 l 1
 53 35 l 1
 55 35 l 1
 55 33 l 1
57 33 m 1
 56 33 l 1
 56 35 l 1
 58 35 l 1
 58 34 l 1
 57 34 l 1
 57 33 l 1
60 33 m 1
 58 33 l 1
 58 34 l 1
 59 34 l 1
 59 35 l 1
 60 35 l 1
 60 33 l 1
63 29 m 1
 61 29 l 1
 61 31 l 1
 63 31 l 1
 63 29 l 1
63 33 m 1
 61 33 l 1
 61 35 l 1
 63 35 l 1
 63 33 l 1
17 37 m 1
 15 37 l 1
 15 39 l 1
 17 39 l 1
 17 37 l 1
17 41 m 1
 15 41 l 1
 15 43 l 1
 17 43 l 1
 17 41 l 1
23 37 m 1
 21 37 l 1
 21 39 l 1
 23 39 l 1
 23 37 l 1
23 41 m 1
 21 41 l 1
 21 43 l 1
 23 43 l 1
 23 41 l 1
26 41 m 1
 24 41 l 1
 24 43 l 1
 25 43 l 1
 25 42 l 1
 26 42 l 1
 26 41 l 1
27 42 m 1
 26 42 l 1
 26 43 l 1
 28 43 l 1
 28 41 l 1
 27 41 l 1
 27 42 l 1
31 41 m 1
 29 41 l 1
 29 43 l 1
 31 43 l 1
 31 41 l 1
41 37 m 1
 39 37 l 1
 39 39 l 1
 41 39 l 1
 41 37 l 1
41 41 m 1
 39 41 l 1
 39 43 l 1
 41 43 l 1
 41 41 l 1
44 41 m 1
 42 41 l 1
 42 43 l 1
 43 43 l 1
 43 42 l 1
 44 42 l 1
 44 41 l 1
45 42 m 1
 44 42 l 1
 44 43 l 1
 46 43 l 1
 46 41 l 1
 45 41 l 1
 45 42 l 1
49 37 m 1
 47 37 l 1
 47 39 l 1
 49 39 l 1
 49 37 l 1
49 41 m 1
 47 41 l 1
 47 43 l 1
 49 43 l 1
 49 41 l 1
55 41 m 1
 53 41 l 1
 53 43 l 1
 55 43 l 1
 55 41 l 1
58 41 m 1
 56 41 l 1
 56 43 l 1
 57 43 l 1
 57 42 l 1
 58 42 l 1
 58 41 l 1
59 42 m 1
 58 42 l 1
 58 43 l 1
 60 43 l 1
 60 41 l 1
 59 41 l 1
 59 42 l 1
63 37 m 1
 61 37 l 1
 61 39 l 1
 63 39 l 1
 63 37 l 1
63 41 m 1
 61 41 l 1
 61 43 l 1
 63 43 l 1
 63 41 l 1
EndSplineSet
Ligature2: "'liga' Standard Ligatures in Latin lookup 0-1" zero nine zero three five
LCarets2: 1 0
EndChar

StartChar: custom_0_9_0_3_6
Encoding: 2992 -1 2747
Width: 70
Flags: H
LayerCount: 2
Fore
SplineSet
17 25 m 1
 15 25 l 1
 15 27 l 1
 17 27 l 1
 17 25 l 1
17 29 m 1
 15 29 l 1
 15 31 l 1
 17 31 l 1
 17 29 l 1
17 33 m 1
 15 33 l 1
 15 35 l 1
 17 35 l 1
 17 33 l 1
23 25 m 1
 21 25 l 1
 21 27 l 1
 23 27 l 1
 23 25 l 1
26 25 m 1
 24 25 l 1
 24 27 l 1
 25 27 l 1
 25 26 l 1
 26 26 l 1
 26 25 l 1
27 26 m 1
 26 26 l 1
 26 27 l 1
 28 27 l 1
 28 25 l 1
 27 25 l 1
 27 26 l 1
31 25 m 1
 29 25 l 1
 29 27 l 1
 31 27 l 1
 31 25 l 1
23 33 m 1
 21 33 l 1
 21 35 l 1
 23 35 l 1
 23 33 l 1
25 33 m 1
 24 33 l 1
 24 35 l 1
 26 35 l 1
 26 34 l 1
 25 34 l 1
 25 33 l 1
28 33 m 1
 26 33 l 1
 26 34 l 1
 27 34 l 1
 27 35 l 1
 28 35 l 1
 28 33 l 1
31 29 m 1
 29 29 l 1
 29 31 l 1
 31 31 l 1
 31 29 l 1
36 31 m 1
 34 31 l 1
 34 33 l 1
 36 33 l 1
 36 31 l 1
31 33 m 1
 29 33 l 1
 29 35 l 1
 31 35 l 1
 31 33 l 1
36 35 m 1
 34 35 l 1
 34 37 l 1
 36 37 l 1
 36 35 l 1
41 25 m 1
 39 25 l 1
 39 27 l 1
 41 27 l 1
 41 25 l 1
44 25 m 1
 42 25 l 1
 42 27 l 1
 43 27 l 1
 43 26 l 1
 44 26 l 1
 44 25 l 1
45 26 m 1
 44 26 l 1
 44 27 l 1
 46 27 l 1
 46 25 l 1
 45 25 l 1
 45 26 l 1
49 25 m 1
 47 25 l 1
 47 27 l 1
 49 27 l 1
 49 25 l 1
41 29 m 1
 39 29 l 1
 39 31 l 1
 41 31 l 1
 41 29 l 1
41 33 m 1
 39 33 l 1
 39 35 l 1
 41 35 l 1
 41 33 l 1
49 29 m 1
 47 29 l 1
 47 31 l 1
 49 31 l 1
 49 29 l 1
49 33 m 1
 47 33 l 1
 47 35 l 1
 49 35 l 1
 49 33 l 1
55 25 m 1
 53 25 l 1
 53 27 l 1
 55 27 l 1
 55 25 l 1
58 25 m 1
 56 25 l 1
 56 27 l 1
 57 27 l 1
 57 26 l 1
 58 26 l 1
 58 25 l 1
59 26 m 1
 58 26 l 1
 58 27 l 1
 60 27 l 1
 60 25 l 1
 59 25 l 1
 59 26 l 1
63 25 m 1
 61 25 l 1
 61 27 l 1
 63 27 l 1
 63 25 l 1
55 29 m 1
 53 29 l 1
 53 31 l 1
 55 31 l 1
 55 29 l 1
55 33 m 1
 53 33 l 1
 53 35 l 1
 55 35 l 1
 55 33 l 1
57 33 m 1
 56 33 l 1
 56 35 l 1
 58 35 l 1
 58 34 l 1
 57 34 l 1
 57 33 l 1
60 33 m 1
 58 33 l 1
 58 34 l 1
 59 34 l 1
 59 35 l 1
 60 35 l 1
 60 33 l 1
63 29 m 1
 61 29 l 1
 61 31 l 1
 63 31 l 1
 63 29 l 1
63 33 m 1
 61 33 l 1
 61 35 l 1
 63 35 l 1
 63 33 l 1
17 37 m 1
 15 37 l 1
 15 39 l 1
 17 39 l 1
 17 37 l 1
17 41 m 1
 15 41 l 1
 15 43 l 1
 17 43 l 1
 17 41 l 1
23 37 m 1
 21 37 l 1
 21 39 l 1
 23 39 l 1
 23 37 l 1
23 41 m 1
 21 41 l 1
 21 43 l 1
 23 43 l 1
 23 41 l 1
26 41 m 1
 24 41 l 1
 24 43 l 1
 25 43 l 1
 25 42 l 1
 26 42 l 1
 26 41 l 1
27 42 m 1
 26 42 l 1
 26 43 l 1
 28 43 l 1
 28 41 l 1
 27 41 l 1
 27 42 l 1
31 41 m 1
 29 41 l 1
 29 43 l 1
 31 43 l 1
 31 41 l 1
41 37 m 1
 39 37 l 1
 39 39 l 1
 41 39 l 1
 41 37 l 1
41 41 m 1
 39 41 l 1
 39 43 l 1
 41 43 l 1
 41 41 l 1
44 41 m 1
 42 41 l 1
 42 43 l 1
 43 43 l 1
 43 42 l 1
 44 42 l 1
 44 41 l 1
45 42 m 1
 44 42 l 1
 44 43 l 1
 46 43 l 1
 46 41 l 1
 45 41 l 1
 45 42 l 1
49 37 m 1
 47 37 l 1
 47 39 l 1
 49 39 l 1
 49 37 l 1
49 41 m 1
 47 41 l 1
 47 43 l 1
 49 43 l 1
 49 41 l 1
55 41 m 1
 53 41 l 1
 53 43 l 1
 55 43 l 1
 55 41 l 1
58 41 m 1
 56 41 l 1
 56 43 l 1
 57 43 l 1
 57 42 l 1
 58 42 l 1
 58 41 l 1
59 42 m 1
 58 42 l 1
 58 43 l 1
 60 43 l 1
 60 41 l 1
 59 41 l 1
 59 42 l 1
63 37 m 1
 61 37 l 1
 61 39 l 1
 63 39 l 1
 63 37 l 1
63 41 m 1
 61 41 l 1
 61 43 l 1
 63 43 l 1
 63 41 l 1
EndSplineSet
Ligature2: "'liga' Standard Ligatures in Latin lookup 0-1" zero nine zero three six
LCarets2: 1 0
EndChar

StartChar: custom_0_9_0_3_7
Encoding: 2993 -1 2748
Width: 70
Flags: H
LayerCount: 2
Fore
SplineSet
17 25 m 1
 15 25 l 1
 15 27 l 1
 17 27 l 1
 17 25 l 1
17 29 m 1
 15 29 l 1
 15 31 l 1
 17 31 l 1
 17 29 l 1
17 33 m 1
 15 33 l 1
 15 35 l 1
 17 35 l 1
 17 33 l 1
23 25 m 1
 21 25 l 1
 21 27 l 1
 23 27 l 1
 23 25 l 1
26 25 m 1
 24 25 l 1
 24 27 l 1
 25 27 l 1
 25 26 l 1
 26 26 l 1
 26 25 l 1
27 26 m 1
 26 26 l 1
 26 27 l 1
 28 27 l 1
 28 25 l 1
 27 25 l 1
 27 26 l 1
31 25 m 1
 29 25 l 1
 29 27 l 1
 31 27 l 1
 31 25 l 1
23 33 m 1
 21 33 l 1
 21 35 l 1
 23 35 l 1
 23 33 l 1
25 33 m 1
 24 33 l 1
 24 35 l 1
 26 35 l 1
 26 34 l 1
 25 34 l 1
 25 33 l 1
28 33 m 1
 26 33 l 1
 26 34 l 1
 27 34 l 1
 27 35 l 1
 28 35 l 1
 28 33 l 1
31 29 m 1
 29 29 l 1
 29 31 l 1
 31 31 l 1
 31 29 l 1
36 31 m 1
 34 31 l 1
 34 33 l 1
 36 33 l 1
 36 31 l 1
31 33 m 1
 29 33 l 1
 29 35 l 1
 31 35 l 1
 31 33 l 1
36 35 m 1
 34 35 l 1
 34 37 l 1
 36 37 l 1
 36 35 l 1
41 25 m 1
 39 25 l 1
 39 27 l 1
 41 27 l 1
 41 25 l 1
44 25 m 1
 42 25 l 1
 42 27 l 1
 43 27 l 1
 43 26 l 1
 44 26 l 1
 44 25 l 1
45 26 m 1
 44 26 l 1
 44 27 l 1
 46 27 l 1
 46 25 l 1
 45 25 l 1
 45 26 l 1
49 25 m 1
 47 25 l 1
 47 27 l 1
 49 27 l 1
 49 25 l 1
41 29 m 1
 39 29 l 1
 39 31 l 1
 41 31 l 1
 41 29 l 1
41 33 m 1
 39 33 l 1
 39 35 l 1
 41 35 l 1
 41 33 l 1
49 29 m 1
 47 29 l 1
 47 31 l 1
 49 31 l 1
 49 29 l 1
49 33 m 1
 47 33 l 1
 47 35 l 1
 49 35 l 1
 49 33 l 1
55 25 m 1
 53 25 l 1
 53 27 l 1
 55 27 l 1
 55 25 l 1
58 25 m 1
 56 25 l 1
 56 27 l 1
 57 27 l 1
 57 26 l 1
 58 26 l 1
 58 25 l 1
59 26 m 1
 58 26 l 1
 58 27 l 1
 60 27 l 1
 60 25 l 1
 59 25 l 1
 59 26 l 1
63 25 m 1
 61 25 l 1
 61 27 l 1
 63 27 l 1
 63 25 l 1
55 29 m 1
 53 29 l 1
 53 31 l 1
 55 31 l 1
 55 29 l 1
55 33 m 1
 53 33 l 1
 53 35 l 1
 55 35 l 1
 55 33 l 1
57 33 m 1
 56 33 l 1
 56 35 l 1
 58 35 l 1
 58 34 l 1
 57 34 l 1
 57 33 l 1
60 33 m 1
 58 33 l 1
 58 34 l 1
 59 34 l 1
 59 35 l 1
 60 35 l 1
 60 33 l 1
63 29 m 1
 61 29 l 1
 61 31 l 1
 63 31 l 1
 63 29 l 1
63 33 m 1
 61 33 l 1
 61 35 l 1
 63 35 l 1
 63 33 l 1
17 37 m 1
 15 37 l 1
 15 39 l 1
 17 39 l 1
 17 37 l 1
17 41 m 1
 15 41 l 1
 15 43 l 1
 17 43 l 1
 17 41 l 1
23 37 m 1
 21 37 l 1
 21 39 l 1
 23 39 l 1
 23 37 l 1
23 41 m 1
 21 41 l 1
 21 43 l 1
 23 43 l 1
 23 41 l 1
26 41 m 1
 24 41 l 1
 24 43 l 1
 25 43 l 1
 25 42 l 1
 26 42 l 1
 26 41 l 1
27 42 m 1
 26 42 l 1
 26 43 l 1
 28 43 l 1
 28 41 l 1
 27 41 l 1
 27 42 l 1
31 41 m 1
 29 41 l 1
 29 43 l 1
 31 43 l 1
 31 41 l 1
41 37 m 1
 39 37 l 1
 39 39 l 1
 41 39 l 1
 41 37 l 1
41 41 m 1
 39 41 l 1
 39 43 l 1
 41 43 l 1
 41 41 l 1
44 41 m 1
 42 41 l 1
 42 43 l 1
 43 43 l 1
 43 42 l 1
 44 42 l 1
 44 41 l 1
45 42 m 1
 44 42 l 1
 44 43 l 1
 46 43 l 1
 46 41 l 1
 45 41 l 1
 45 42 l 1
49 37 m 1
 47 37 l 1
 47 39 l 1
 49 39 l 1
 49 37 l 1
49 41 m 1
 47 41 l 1
 47 43 l 1
 49 43 l 1
 49 41 l 1
55 41 m 1
 53 41 l 1
 53 43 l 1
 55 43 l 1
 55 41 l 1
58 41 m 1
 56 41 l 1
 56 43 l 1
 57 43 l 1
 57 42 l 1
 58 42 l 1
 58 41 l 1
59 42 m 1
 58 42 l 1
 58 43 l 1
 60 43 l 1
 60 41 l 1
 59 41 l 1
 59 42 l 1
63 37 m 1
 61 37 l 1
 61 39 l 1
 63 39 l 1
 63 37 l 1
63 41 m 1
 61 41 l 1
 61 43 l 1
 63 43 l 1
 63 41 l 1
EndSplineSet
Ligature2: "'liga' Standard Ligatures in Latin lookup 0-1" zero nine zero three seven
LCarets2: 1 0
EndChar

StartChar: custom_0_9_0_3_8
Encoding: 2994 -1 2749
Width: 70
Flags: H
LayerCount: 2
Fore
SplineSet
17 25 m 1
 15 25 l 1
 15 27 l 1
 17 27 l 1
 17 25 l 1
17 29 m 1
 15 29 l 1
 15 31 l 1
 17 31 l 1
 17 29 l 1
17 33 m 1
 15 33 l 1
 15 35 l 1
 17 35 l 1
 17 33 l 1
23 25 m 1
 21 25 l 1
 21 27 l 1
 23 27 l 1
 23 25 l 1
26 25 m 1
 24 25 l 1
 24 27 l 1
 25 27 l 1
 25 26 l 1
 26 26 l 1
 26 25 l 1
27 26 m 1
 26 26 l 1
 26 27 l 1
 28 27 l 1
 28 25 l 1
 27 25 l 1
 27 26 l 1
31 25 m 1
 29 25 l 1
 29 27 l 1
 31 27 l 1
 31 25 l 1
23 33 m 1
 21 33 l 1
 21 35 l 1
 23 35 l 1
 23 33 l 1
25 33 m 1
 24 33 l 1
 24 35 l 1
 26 35 l 1
 26 34 l 1
 25 34 l 1
 25 33 l 1
28 33 m 1
 26 33 l 1
 26 34 l 1
 27 34 l 1
 27 35 l 1
 28 35 l 1
 28 33 l 1
31 29 m 1
 29 29 l 1
 29 31 l 1
 31 31 l 1
 31 29 l 1
36 31 m 1
 34 31 l 1
 34 33 l 1
 36 33 l 1
 36 31 l 1
31 33 m 1
 29 33 l 1
 29 35 l 1
 31 35 l 1
 31 33 l 1
36 35 m 1
 34 35 l 1
 34 37 l 1
 36 37 l 1
 36 35 l 1
41 25 m 1
 39 25 l 1
 39 27 l 1
 41 27 l 1
 41 25 l 1
44 25 m 1
 42 25 l 1
 42 27 l 1
 43 27 l 1
 43 26 l 1
 44 26 l 1
 44 25 l 1
45 26 m 1
 44 26 l 1
 44 27 l 1
 46 27 l 1
 46 25 l 1
 45 25 l 1
 45 26 l 1
49 25 m 1
 47 25 l 1
 47 27 l 1
 49 27 l 1
 49 25 l 1
41 29 m 1
 39 29 l 1
 39 31 l 1
 41 31 l 1
 41 29 l 1
41 33 m 1
 39 33 l 1
 39 35 l 1
 41 35 l 1
 41 33 l 1
49 29 m 1
 47 29 l 1
 47 31 l 1
 49 31 l 1
 49 29 l 1
49 33 m 1
 47 33 l 1
 47 35 l 1
 49 35 l 1
 49 33 l 1
55 25 m 1
 53 25 l 1
 53 27 l 1
 55 27 l 1
 55 25 l 1
58 25 m 1
 56 25 l 1
 56 27 l 1
 57 27 l 1
 57 26 l 1
 58 26 l 1
 58 25 l 1
59 26 m 1
 58 26 l 1
 58 27 l 1
 60 27 l 1
 60 25 l 1
 59 25 l 1
 59 26 l 1
63 25 m 1
 61 25 l 1
 61 27 l 1
 63 27 l 1
 63 25 l 1
55 29 m 1
 53 29 l 1
 53 31 l 1
 55 31 l 1
 55 29 l 1
55 33 m 1
 53 33 l 1
 53 35 l 1
 55 35 l 1
 55 33 l 1
57 33 m 1
 56 33 l 1
 56 35 l 1
 58 35 l 1
 58 34 l 1
 57 34 l 1
 57 33 l 1
60 33 m 1
 58 33 l 1
 58 34 l 1
 59 34 l 1
 59 35 l 1
 60 35 l 1
 60 33 l 1
63 29 m 1
 61 29 l 1
 61 31 l 1
 63 31 l 1
 63 29 l 1
63 33 m 1
 61 33 l 1
 61 35 l 1
 63 35 l 1
 63 33 l 1
17 37 m 1
 15 37 l 1
 15 39 l 1
 17 39 l 1
 17 37 l 1
17 41 m 1
 15 41 l 1
 15 43 l 1
 17 43 l 1
 17 41 l 1
23 37 m 1
 21 37 l 1
 21 39 l 1
 23 39 l 1
 23 37 l 1
23 41 m 1
 21 41 l 1
 21 43 l 1
 23 43 l 1
 23 41 l 1
26 41 m 1
 24 41 l 1
 24 43 l 1
 25 43 l 1
 25 42 l 1
 26 42 l 1
 26 41 l 1
27 42 m 1
 26 42 l 1
 26 43 l 1
 28 43 l 1
 28 41 l 1
 27 41 l 1
 27 42 l 1
31 41 m 1
 29 41 l 1
 29 43 l 1
 31 43 l 1
 31 41 l 1
41 37 m 1
 39 37 l 1
 39 39 l 1
 41 39 l 1
 41 37 l 1
41 41 m 1
 39 41 l 1
 39 43 l 1
 41 43 l 1
 41 41 l 1
44 41 m 1
 42 41 l 1
 42 43 l 1
 43 43 l 1
 43 42 l 1
 44 42 l 1
 44 41 l 1
45 42 m 1
 44 42 l 1
 44 43 l 1
 46 43 l 1
 46 41 l 1
 45 41 l 1
 45 42 l 1
49 37 m 1
 47 37 l 1
 47 39 l 1
 49 39 l 1
 49 37 l 1
49 41 m 1
 47 41 l 1
 47 43 l 1
 49 43 l 1
 49 41 l 1
55 41 m 1
 53 41 l 1
 53 43 l 1
 55 43 l 1
 55 41 l 1
58 41 m 1
 56 41 l 1
 56 43 l 1
 57 43 l 1
 57 42 l 1
 58 42 l 1
 58 41 l 1
59 42 m 1
 58 42 l 1
 58 43 l 1
 60 43 l 1
 60 41 l 1
 59 41 l 1
 59 42 l 1
63 37 m 1
 61 37 l 1
 61 39 l 1
 63 39 l 1
 63 37 l 1
63 41 m 1
 61 41 l 1
 61 43 l 1
 63 43 l 1
 63 41 l 1
EndSplineSet
Ligature2: "'liga' Standard Ligatures in Latin lookup 0-1" zero nine zero three eight
LCarets2: 1 0
EndChar

StartChar: custom_0_9_0_3_9
Encoding: 2995 -1 2750
Width: 70
Flags: H
LayerCount: 2
Fore
SplineSet
17 25 m 1
 15 25 l 1
 15 27 l 1
 17 27 l 1
 17 25 l 1
17 29 m 1
 15 29 l 1
 15 31 l 1
 17 31 l 1
 17 29 l 1
17 33 m 1
 15 33 l 1
 15 35 l 1
 17 35 l 1
 17 33 l 1
23 25 m 1
 21 25 l 1
 21 27 l 1
 23 27 l 1
 23 25 l 1
26 25 m 1
 24 25 l 1
 24 27 l 1
 25 27 l 1
 25 26 l 1
 26 26 l 1
 26 25 l 1
27 26 m 1
 26 26 l 1
 26 27 l 1
 28 27 l 1
 28 25 l 1
 27 25 l 1
 27 26 l 1
31 25 m 1
 29 25 l 1
 29 27 l 1
 31 27 l 1
 31 25 l 1
23 33 m 1
 21 33 l 1
 21 35 l 1
 23 35 l 1
 23 33 l 1
25 33 m 1
 24 33 l 1
 24 35 l 1
 26 35 l 1
 26 34 l 1
 25 34 l 1
 25 33 l 1
28 33 m 1
 26 33 l 1
 26 34 l 1
 27 34 l 1
 27 35 l 1
 28 35 l 1
 28 33 l 1
31 29 m 1
 29 29 l 1
 29 31 l 1
 31 31 l 1
 31 29 l 1
36 31 m 1
 34 31 l 1
 34 33 l 1
 36 33 l 1
 36 31 l 1
31 33 m 1
 29 33 l 1
 29 35 l 1
 31 35 l 1
 31 33 l 1
36 35 m 1
 34 35 l 1
 34 37 l 1
 36 37 l 1
 36 35 l 1
41 25 m 1
 39 25 l 1
 39 27 l 1
 41 27 l 1
 41 25 l 1
44 25 m 1
 42 25 l 1
 42 27 l 1
 43 27 l 1
 43 26 l 1
 44 26 l 1
 44 25 l 1
45 26 m 1
 44 26 l 1
 44 27 l 1
 46 27 l 1
 46 25 l 1
 45 25 l 1
 45 26 l 1
49 25 m 1
 47 25 l 1
 47 27 l 1
 49 27 l 1
 49 25 l 1
41 29 m 1
 39 29 l 1
 39 31 l 1
 41 31 l 1
 41 29 l 1
41 33 m 1
 39 33 l 1
 39 35 l 1
 41 35 l 1
 41 33 l 1
49 29 m 1
 47 29 l 1
 47 31 l 1
 49 31 l 1
 49 29 l 1
49 33 m 1
 47 33 l 1
 47 35 l 1
 49 35 l 1
 49 33 l 1
55 25 m 1
 53 25 l 1
 53 27 l 1
 55 27 l 1
 55 25 l 1
58 25 m 1
 56 25 l 1
 56 27 l 1
 57 27 l 1
 57 26 l 1
 58 26 l 1
 58 25 l 1
59 26 m 1
 58 26 l 1
 58 27 l 1
 60 27 l 1
 60 25 l 1
 59 25 l 1
 59 26 l 1
63 25 m 1
 61 25 l 1
 61 27 l 1
 63 27 l 1
 63 25 l 1
55 29 m 1
 53 29 l 1
 53 31 l 1
 55 31 l 1
 55 29 l 1
55 33 m 1
 53 33 l 1
 53 35 l 1
 55 35 l 1
 55 33 l 1
57 33 m 1
 56 33 l 1
 56 35 l 1
 58 35 l 1
 58 34 l 1
 57 34 l 1
 57 33 l 1
60 33 m 1
 58 33 l 1
 58 34 l 1
 59 34 l 1
 59 35 l 1
 60 35 l 1
 60 33 l 1
63 29 m 1
 61 29 l 1
 61 31 l 1
 63 31 l 1
 63 29 l 1
63 33 m 1
 61 33 l 1
 61 35 l 1
 63 35 l 1
 63 33 l 1
17 37 m 1
 15 37 l 1
 15 39 l 1
 17 39 l 1
 17 37 l 1
17 41 m 1
 15 41 l 1
 15 43 l 1
 17 43 l 1
 17 41 l 1
23 37 m 1
 21 37 l 1
 21 39 l 1
 23 39 l 1
 23 37 l 1
23 41 m 1
 21 41 l 1
 21 43 l 1
 23 43 l 1
 23 41 l 1
26 41 m 1
 24 41 l 1
 24 43 l 1
 25 43 l 1
 25 42 l 1
 26 42 l 1
 26 41 l 1
27 42 m 1
 26 42 l 1
 26 43 l 1
 28 43 l 1
 28 41 l 1
 27 41 l 1
 27 42 l 1
31 41 m 1
 29 41 l 1
 29 43 l 1
 31 43 l 1
 31 41 l 1
41 37 m 1
 39 37 l 1
 39 39 l 1
 41 39 l 1
 41 37 l 1
41 41 m 1
 39 41 l 1
 39 43 l 1
 41 43 l 1
 41 41 l 1
44 41 m 1
 42 41 l 1
 42 43 l 1
 43 43 l 1
 43 42 l 1
 44 42 l 1
 44 41 l 1
45 42 m 1
 44 42 l 1
 44 43 l 1
 46 43 l 1
 46 41 l 1
 45 41 l 1
 45 42 l 1
49 37 m 1
 47 37 l 1
 47 39 l 1
 49 39 l 1
 49 37 l 1
49 41 m 1
 47 41 l 1
 47 43 l 1
 49 43 l 1
 49 41 l 1
55 41 m 1
 53 41 l 1
 53 43 l 1
 55 43 l 1
 55 41 l 1
58 41 m 1
 56 41 l 1
 56 43 l 1
 57 43 l 1
 57 42 l 1
 58 42 l 1
 58 41 l 1
59 42 m 1
 58 42 l 1
 58 43 l 1
 60 43 l 1
 60 41 l 1
 59 41 l 1
 59 42 l 1
63 37 m 1
 61 37 l 1
 61 39 l 1
 63 39 l 1
 63 37 l 1
63 41 m 1
 61 41 l 1
 61 43 l 1
 63 43 l 1
 63 41 l 1
EndSplineSet
Ligature2: "'liga' Standard Ligatures in Latin lookup 0-1" zero nine zero three nine
LCarets2: 1 0
EndChar

StartChar: custom_0_9_0_4_0
Encoding: 2996 -1 2751
Width: 70
Flags: H
LayerCount: 2
Fore
SplineSet
17 25 m 1
 15 25 l 1
 15 27 l 1
 17 27 l 1
 17 25 l 1
17 29 m 1
 15 29 l 1
 15 31 l 1
 17 31 l 1
 17 29 l 1
17 33 m 1
 15 33 l 1
 15 35 l 1
 17 35 l 1
 17 33 l 1
23 25 m 1
 21 25 l 1
 21 27 l 1
 23 27 l 1
 23 25 l 1
26 25 m 1
 24 25 l 1
 24 27 l 1
 25 27 l 1
 25 26 l 1
 26 26 l 1
 26 25 l 1
27 26 m 1
 26 26 l 1
 26 27 l 1
 28 27 l 1
 28 25 l 1
 27 25 l 1
 27 26 l 1
31 25 m 1
 29 25 l 1
 29 27 l 1
 31 27 l 1
 31 25 l 1
23 33 m 1
 21 33 l 1
 21 35 l 1
 23 35 l 1
 23 33 l 1
25 33 m 1
 24 33 l 1
 24 35 l 1
 26 35 l 1
 26 34 l 1
 25 34 l 1
 25 33 l 1
28 33 m 1
 26 33 l 1
 26 34 l 1
 27 34 l 1
 27 35 l 1
 28 35 l 1
 28 33 l 1
31 29 m 1
 29 29 l 1
 29 31 l 1
 31 31 l 1
 31 29 l 1
36 31 m 1
 34 31 l 1
 34 33 l 1
 36 33 l 1
 36 31 l 1
31 33 m 1
 29 33 l 1
 29 35 l 1
 31 35 l 1
 31 33 l 1
36 35 m 1
 34 35 l 1
 34 37 l 1
 36 37 l 1
 36 35 l 1
41 25 m 1
 39 25 l 1
 39 27 l 1
 41 27 l 1
 41 25 l 1
44 25 m 1
 42 25 l 1
 42 27 l 1
 43 27 l 1
 43 26 l 1
 44 26 l 1
 44 25 l 1
45 26 m 1
 44 26 l 1
 44 27 l 1
 46 27 l 1
 46 25 l 1
 45 25 l 1
 45 26 l 1
49 25 m 1
 47 25 l 1
 47 27 l 1
 49 27 l 1
 49 25 l 1
41 29 m 1
 39 29 l 1
 39 31 l 1
 41 31 l 1
 41 29 l 1
41 33 m 1
 39 33 l 1
 39 35 l 1
 41 35 l 1
 41 33 l 1
49 29 m 1
 47 29 l 1
 47 31 l 1
 49 31 l 1
 49 29 l 1
49 33 m 1
 47 33 l 1
 47 35 l 1
 49 35 l 1
 49 33 l 1
55 25 m 1
 53 25 l 1
 53 27 l 1
 55 27 l 1
 55 25 l 1
58 25 m 1
 56 25 l 1
 56 27 l 1
 57 27 l 1
 57 26 l 1
 58 26 l 1
 58 25 l 1
59 26 m 1
 58 26 l 1
 58 27 l 1
 60 27 l 1
 60 25 l 1
 59 25 l 1
 59 26 l 1
63 25 m 1
 61 25 l 1
 61 27 l 1
 63 27 l 1
 63 25 l 1
55 29 m 1
 53 29 l 1
 53 31 l 1
 55 31 l 1
 55 29 l 1
55 33 m 1
 53 33 l 1
 53 35 l 1
 55 35 l 1
 55 33 l 1
57 33 m 1
 56 33 l 1
 56 35 l 1
 58 35 l 1
 58 34 l 1
 57 34 l 1
 57 33 l 1
60 33 m 1
 58 33 l 1
 58 34 l 1
 59 34 l 1
 59 35 l 1
 60 35 l 1
 60 33 l 1
63 29 m 1
 61 29 l 1
 61 31 l 1
 63 31 l 1
 63 29 l 1
63 33 m 1
 61 33 l 1
 61 35 l 1
 63 35 l 1
 63 33 l 1
17 37 m 1
 15 37 l 1
 15 39 l 1
 17 39 l 1
 17 37 l 1
17 41 m 1
 15 41 l 1
 15 43 l 1
 17 43 l 1
 17 41 l 1
23 37 m 1
 21 37 l 1
 21 39 l 1
 23 39 l 1
 23 37 l 1
23 41 m 1
 21 41 l 1
 21 43 l 1
 23 43 l 1
 23 41 l 1
26 41 m 1
 24 41 l 1
 24 43 l 1
 25 43 l 1
 25 42 l 1
 26 42 l 1
 26 41 l 1
27 42 m 1
 26 42 l 1
 26 43 l 1
 28 43 l 1
 28 41 l 1
 27 41 l 1
 27 42 l 1
31 41 m 1
 29 41 l 1
 29 43 l 1
 31 43 l 1
 31 41 l 1
41 37 m 1
 39 37 l 1
 39 39 l 1
 41 39 l 1
 41 37 l 1
41 41 m 1
 39 41 l 1
 39 43 l 1
 41 43 l 1
 41 41 l 1
44 41 m 1
 42 41 l 1
 42 43 l 1
 43 43 l 1
 43 42 l 1
 44 42 l 1
 44 41 l 1
45 42 m 1
 44 42 l 1
 44 43 l 1
 46 43 l 1
 46 41 l 1
 45 41 l 1
 45 42 l 1
49 37 m 1
 47 37 l 1
 47 39 l 1
 49 39 l 1
 49 37 l 1
49 41 m 1
 47 41 l 1
 47 43 l 1
 49 43 l 1
 49 41 l 1
55 41 m 1
 53 41 l 1
 53 43 l 1
 55 43 l 1
 55 41 l 1
58 41 m 1
 56 41 l 1
 56 43 l 1
 57 43 l 1
 57 42 l 1
 58 42 l 1
 58 41 l 1
59 42 m 1
 58 42 l 1
 58 43 l 1
 60 43 l 1
 60 41 l 1
 59 41 l 1
 59 42 l 1
63 37 m 1
 61 37 l 1
 61 39 l 1
 63 39 l 1
 63 37 l 1
63 41 m 1
 61 41 l 1
 61 43 l 1
 63 43 l 1
 63 41 l 1
EndSplineSet
Ligature2: "'liga' Standard Ligatures in Latin lookup 0-1" zero nine zero four zero
LCarets2: 1 0
EndChar

StartChar: custom_0_9_0_4_1
Encoding: 2997 -1 2752
Width: 70
Flags: H
LayerCount: 2
Fore
SplineSet
17 25 m 1
 15 25 l 1
 15 27 l 1
 17 27 l 1
 17 25 l 1
17 29 m 1
 15 29 l 1
 15 31 l 1
 17 31 l 1
 17 29 l 1
17 33 m 1
 15 33 l 1
 15 35 l 1
 17 35 l 1
 17 33 l 1
23 25 m 1
 21 25 l 1
 21 27 l 1
 23 27 l 1
 23 25 l 1
26 25 m 1
 24 25 l 1
 24 27 l 1
 25 27 l 1
 25 26 l 1
 26 26 l 1
 26 25 l 1
27 26 m 1
 26 26 l 1
 26 27 l 1
 28 27 l 1
 28 25 l 1
 27 25 l 1
 27 26 l 1
31 25 m 1
 29 25 l 1
 29 27 l 1
 31 27 l 1
 31 25 l 1
23 33 m 1
 21 33 l 1
 21 35 l 1
 23 35 l 1
 23 33 l 1
25 33 m 1
 24 33 l 1
 24 35 l 1
 26 35 l 1
 26 34 l 1
 25 34 l 1
 25 33 l 1
28 33 m 1
 26 33 l 1
 26 34 l 1
 27 34 l 1
 27 35 l 1
 28 35 l 1
 28 33 l 1
31 29 m 1
 29 29 l 1
 29 31 l 1
 31 31 l 1
 31 29 l 1
36 31 m 1
 34 31 l 1
 34 33 l 1
 36 33 l 1
 36 31 l 1
31 33 m 1
 29 33 l 1
 29 35 l 1
 31 35 l 1
 31 33 l 1
36 35 m 1
 34 35 l 1
 34 37 l 1
 36 37 l 1
 36 35 l 1
41 25 m 1
 39 25 l 1
 39 27 l 1
 41 27 l 1
 41 25 l 1
44 25 m 1
 42 25 l 1
 42 27 l 1
 43 27 l 1
 43 26 l 1
 44 26 l 1
 44 25 l 1
45 26 m 1
 44 26 l 1
 44 27 l 1
 46 27 l 1
 46 25 l 1
 45 25 l 1
 45 26 l 1
49 25 m 1
 47 25 l 1
 47 27 l 1
 49 27 l 1
 49 25 l 1
41 29 m 1
 39 29 l 1
 39 31 l 1
 41 31 l 1
 41 29 l 1
41 33 m 1
 39 33 l 1
 39 35 l 1
 41 35 l 1
 41 33 l 1
49 29 m 1
 47 29 l 1
 47 31 l 1
 49 31 l 1
 49 29 l 1
49 33 m 1
 47 33 l 1
 47 35 l 1
 49 35 l 1
 49 33 l 1
55 25 m 1
 53 25 l 1
 53 27 l 1
 55 27 l 1
 55 25 l 1
58 25 m 1
 56 25 l 1
 56 27 l 1
 57 27 l 1
 57 26 l 1
 58 26 l 1
 58 25 l 1
59 26 m 1
 58 26 l 1
 58 27 l 1
 60 27 l 1
 60 25 l 1
 59 25 l 1
 59 26 l 1
63 25 m 1
 61 25 l 1
 61 27 l 1
 63 27 l 1
 63 25 l 1
55 29 m 1
 53 29 l 1
 53 31 l 1
 55 31 l 1
 55 29 l 1
55 33 m 1
 53 33 l 1
 53 35 l 1
 55 35 l 1
 55 33 l 1
57 33 m 1
 56 33 l 1
 56 35 l 1
 58 35 l 1
 58 34 l 1
 57 34 l 1
 57 33 l 1
60 33 m 1
 58 33 l 1
 58 34 l 1
 59 34 l 1
 59 35 l 1
 60 35 l 1
 60 33 l 1
63 29 m 1
 61 29 l 1
 61 31 l 1
 63 31 l 1
 63 29 l 1
63 33 m 1
 61 33 l 1
 61 35 l 1
 63 35 l 1
 63 33 l 1
17 37 m 1
 15 37 l 1
 15 39 l 1
 17 39 l 1
 17 37 l 1
17 41 m 1
 15 41 l 1
 15 43 l 1
 17 43 l 1
 17 41 l 1
23 37 m 1
 21 37 l 1
 21 39 l 1
 23 39 l 1
 23 37 l 1
23 41 m 1
 21 41 l 1
 21 43 l 1
 23 43 l 1
 23 41 l 1
26 41 m 1
 24 41 l 1
 24 43 l 1
 25 43 l 1
 25 42 l 1
 26 42 l 1
 26 41 l 1
27 42 m 1
 26 42 l 1
 26 43 l 1
 28 43 l 1
 28 41 l 1
 27 41 l 1
 27 42 l 1
31 41 m 1
 29 41 l 1
 29 43 l 1
 31 43 l 1
 31 41 l 1
41 37 m 1
 39 37 l 1
 39 39 l 1
 41 39 l 1
 41 37 l 1
41 41 m 1
 39 41 l 1
 39 43 l 1
 41 43 l 1
 41 41 l 1
44 41 m 1
 42 41 l 1
 42 43 l 1
 43 43 l 1
 43 42 l 1
 44 42 l 1
 44 41 l 1
45 42 m 1
 44 42 l 1
 44 43 l 1
 46 43 l 1
 46 41 l 1
 45 41 l 1
 45 42 l 1
49 37 m 1
 47 37 l 1
 47 39 l 1
 49 39 l 1
 49 37 l 1
49 41 m 1
 47 41 l 1
 47 43 l 1
 49 43 l 1
 49 41 l 1
55 41 m 1
 53 41 l 1
 53 43 l 1
 55 43 l 1
 55 41 l 1
58 41 m 1
 56 41 l 1
 56 43 l 1
 57 43 l 1
 57 42 l 1
 58 42 l 1
 58 41 l 1
59 42 m 1
 58 42 l 1
 58 43 l 1
 60 43 l 1
 60 41 l 1
 59 41 l 1
 59 42 l 1
63 37 m 1
 61 37 l 1
 61 39 l 1
 63 39 l 1
 63 37 l 1
63 41 m 1
 61 41 l 1
 61 43 l 1
 63 43 l 1
 63 41 l 1
EndSplineSet
Ligature2: "'liga' Standard Ligatures in Latin lookup 0-1" zero nine zero four one
LCarets2: 1 0
EndChar

StartChar: custom_0_9_0_4_2
Encoding: 2998 -1 2753
Width: 70
Flags: H
LayerCount: 2
Fore
SplineSet
17 25 m 1
 15 25 l 1
 15 27 l 1
 17 27 l 1
 17 25 l 1
17 29 m 1
 15 29 l 1
 15 31 l 1
 17 31 l 1
 17 29 l 1
17 33 m 1
 15 33 l 1
 15 35 l 1
 17 35 l 1
 17 33 l 1
23 25 m 1
 21 25 l 1
 21 27 l 1
 23 27 l 1
 23 25 l 1
26 25 m 1
 24 25 l 1
 24 27 l 1
 25 27 l 1
 25 26 l 1
 26 26 l 1
 26 25 l 1
27 26 m 1
 26 26 l 1
 26 27 l 1
 28 27 l 1
 28 25 l 1
 27 25 l 1
 27 26 l 1
31 25 m 1
 29 25 l 1
 29 27 l 1
 31 27 l 1
 31 25 l 1
23 33 m 1
 21 33 l 1
 21 35 l 1
 23 35 l 1
 23 33 l 1
25 33 m 1
 24 33 l 1
 24 35 l 1
 26 35 l 1
 26 34 l 1
 25 34 l 1
 25 33 l 1
28 33 m 1
 26 33 l 1
 26 34 l 1
 27 34 l 1
 27 35 l 1
 28 35 l 1
 28 33 l 1
31 29 m 1
 29 29 l 1
 29 31 l 1
 31 31 l 1
 31 29 l 1
36 31 m 1
 34 31 l 1
 34 33 l 1
 36 33 l 1
 36 31 l 1
31 33 m 1
 29 33 l 1
 29 35 l 1
 31 35 l 1
 31 33 l 1
36 35 m 1
 34 35 l 1
 34 37 l 1
 36 37 l 1
 36 35 l 1
41 25 m 1
 39 25 l 1
 39 27 l 1
 41 27 l 1
 41 25 l 1
44 25 m 1
 42 25 l 1
 42 27 l 1
 43 27 l 1
 43 26 l 1
 44 26 l 1
 44 25 l 1
45 26 m 1
 44 26 l 1
 44 27 l 1
 46 27 l 1
 46 25 l 1
 45 25 l 1
 45 26 l 1
49 25 m 1
 47 25 l 1
 47 27 l 1
 49 27 l 1
 49 25 l 1
41 29 m 1
 39 29 l 1
 39 31 l 1
 41 31 l 1
 41 29 l 1
41 33 m 1
 39 33 l 1
 39 35 l 1
 41 35 l 1
 41 33 l 1
49 29 m 1
 47 29 l 1
 47 31 l 1
 49 31 l 1
 49 29 l 1
49 33 m 1
 47 33 l 1
 47 35 l 1
 49 35 l 1
 49 33 l 1
55 25 m 1
 53 25 l 1
 53 27 l 1
 55 27 l 1
 55 25 l 1
58 25 m 1
 56 25 l 1
 56 27 l 1
 57 27 l 1
 57 26 l 1
 58 26 l 1
 58 25 l 1
59 26 m 1
 58 26 l 1
 58 27 l 1
 60 27 l 1
 60 25 l 1
 59 25 l 1
 59 26 l 1
63 25 m 1
 61 25 l 1
 61 27 l 1
 63 27 l 1
 63 25 l 1
55 29 m 1
 53 29 l 1
 53 31 l 1
 55 31 l 1
 55 29 l 1
55 33 m 1
 53 33 l 1
 53 35 l 1
 55 35 l 1
 55 33 l 1
57 33 m 1
 56 33 l 1
 56 35 l 1
 58 35 l 1
 58 34 l 1
 57 34 l 1
 57 33 l 1
60 33 m 1
 58 33 l 1
 58 34 l 1
 59 34 l 1
 59 35 l 1
 60 35 l 1
 60 33 l 1
63 29 m 1
 61 29 l 1
 61 31 l 1
 63 31 l 1
 63 29 l 1
63 33 m 1
 61 33 l 1
 61 35 l 1
 63 35 l 1
 63 33 l 1
17 37 m 1
 15 37 l 1
 15 39 l 1
 17 39 l 1
 17 37 l 1
17 41 m 1
 15 41 l 1
 15 43 l 1
 17 43 l 1
 17 41 l 1
23 37 m 1
 21 37 l 1
 21 39 l 1
 23 39 l 1
 23 37 l 1
23 41 m 1
 21 41 l 1
 21 43 l 1
 23 43 l 1
 23 41 l 1
26 41 m 1
 24 41 l 1
 24 43 l 1
 25 43 l 1
 25 42 l 1
 26 42 l 1
 26 41 l 1
27 42 m 1
 26 42 l 1
 26 43 l 1
 28 43 l 1
 28 41 l 1
 27 41 l 1
 27 42 l 1
31 41 m 1
 29 41 l 1
 29 43 l 1
 31 43 l 1
 31 41 l 1
41 37 m 1
 39 37 l 1
 39 39 l 1
 41 39 l 1
 41 37 l 1
41 41 m 1
 39 41 l 1
 39 43 l 1
 41 43 l 1
 41 41 l 1
44 41 m 1
 42 41 l 1
 42 43 l 1
 43 43 l 1
 43 42 l 1
 44 42 l 1
 44 41 l 1
45 42 m 1
 44 42 l 1
 44 43 l 1
 46 43 l 1
 46 41 l 1
 45 41 l 1
 45 42 l 1
49 37 m 1
 47 37 l 1
 47 39 l 1
 49 39 l 1
 49 37 l 1
49 41 m 1
 47 41 l 1
 47 43 l 1
 49 43 l 1
 49 41 l 1
55 41 m 1
 53 41 l 1
 53 43 l 1
 55 43 l 1
 55 41 l 1
58 41 m 1
 56 41 l 1
 56 43 l 1
 57 43 l 1
 57 42 l 1
 58 42 l 1
 58 41 l 1
59 42 m 1
 58 42 l 1
 58 43 l 1
 60 43 l 1
 60 41 l 1
 59 41 l 1
 59 42 l 1
63 37 m 1
 61 37 l 1
 61 39 l 1
 63 39 l 1
 63 37 l 1
63 41 m 1
 61 41 l 1
 61 43 l 1
 63 43 l 1
 63 41 l 1
EndSplineSet
Ligature2: "'liga' Standard Ligatures in Latin lookup 0-1" zero nine zero four two
LCarets2: 1 0
EndChar

StartChar: custom_0_9_0_4_3
Encoding: 2999 -1 2754
Width: 70
Flags: H
LayerCount: 2
Fore
SplineSet
17 25 m 1
 15 25 l 1
 15 27 l 1
 17 27 l 1
 17 25 l 1
17 29 m 1
 15 29 l 1
 15 31 l 1
 17 31 l 1
 17 29 l 1
17 33 m 1
 15 33 l 1
 15 35 l 1
 17 35 l 1
 17 33 l 1
23 25 m 1
 21 25 l 1
 21 27 l 1
 23 27 l 1
 23 25 l 1
26 25 m 1
 24 25 l 1
 24 27 l 1
 25 27 l 1
 25 26 l 1
 26 26 l 1
 26 25 l 1
27 26 m 1
 26 26 l 1
 26 27 l 1
 28 27 l 1
 28 25 l 1
 27 25 l 1
 27 26 l 1
31 25 m 1
 29 25 l 1
 29 27 l 1
 31 27 l 1
 31 25 l 1
23 33 m 1
 21 33 l 1
 21 35 l 1
 23 35 l 1
 23 33 l 1
25 33 m 1
 24 33 l 1
 24 35 l 1
 26 35 l 1
 26 34 l 1
 25 34 l 1
 25 33 l 1
28 33 m 1
 26 33 l 1
 26 34 l 1
 27 34 l 1
 27 35 l 1
 28 35 l 1
 28 33 l 1
31 29 m 1
 29 29 l 1
 29 31 l 1
 31 31 l 1
 31 29 l 1
36 31 m 1
 34 31 l 1
 34 33 l 1
 36 33 l 1
 36 31 l 1
31 33 m 1
 29 33 l 1
 29 35 l 1
 31 35 l 1
 31 33 l 1
36 35 m 1
 34 35 l 1
 34 37 l 1
 36 37 l 1
 36 35 l 1
41 25 m 1
 39 25 l 1
 39 27 l 1
 41 27 l 1
 41 25 l 1
44 25 m 1
 42 25 l 1
 42 27 l 1
 43 27 l 1
 43 26 l 1
 44 26 l 1
 44 25 l 1
45 26 m 1
 44 26 l 1
 44 27 l 1
 46 27 l 1
 46 25 l 1
 45 25 l 1
 45 26 l 1
49 25 m 1
 47 25 l 1
 47 27 l 1
 49 27 l 1
 49 25 l 1
41 29 m 1
 39 29 l 1
 39 31 l 1
 41 31 l 1
 41 29 l 1
41 33 m 1
 39 33 l 1
 39 35 l 1
 41 35 l 1
 41 33 l 1
49 29 m 1
 47 29 l 1
 47 31 l 1
 49 31 l 1
 49 29 l 1
49 33 m 1
 47 33 l 1
 47 35 l 1
 49 35 l 1
 49 33 l 1
55 25 m 1
 53 25 l 1
 53 27 l 1
 55 27 l 1
 55 25 l 1
58 25 m 1
 56 25 l 1
 56 27 l 1
 57 27 l 1
 57 26 l 1
 58 26 l 1
 58 25 l 1
59 26 m 1
 58 26 l 1
 58 27 l 1
 60 27 l 1
 60 25 l 1
 59 25 l 1
 59 26 l 1
63 25 m 1
 61 25 l 1
 61 27 l 1
 63 27 l 1
 63 25 l 1
55 29 m 1
 53 29 l 1
 53 31 l 1
 55 31 l 1
 55 29 l 1
55 33 m 1
 53 33 l 1
 53 35 l 1
 55 35 l 1
 55 33 l 1
57 33 m 1
 56 33 l 1
 56 35 l 1
 58 35 l 1
 58 34 l 1
 57 34 l 1
 57 33 l 1
60 33 m 1
 58 33 l 1
 58 34 l 1
 59 34 l 1
 59 35 l 1
 60 35 l 1
 60 33 l 1
63 29 m 1
 61 29 l 1
 61 31 l 1
 63 31 l 1
 63 29 l 1
63 33 m 1
 61 33 l 1
 61 35 l 1
 63 35 l 1
 63 33 l 1
17 37 m 1
 15 37 l 1
 15 39 l 1
 17 39 l 1
 17 37 l 1
17 41 m 1
 15 41 l 1
 15 43 l 1
 17 43 l 1
 17 41 l 1
23 37 m 1
 21 37 l 1
 21 39 l 1
 23 39 l 1
 23 37 l 1
23 41 m 1
 21 41 l 1
 21 43 l 1
 23 43 l 1
 23 41 l 1
26 41 m 1
 24 41 l 1
 24 43 l 1
 25 43 l 1
 25 42 l 1
 26 42 l 1
 26 41 l 1
27 42 m 1
 26 42 l 1
 26 43 l 1
 28 43 l 1
 28 41 l 1
 27 41 l 1
 27 42 l 1
31 41 m 1
 29 41 l 1
 29 43 l 1
 31 43 l 1
 31 41 l 1
41 37 m 1
 39 37 l 1
 39 39 l 1
 41 39 l 1
 41 37 l 1
41 41 m 1
 39 41 l 1
 39 43 l 1
 41 43 l 1
 41 41 l 1
44 41 m 1
 42 41 l 1
 42 43 l 1
 43 43 l 1
 43 42 l 1
 44 42 l 1
 44 41 l 1
45 42 m 1
 44 42 l 1
 44 43 l 1
 46 43 l 1
 46 41 l 1
 45 41 l 1
 45 42 l 1
49 37 m 1
 47 37 l 1
 47 39 l 1
 49 39 l 1
 49 37 l 1
49 41 m 1
 47 41 l 1
 47 43 l 1
 49 43 l 1
 49 41 l 1
55 41 m 1
 53 41 l 1
 53 43 l 1
 55 43 l 1
 55 41 l 1
58 41 m 1
 56 41 l 1
 56 43 l 1
 57 43 l 1
 57 42 l 1
 58 42 l 1
 58 41 l 1
59 42 m 1
 58 42 l 1
 58 43 l 1
 60 43 l 1
 60 41 l 1
 59 41 l 1
 59 42 l 1
63 37 m 1
 61 37 l 1
 61 39 l 1
 63 39 l 1
 63 37 l 1
63 41 m 1
 61 41 l 1
 61 43 l 1
 63 43 l 1
 63 41 l 1
EndSplineSet
Ligature2: "'liga' Standard Ligatures in Latin lookup 0-1" zero nine zero four three
LCarets2: 1 0
EndChar

StartChar: custom_0_9_0_4_4
Encoding: 3000 -1 2755
Width: 70
Flags: H
LayerCount: 2
Fore
SplineSet
17 25 m 1
 15 25 l 1
 15 27 l 1
 17 27 l 1
 17 25 l 1
17 29 m 1
 15 29 l 1
 15 31 l 1
 17 31 l 1
 17 29 l 1
17 33 m 1
 15 33 l 1
 15 35 l 1
 17 35 l 1
 17 33 l 1
23 25 m 1
 21 25 l 1
 21 27 l 1
 23 27 l 1
 23 25 l 1
26 25 m 1
 24 25 l 1
 24 27 l 1
 25 27 l 1
 25 26 l 1
 26 26 l 1
 26 25 l 1
27 26 m 1
 26 26 l 1
 26 27 l 1
 28 27 l 1
 28 25 l 1
 27 25 l 1
 27 26 l 1
31 25 m 1
 29 25 l 1
 29 27 l 1
 31 27 l 1
 31 25 l 1
23 33 m 1
 21 33 l 1
 21 35 l 1
 23 35 l 1
 23 33 l 1
25 33 m 1
 24 33 l 1
 24 35 l 1
 26 35 l 1
 26 34 l 1
 25 34 l 1
 25 33 l 1
28 33 m 1
 26 33 l 1
 26 34 l 1
 27 34 l 1
 27 35 l 1
 28 35 l 1
 28 33 l 1
31 29 m 1
 29 29 l 1
 29 31 l 1
 31 31 l 1
 31 29 l 1
36 31 m 1
 34 31 l 1
 34 33 l 1
 36 33 l 1
 36 31 l 1
31 33 m 1
 29 33 l 1
 29 35 l 1
 31 35 l 1
 31 33 l 1
36 35 m 1
 34 35 l 1
 34 37 l 1
 36 37 l 1
 36 35 l 1
41 25 m 1
 39 25 l 1
 39 27 l 1
 41 27 l 1
 41 25 l 1
44 25 m 1
 42 25 l 1
 42 27 l 1
 43 27 l 1
 43 26 l 1
 44 26 l 1
 44 25 l 1
45 26 m 1
 44 26 l 1
 44 27 l 1
 46 27 l 1
 46 25 l 1
 45 25 l 1
 45 26 l 1
49 25 m 1
 47 25 l 1
 47 27 l 1
 49 27 l 1
 49 25 l 1
41 29 m 1
 39 29 l 1
 39 31 l 1
 41 31 l 1
 41 29 l 1
41 33 m 1
 39 33 l 1
 39 35 l 1
 41 35 l 1
 41 33 l 1
49 29 m 1
 47 29 l 1
 47 31 l 1
 49 31 l 1
 49 29 l 1
49 33 m 1
 47 33 l 1
 47 35 l 1
 49 35 l 1
 49 33 l 1
55 25 m 1
 53 25 l 1
 53 27 l 1
 55 27 l 1
 55 25 l 1
58 25 m 1
 56 25 l 1
 56 27 l 1
 57 27 l 1
 57 26 l 1
 58 26 l 1
 58 25 l 1
59 26 m 1
 58 26 l 1
 58 27 l 1
 60 27 l 1
 60 25 l 1
 59 25 l 1
 59 26 l 1
63 25 m 1
 61 25 l 1
 61 27 l 1
 63 27 l 1
 63 25 l 1
55 29 m 1
 53 29 l 1
 53 31 l 1
 55 31 l 1
 55 29 l 1
55 33 m 1
 53 33 l 1
 53 35 l 1
 55 35 l 1
 55 33 l 1
57 33 m 1
 56 33 l 1
 56 35 l 1
 58 35 l 1
 58 34 l 1
 57 34 l 1
 57 33 l 1
60 33 m 1
 58 33 l 1
 58 34 l 1
 59 34 l 1
 59 35 l 1
 60 35 l 1
 60 33 l 1
63 29 m 1
 61 29 l 1
 61 31 l 1
 63 31 l 1
 63 29 l 1
63 33 m 1
 61 33 l 1
 61 35 l 1
 63 35 l 1
 63 33 l 1
17 37 m 1
 15 37 l 1
 15 39 l 1
 17 39 l 1
 17 37 l 1
17 41 m 1
 15 41 l 1
 15 43 l 1
 17 43 l 1
 17 41 l 1
23 37 m 1
 21 37 l 1
 21 39 l 1
 23 39 l 1
 23 37 l 1
23 41 m 1
 21 41 l 1
 21 43 l 1
 23 43 l 1
 23 41 l 1
26 41 m 1
 24 41 l 1
 24 43 l 1
 25 43 l 1
 25 42 l 1
 26 42 l 1
 26 41 l 1
27 42 m 1
 26 42 l 1
 26 43 l 1
 28 43 l 1
 28 41 l 1
 27 41 l 1
 27 42 l 1
31 41 m 1
 29 41 l 1
 29 43 l 1
 31 43 l 1
 31 41 l 1
41 37 m 1
 39 37 l 1
 39 39 l 1
 41 39 l 1
 41 37 l 1
41 41 m 1
 39 41 l 1
 39 43 l 1
 41 43 l 1
 41 41 l 1
44 41 m 1
 42 41 l 1
 42 43 l 1
 43 43 l 1
 43 42 l 1
 44 42 l 1
 44 41 l 1
45 42 m 1
 44 42 l 1
 44 43 l 1
 46 43 l 1
 46 41 l 1
 45 41 l 1
 45 42 l 1
49 37 m 1
 47 37 l 1
 47 39 l 1
 49 39 l 1
 49 37 l 1
49 41 m 1
 47 41 l 1
 47 43 l 1
 49 43 l 1
 49 41 l 1
55 41 m 1
 53 41 l 1
 53 43 l 1
 55 43 l 1
 55 41 l 1
58 41 m 1
 56 41 l 1
 56 43 l 1
 57 43 l 1
 57 42 l 1
 58 42 l 1
 58 41 l 1
59 42 m 1
 58 42 l 1
 58 43 l 1
 60 43 l 1
 60 41 l 1
 59 41 l 1
 59 42 l 1
63 37 m 1
 61 37 l 1
 61 39 l 1
 63 39 l 1
 63 37 l 1
63 41 m 1
 61 41 l 1
 61 43 l 1
 63 43 l 1
 63 41 l 1
EndSplineSet
Ligature2: "'liga' Standard Ligatures in Latin lookup 0-1" zero nine zero four four
LCarets2: 1 0
EndChar

StartChar: custom_0_9_0_4_5
Encoding: 3001 -1 2756
Width: 70
Flags: H
LayerCount: 2
Fore
SplineSet
17 25 m 1
 15 25 l 1
 15 27 l 1
 17 27 l 1
 17 25 l 1
17 29 m 1
 15 29 l 1
 15 31 l 1
 17 31 l 1
 17 29 l 1
17 33 m 1
 15 33 l 1
 15 35 l 1
 17 35 l 1
 17 33 l 1
23 25 m 1
 21 25 l 1
 21 27 l 1
 23 27 l 1
 23 25 l 1
26 25 m 1
 24 25 l 1
 24 27 l 1
 25 27 l 1
 25 26 l 1
 26 26 l 1
 26 25 l 1
27 26 m 1
 26 26 l 1
 26 27 l 1
 28 27 l 1
 28 25 l 1
 27 25 l 1
 27 26 l 1
31 25 m 1
 29 25 l 1
 29 27 l 1
 31 27 l 1
 31 25 l 1
23 33 m 1
 21 33 l 1
 21 35 l 1
 23 35 l 1
 23 33 l 1
25 33 m 1
 24 33 l 1
 24 35 l 1
 26 35 l 1
 26 34 l 1
 25 34 l 1
 25 33 l 1
28 33 m 1
 26 33 l 1
 26 34 l 1
 27 34 l 1
 27 35 l 1
 28 35 l 1
 28 33 l 1
31 29 m 1
 29 29 l 1
 29 31 l 1
 31 31 l 1
 31 29 l 1
36 31 m 1
 34 31 l 1
 34 33 l 1
 36 33 l 1
 36 31 l 1
31 33 m 1
 29 33 l 1
 29 35 l 1
 31 35 l 1
 31 33 l 1
36 35 m 1
 34 35 l 1
 34 37 l 1
 36 37 l 1
 36 35 l 1
41 25 m 1
 39 25 l 1
 39 27 l 1
 41 27 l 1
 41 25 l 1
44 25 m 1
 42 25 l 1
 42 27 l 1
 43 27 l 1
 43 26 l 1
 44 26 l 1
 44 25 l 1
45 26 m 1
 44 26 l 1
 44 27 l 1
 46 27 l 1
 46 25 l 1
 45 25 l 1
 45 26 l 1
49 25 m 1
 47 25 l 1
 47 27 l 1
 49 27 l 1
 49 25 l 1
41 29 m 1
 39 29 l 1
 39 31 l 1
 41 31 l 1
 41 29 l 1
41 33 m 1
 39 33 l 1
 39 35 l 1
 41 35 l 1
 41 33 l 1
49 29 m 1
 47 29 l 1
 47 31 l 1
 49 31 l 1
 49 29 l 1
49 33 m 1
 47 33 l 1
 47 35 l 1
 49 35 l 1
 49 33 l 1
55 25 m 1
 53 25 l 1
 53 27 l 1
 55 27 l 1
 55 25 l 1
58 25 m 1
 56 25 l 1
 56 27 l 1
 57 27 l 1
 57 26 l 1
 58 26 l 1
 58 25 l 1
59 26 m 1
 58 26 l 1
 58 27 l 1
 60 27 l 1
 60 25 l 1
 59 25 l 1
 59 26 l 1
63 25 m 1
 61 25 l 1
 61 27 l 1
 63 27 l 1
 63 25 l 1
55 29 m 1
 53 29 l 1
 53 31 l 1
 55 31 l 1
 55 29 l 1
55 33 m 1
 53 33 l 1
 53 35 l 1
 55 35 l 1
 55 33 l 1
57 33 m 1
 56 33 l 1
 56 35 l 1
 58 35 l 1
 58 34 l 1
 57 34 l 1
 57 33 l 1
60 33 m 1
 58 33 l 1
 58 34 l 1
 59 34 l 1
 59 35 l 1
 60 35 l 1
 60 33 l 1
63 29 m 1
 61 29 l 1
 61 31 l 1
 63 31 l 1
 63 29 l 1
63 33 m 1
 61 33 l 1
 61 35 l 1
 63 35 l 1
 63 33 l 1
17 37 m 1
 15 37 l 1
 15 39 l 1
 17 39 l 1
 17 37 l 1
17 41 m 1
 15 41 l 1
 15 43 l 1
 17 43 l 1
 17 41 l 1
23 37 m 1
 21 37 l 1
 21 39 l 1
 23 39 l 1
 23 37 l 1
23 41 m 1
 21 41 l 1
 21 43 l 1
 23 43 l 1
 23 41 l 1
26 41 m 1
 24 41 l 1
 24 43 l 1
 25 43 l 1
 25 42 l 1
 26 42 l 1
 26 41 l 1
27 42 m 1
 26 42 l 1
 26 43 l 1
 28 43 l 1
 28 41 l 1
 27 41 l 1
 27 42 l 1
31 41 m 1
 29 41 l 1
 29 43 l 1
 31 43 l 1
 31 41 l 1
41 37 m 1
 39 37 l 1
 39 39 l 1
 41 39 l 1
 41 37 l 1
41 41 m 1
 39 41 l 1
 39 43 l 1
 41 43 l 1
 41 41 l 1
44 41 m 1
 42 41 l 1
 42 43 l 1
 43 43 l 1
 43 42 l 1
 44 42 l 1
 44 41 l 1
45 42 m 1
 44 42 l 1
 44 43 l 1
 46 43 l 1
 46 41 l 1
 45 41 l 1
 45 42 l 1
49 37 m 1
 47 37 l 1
 47 39 l 1
 49 39 l 1
 49 37 l 1
49 41 m 1
 47 41 l 1
 47 43 l 1
 49 43 l 1
 49 41 l 1
55 41 m 1
 53 41 l 1
 53 43 l 1
 55 43 l 1
 55 41 l 1
58 41 m 1
 56 41 l 1
 56 43 l 1
 57 43 l 1
 57 42 l 1
 58 42 l 1
 58 41 l 1
59 42 m 1
 58 42 l 1
 58 43 l 1
 60 43 l 1
 60 41 l 1
 59 41 l 1
 59 42 l 1
63 37 m 1
 61 37 l 1
 61 39 l 1
 63 39 l 1
 63 37 l 1
63 41 m 1
 61 41 l 1
 61 43 l 1
 63 43 l 1
 63 41 l 1
EndSplineSet
Ligature2: "'liga' Standard Ligatures in Latin lookup 0-1" zero nine zero four five
LCarets2: 1 0
EndChar

StartChar: custom_0_9_0_4_6
Encoding: 3002 -1 2757
Width: 70
Flags: H
LayerCount: 2
Fore
SplineSet
17 25 m 1
 15 25 l 1
 15 27 l 1
 17 27 l 1
 17 25 l 1
17 29 m 1
 15 29 l 1
 15 31 l 1
 17 31 l 1
 17 29 l 1
17 33 m 1
 15 33 l 1
 15 35 l 1
 17 35 l 1
 17 33 l 1
23 25 m 1
 21 25 l 1
 21 27 l 1
 23 27 l 1
 23 25 l 1
26 25 m 1
 24 25 l 1
 24 27 l 1
 25 27 l 1
 25 26 l 1
 26 26 l 1
 26 25 l 1
27 26 m 1
 26 26 l 1
 26 27 l 1
 28 27 l 1
 28 25 l 1
 27 25 l 1
 27 26 l 1
31 25 m 1
 29 25 l 1
 29 27 l 1
 31 27 l 1
 31 25 l 1
23 33 m 1
 21 33 l 1
 21 35 l 1
 23 35 l 1
 23 33 l 1
25 33 m 1
 24 33 l 1
 24 35 l 1
 26 35 l 1
 26 34 l 1
 25 34 l 1
 25 33 l 1
28 33 m 1
 26 33 l 1
 26 34 l 1
 27 34 l 1
 27 35 l 1
 28 35 l 1
 28 33 l 1
31 29 m 1
 29 29 l 1
 29 31 l 1
 31 31 l 1
 31 29 l 1
36 31 m 1
 34 31 l 1
 34 33 l 1
 36 33 l 1
 36 31 l 1
31 33 m 1
 29 33 l 1
 29 35 l 1
 31 35 l 1
 31 33 l 1
36 35 m 1
 34 35 l 1
 34 37 l 1
 36 37 l 1
 36 35 l 1
41 25 m 1
 39 25 l 1
 39 27 l 1
 41 27 l 1
 41 25 l 1
44 25 m 1
 42 25 l 1
 42 27 l 1
 43 27 l 1
 43 26 l 1
 44 26 l 1
 44 25 l 1
45 26 m 1
 44 26 l 1
 44 27 l 1
 46 27 l 1
 46 25 l 1
 45 25 l 1
 45 26 l 1
49 25 m 1
 47 25 l 1
 47 27 l 1
 49 27 l 1
 49 25 l 1
41 29 m 1
 39 29 l 1
 39 31 l 1
 41 31 l 1
 41 29 l 1
41 33 m 1
 39 33 l 1
 39 35 l 1
 41 35 l 1
 41 33 l 1
49 29 m 1
 47 29 l 1
 47 31 l 1
 49 31 l 1
 49 29 l 1
49 33 m 1
 47 33 l 1
 47 35 l 1
 49 35 l 1
 49 33 l 1
55 25 m 1
 53 25 l 1
 53 27 l 1
 55 27 l 1
 55 25 l 1
58 25 m 1
 56 25 l 1
 56 27 l 1
 57 27 l 1
 57 26 l 1
 58 26 l 1
 58 25 l 1
59 26 m 1
 58 26 l 1
 58 27 l 1
 60 27 l 1
 60 25 l 1
 59 25 l 1
 59 26 l 1
63 25 m 1
 61 25 l 1
 61 27 l 1
 63 27 l 1
 63 25 l 1
55 29 m 1
 53 29 l 1
 53 31 l 1
 55 31 l 1
 55 29 l 1
55 33 m 1
 53 33 l 1
 53 35 l 1
 55 35 l 1
 55 33 l 1
57 33 m 1
 56 33 l 1
 56 35 l 1
 58 35 l 1
 58 34 l 1
 57 34 l 1
 57 33 l 1
60 33 m 1
 58 33 l 1
 58 34 l 1
 59 34 l 1
 59 35 l 1
 60 35 l 1
 60 33 l 1
63 29 m 1
 61 29 l 1
 61 31 l 1
 63 31 l 1
 63 29 l 1
63 33 m 1
 61 33 l 1
 61 35 l 1
 63 35 l 1
 63 33 l 1
17 37 m 1
 15 37 l 1
 15 39 l 1
 17 39 l 1
 17 37 l 1
17 41 m 1
 15 41 l 1
 15 43 l 1
 17 43 l 1
 17 41 l 1
23 37 m 1
 21 37 l 1
 21 39 l 1
 23 39 l 1
 23 37 l 1
23 41 m 1
 21 41 l 1
 21 43 l 1
 23 43 l 1
 23 41 l 1
26 41 m 1
 24 41 l 1
 24 43 l 1
 25 43 l 1
 25 42 l 1
 26 42 l 1
 26 41 l 1
27 42 m 1
 26 42 l 1
 26 43 l 1
 28 43 l 1
 28 41 l 1
 27 41 l 1
 27 42 l 1
31 41 m 1
 29 41 l 1
 29 43 l 1
 31 43 l 1
 31 41 l 1
41 37 m 1
 39 37 l 1
 39 39 l 1
 41 39 l 1
 41 37 l 1
41 41 m 1
 39 41 l 1
 39 43 l 1
 41 43 l 1
 41 41 l 1
44 41 m 1
 42 41 l 1
 42 43 l 1
 43 43 l 1
 43 42 l 1
 44 42 l 1
 44 41 l 1
45 42 m 1
 44 42 l 1
 44 43 l 1
 46 43 l 1
 46 41 l 1
 45 41 l 1
 45 42 l 1
49 37 m 1
 47 37 l 1
 47 39 l 1
 49 39 l 1
 49 37 l 1
49 41 m 1
 47 41 l 1
 47 43 l 1
 49 43 l 1
 49 41 l 1
55 41 m 1
 53 41 l 1
 53 43 l 1
 55 43 l 1
 55 41 l 1
58 41 m 1
 56 41 l 1
 56 43 l 1
 57 43 l 1
 57 42 l 1
 58 42 l 1
 58 41 l 1
59 42 m 1
 58 42 l 1
 58 43 l 1
 60 43 l 1
 60 41 l 1
 59 41 l 1
 59 42 l 1
63 37 m 1
 61 37 l 1
 61 39 l 1
 63 39 l 1
 63 37 l 1
63 41 m 1
 61 41 l 1
 61 43 l 1
 63 43 l 1
 63 41 l 1
EndSplineSet
Ligature2: "'liga' Standard Ligatures in Latin lookup 0-1" zero nine zero four six
LCarets2: 1 0
EndChar

StartChar: custom_0_9_0_4_7
Encoding: 3003 -1 2758
Width: 70
Flags: H
LayerCount: 2
Fore
SplineSet
17 25 m 1
 15 25 l 1
 15 27 l 1
 17 27 l 1
 17 25 l 1
17 29 m 1
 15 29 l 1
 15 31 l 1
 17 31 l 1
 17 29 l 1
17 33 m 1
 15 33 l 1
 15 35 l 1
 17 35 l 1
 17 33 l 1
23 25 m 1
 21 25 l 1
 21 27 l 1
 23 27 l 1
 23 25 l 1
26 25 m 1
 24 25 l 1
 24 27 l 1
 25 27 l 1
 25 26 l 1
 26 26 l 1
 26 25 l 1
27 26 m 1
 26 26 l 1
 26 27 l 1
 28 27 l 1
 28 25 l 1
 27 25 l 1
 27 26 l 1
31 25 m 1
 29 25 l 1
 29 27 l 1
 31 27 l 1
 31 25 l 1
23 33 m 1
 21 33 l 1
 21 35 l 1
 23 35 l 1
 23 33 l 1
25 33 m 1
 24 33 l 1
 24 35 l 1
 26 35 l 1
 26 34 l 1
 25 34 l 1
 25 33 l 1
28 33 m 1
 26 33 l 1
 26 34 l 1
 27 34 l 1
 27 35 l 1
 28 35 l 1
 28 33 l 1
31 29 m 1
 29 29 l 1
 29 31 l 1
 31 31 l 1
 31 29 l 1
36 31 m 1
 34 31 l 1
 34 33 l 1
 36 33 l 1
 36 31 l 1
31 33 m 1
 29 33 l 1
 29 35 l 1
 31 35 l 1
 31 33 l 1
36 35 m 1
 34 35 l 1
 34 37 l 1
 36 37 l 1
 36 35 l 1
41 25 m 1
 39 25 l 1
 39 27 l 1
 41 27 l 1
 41 25 l 1
44 25 m 1
 42 25 l 1
 42 27 l 1
 43 27 l 1
 43 26 l 1
 44 26 l 1
 44 25 l 1
45 26 m 1
 44 26 l 1
 44 27 l 1
 46 27 l 1
 46 25 l 1
 45 25 l 1
 45 26 l 1
49 25 m 1
 47 25 l 1
 47 27 l 1
 49 27 l 1
 49 25 l 1
41 29 m 1
 39 29 l 1
 39 31 l 1
 41 31 l 1
 41 29 l 1
41 33 m 1
 39 33 l 1
 39 35 l 1
 41 35 l 1
 41 33 l 1
49 29 m 1
 47 29 l 1
 47 31 l 1
 49 31 l 1
 49 29 l 1
49 33 m 1
 47 33 l 1
 47 35 l 1
 49 35 l 1
 49 33 l 1
55 25 m 1
 53 25 l 1
 53 27 l 1
 55 27 l 1
 55 25 l 1
58 25 m 1
 56 25 l 1
 56 27 l 1
 57 27 l 1
 57 26 l 1
 58 26 l 1
 58 25 l 1
59 26 m 1
 58 26 l 1
 58 27 l 1
 60 27 l 1
 60 25 l 1
 59 25 l 1
 59 26 l 1
63 25 m 1
 61 25 l 1
 61 27 l 1
 63 27 l 1
 63 25 l 1
55 29 m 1
 53 29 l 1
 53 31 l 1
 55 31 l 1
 55 29 l 1
55 33 m 1
 53 33 l 1
 53 35 l 1
 55 35 l 1
 55 33 l 1
57 33 m 1
 56 33 l 1
 56 35 l 1
 58 35 l 1
 58 34 l 1
 57 34 l 1
 57 33 l 1
60 33 m 1
 58 33 l 1
 58 34 l 1
 59 34 l 1
 59 35 l 1
 60 35 l 1
 60 33 l 1
63 29 m 1
 61 29 l 1
 61 31 l 1
 63 31 l 1
 63 29 l 1
63 33 m 1
 61 33 l 1
 61 35 l 1
 63 35 l 1
 63 33 l 1
17 37 m 1
 15 37 l 1
 15 39 l 1
 17 39 l 1
 17 37 l 1
17 41 m 1
 15 41 l 1
 15 43 l 1
 17 43 l 1
 17 41 l 1
23 37 m 1
 21 37 l 1
 21 39 l 1
 23 39 l 1
 23 37 l 1
23 41 m 1
 21 41 l 1
 21 43 l 1
 23 43 l 1
 23 41 l 1
26 41 m 1
 24 41 l 1
 24 43 l 1
 25 43 l 1
 25 42 l 1
 26 42 l 1
 26 41 l 1
27 42 m 1
 26 42 l 1
 26 43 l 1
 28 43 l 1
 28 41 l 1
 27 41 l 1
 27 42 l 1
31 41 m 1
 29 41 l 1
 29 43 l 1
 31 43 l 1
 31 41 l 1
41 37 m 1
 39 37 l 1
 39 39 l 1
 41 39 l 1
 41 37 l 1
41 41 m 1
 39 41 l 1
 39 43 l 1
 41 43 l 1
 41 41 l 1
44 41 m 1
 42 41 l 1
 42 43 l 1
 43 43 l 1
 43 42 l 1
 44 42 l 1
 44 41 l 1
45 42 m 1
 44 42 l 1
 44 43 l 1
 46 43 l 1
 46 41 l 1
 45 41 l 1
 45 42 l 1
49 37 m 1
 47 37 l 1
 47 39 l 1
 49 39 l 1
 49 37 l 1
49 41 m 1
 47 41 l 1
 47 43 l 1
 49 43 l 1
 49 41 l 1
55 41 m 1
 53 41 l 1
 53 43 l 1
 55 43 l 1
 55 41 l 1
58 41 m 1
 56 41 l 1
 56 43 l 1
 57 43 l 1
 57 42 l 1
 58 42 l 1
 58 41 l 1
59 42 m 1
 58 42 l 1
 58 43 l 1
 60 43 l 1
 60 41 l 1
 59 41 l 1
 59 42 l 1
63 37 m 1
 61 37 l 1
 61 39 l 1
 63 39 l 1
 63 37 l 1
63 41 m 1
 61 41 l 1
 61 43 l 1
 63 43 l 1
 63 41 l 1
EndSplineSet
Ligature2: "'liga' Standard Ligatures in Latin lookup 0-1" zero nine zero four seven
LCarets2: 1 0
EndChar

StartChar: custom_0_9_0_4_8
Encoding: 3004 -1 2759
Width: 70
Flags: H
LayerCount: 2
Fore
SplineSet
17 25 m 1
 15 25 l 1
 15 27 l 1
 17 27 l 1
 17 25 l 1
17 29 m 1
 15 29 l 1
 15 31 l 1
 17 31 l 1
 17 29 l 1
17 33 m 1
 15 33 l 1
 15 35 l 1
 17 35 l 1
 17 33 l 1
23 25 m 1
 21 25 l 1
 21 27 l 1
 23 27 l 1
 23 25 l 1
26 25 m 1
 24 25 l 1
 24 27 l 1
 25 27 l 1
 25 26 l 1
 26 26 l 1
 26 25 l 1
27 26 m 1
 26 26 l 1
 26 27 l 1
 28 27 l 1
 28 25 l 1
 27 25 l 1
 27 26 l 1
31 25 m 1
 29 25 l 1
 29 27 l 1
 31 27 l 1
 31 25 l 1
23 33 m 1
 21 33 l 1
 21 35 l 1
 23 35 l 1
 23 33 l 1
25 33 m 1
 24 33 l 1
 24 35 l 1
 26 35 l 1
 26 34 l 1
 25 34 l 1
 25 33 l 1
28 33 m 1
 26 33 l 1
 26 34 l 1
 27 34 l 1
 27 35 l 1
 28 35 l 1
 28 33 l 1
31 29 m 1
 29 29 l 1
 29 31 l 1
 31 31 l 1
 31 29 l 1
36 31 m 1
 34 31 l 1
 34 33 l 1
 36 33 l 1
 36 31 l 1
31 33 m 1
 29 33 l 1
 29 35 l 1
 31 35 l 1
 31 33 l 1
36 35 m 1
 34 35 l 1
 34 37 l 1
 36 37 l 1
 36 35 l 1
41 25 m 1
 39 25 l 1
 39 27 l 1
 41 27 l 1
 41 25 l 1
44 25 m 1
 42 25 l 1
 42 27 l 1
 43 27 l 1
 43 26 l 1
 44 26 l 1
 44 25 l 1
45 26 m 1
 44 26 l 1
 44 27 l 1
 46 27 l 1
 46 25 l 1
 45 25 l 1
 45 26 l 1
49 25 m 1
 47 25 l 1
 47 27 l 1
 49 27 l 1
 49 25 l 1
41 29 m 1
 39 29 l 1
 39 31 l 1
 41 31 l 1
 41 29 l 1
41 33 m 1
 39 33 l 1
 39 35 l 1
 41 35 l 1
 41 33 l 1
49 29 m 1
 47 29 l 1
 47 31 l 1
 49 31 l 1
 49 29 l 1
49 33 m 1
 47 33 l 1
 47 35 l 1
 49 35 l 1
 49 33 l 1
55 25 m 1
 53 25 l 1
 53 27 l 1
 55 27 l 1
 55 25 l 1
58 25 m 1
 56 25 l 1
 56 27 l 1
 57 27 l 1
 57 26 l 1
 58 26 l 1
 58 25 l 1
59 26 m 1
 58 26 l 1
 58 27 l 1
 60 27 l 1
 60 25 l 1
 59 25 l 1
 59 26 l 1
63 25 m 1
 61 25 l 1
 61 27 l 1
 63 27 l 1
 63 25 l 1
55 29 m 1
 53 29 l 1
 53 31 l 1
 55 31 l 1
 55 29 l 1
55 33 m 1
 53 33 l 1
 53 35 l 1
 55 35 l 1
 55 33 l 1
57 33 m 1
 56 33 l 1
 56 35 l 1
 58 35 l 1
 58 34 l 1
 57 34 l 1
 57 33 l 1
60 33 m 1
 58 33 l 1
 58 34 l 1
 59 34 l 1
 59 35 l 1
 60 35 l 1
 60 33 l 1
63 29 m 1
 61 29 l 1
 61 31 l 1
 63 31 l 1
 63 29 l 1
63 33 m 1
 61 33 l 1
 61 35 l 1
 63 35 l 1
 63 33 l 1
17 37 m 1
 15 37 l 1
 15 39 l 1
 17 39 l 1
 17 37 l 1
17 41 m 1
 15 41 l 1
 15 43 l 1
 17 43 l 1
 17 41 l 1
23 37 m 1
 21 37 l 1
 21 39 l 1
 23 39 l 1
 23 37 l 1
23 41 m 1
 21 41 l 1
 21 43 l 1
 23 43 l 1
 23 41 l 1
26 41 m 1
 24 41 l 1
 24 43 l 1
 25 43 l 1
 25 42 l 1
 26 42 l 1
 26 41 l 1
27 42 m 1
 26 42 l 1
 26 43 l 1
 28 43 l 1
 28 41 l 1
 27 41 l 1
 27 42 l 1
31 41 m 1
 29 41 l 1
 29 43 l 1
 31 43 l 1
 31 41 l 1
41 37 m 1
 39 37 l 1
 39 39 l 1
 41 39 l 1
 41 37 l 1
41 41 m 1
 39 41 l 1
 39 43 l 1
 41 43 l 1
 41 41 l 1
44 41 m 1
 42 41 l 1
 42 43 l 1
 43 43 l 1
 43 42 l 1
 44 42 l 1
 44 41 l 1
45 42 m 1
 44 42 l 1
 44 43 l 1
 46 43 l 1
 46 41 l 1
 45 41 l 1
 45 42 l 1
49 37 m 1
 47 37 l 1
 47 39 l 1
 49 39 l 1
 49 37 l 1
49 41 m 1
 47 41 l 1
 47 43 l 1
 49 43 l 1
 49 41 l 1
55 41 m 1
 53 41 l 1
 53 43 l 1
 55 43 l 1
 55 41 l 1
58 41 m 1
 56 41 l 1
 56 43 l 1
 57 43 l 1
 57 42 l 1
 58 42 l 1
 58 41 l 1
59 42 m 1
 58 42 l 1
 58 43 l 1
 60 43 l 1
 60 41 l 1
 59 41 l 1
 59 42 l 1
63 37 m 1
 61 37 l 1
 61 39 l 1
 63 39 l 1
 63 37 l 1
63 41 m 1
 61 41 l 1
 61 43 l 1
 63 43 l 1
 63 41 l 1
EndSplineSet
Ligature2: "'liga' Standard Ligatures in Latin lookup 0-1" zero nine zero four eight
LCarets2: 1 0
EndChar

StartChar: custom_0_9_0_4_9
Encoding: 3005 -1 2760
Width: 70
Flags: H
LayerCount: 2
Fore
SplineSet
17 25 m 1
 15 25 l 1
 15 27 l 1
 17 27 l 1
 17 25 l 1
17 29 m 1
 15 29 l 1
 15 31 l 1
 17 31 l 1
 17 29 l 1
17 33 m 1
 15 33 l 1
 15 35 l 1
 17 35 l 1
 17 33 l 1
23 25 m 1
 21 25 l 1
 21 27 l 1
 23 27 l 1
 23 25 l 1
26 25 m 1
 24 25 l 1
 24 27 l 1
 25 27 l 1
 25 26 l 1
 26 26 l 1
 26 25 l 1
27 26 m 1
 26 26 l 1
 26 27 l 1
 28 27 l 1
 28 25 l 1
 27 25 l 1
 27 26 l 1
31 25 m 1
 29 25 l 1
 29 27 l 1
 31 27 l 1
 31 25 l 1
23 33 m 1
 21 33 l 1
 21 35 l 1
 23 35 l 1
 23 33 l 1
25 33 m 1
 24 33 l 1
 24 35 l 1
 26 35 l 1
 26 34 l 1
 25 34 l 1
 25 33 l 1
28 33 m 1
 26 33 l 1
 26 34 l 1
 27 34 l 1
 27 35 l 1
 28 35 l 1
 28 33 l 1
31 29 m 1
 29 29 l 1
 29 31 l 1
 31 31 l 1
 31 29 l 1
36 31 m 1
 34 31 l 1
 34 33 l 1
 36 33 l 1
 36 31 l 1
31 33 m 1
 29 33 l 1
 29 35 l 1
 31 35 l 1
 31 33 l 1
36 35 m 1
 34 35 l 1
 34 37 l 1
 36 37 l 1
 36 35 l 1
41 25 m 1
 39 25 l 1
 39 27 l 1
 41 27 l 1
 41 25 l 1
44 25 m 1
 42 25 l 1
 42 27 l 1
 43 27 l 1
 43 26 l 1
 44 26 l 1
 44 25 l 1
45 26 m 1
 44 26 l 1
 44 27 l 1
 46 27 l 1
 46 25 l 1
 45 25 l 1
 45 26 l 1
49 25 m 1
 47 25 l 1
 47 27 l 1
 49 27 l 1
 49 25 l 1
41 29 m 1
 39 29 l 1
 39 31 l 1
 41 31 l 1
 41 29 l 1
41 33 m 1
 39 33 l 1
 39 35 l 1
 41 35 l 1
 41 33 l 1
49 29 m 1
 47 29 l 1
 47 31 l 1
 49 31 l 1
 49 29 l 1
49 33 m 1
 47 33 l 1
 47 35 l 1
 49 35 l 1
 49 33 l 1
55 25 m 1
 53 25 l 1
 53 27 l 1
 55 27 l 1
 55 25 l 1
58 25 m 1
 56 25 l 1
 56 27 l 1
 57 27 l 1
 57 26 l 1
 58 26 l 1
 58 25 l 1
59 26 m 1
 58 26 l 1
 58 27 l 1
 60 27 l 1
 60 25 l 1
 59 25 l 1
 59 26 l 1
63 25 m 1
 61 25 l 1
 61 27 l 1
 63 27 l 1
 63 25 l 1
55 29 m 1
 53 29 l 1
 53 31 l 1
 55 31 l 1
 55 29 l 1
55 33 m 1
 53 33 l 1
 53 35 l 1
 55 35 l 1
 55 33 l 1
57 33 m 1
 56 33 l 1
 56 35 l 1
 58 35 l 1
 58 34 l 1
 57 34 l 1
 57 33 l 1
60 33 m 1
 58 33 l 1
 58 34 l 1
 59 34 l 1
 59 35 l 1
 60 35 l 1
 60 33 l 1
63 29 m 1
 61 29 l 1
 61 31 l 1
 63 31 l 1
 63 29 l 1
63 33 m 1
 61 33 l 1
 61 35 l 1
 63 35 l 1
 63 33 l 1
17 37 m 1
 15 37 l 1
 15 39 l 1
 17 39 l 1
 17 37 l 1
17 41 m 1
 15 41 l 1
 15 43 l 1
 17 43 l 1
 17 41 l 1
23 37 m 1
 21 37 l 1
 21 39 l 1
 23 39 l 1
 23 37 l 1
23 41 m 1
 21 41 l 1
 21 43 l 1
 23 43 l 1
 23 41 l 1
26 41 m 1
 24 41 l 1
 24 43 l 1
 25 43 l 1
 25 42 l 1
 26 42 l 1
 26 41 l 1
27 42 m 1
 26 42 l 1
 26 43 l 1
 28 43 l 1
 28 41 l 1
 27 41 l 1
 27 42 l 1
31 41 m 1
 29 41 l 1
 29 43 l 1
 31 43 l 1
 31 41 l 1
41 37 m 1
 39 37 l 1
 39 39 l 1
 41 39 l 1
 41 37 l 1
41 41 m 1
 39 41 l 1
 39 43 l 1
 41 43 l 1
 41 41 l 1
44 41 m 1
 42 41 l 1
 42 43 l 1
 43 43 l 1
 43 42 l 1
 44 42 l 1
 44 41 l 1
45 42 m 1
 44 42 l 1
 44 43 l 1
 46 43 l 1
 46 41 l 1
 45 41 l 1
 45 42 l 1
49 37 m 1
 47 37 l 1
 47 39 l 1
 49 39 l 1
 49 37 l 1
49 41 m 1
 47 41 l 1
 47 43 l 1
 49 43 l 1
 49 41 l 1
55 41 m 1
 53 41 l 1
 53 43 l 1
 55 43 l 1
 55 41 l 1
58 41 m 1
 56 41 l 1
 56 43 l 1
 57 43 l 1
 57 42 l 1
 58 42 l 1
 58 41 l 1
59 42 m 1
 58 42 l 1
 58 43 l 1
 60 43 l 1
 60 41 l 1
 59 41 l 1
 59 42 l 1
63 37 m 1
 61 37 l 1
 61 39 l 1
 63 39 l 1
 63 37 l 1
63 41 m 1
 61 41 l 1
 61 43 l 1
 63 43 l 1
 63 41 l 1
EndSplineSet
Ligature2: "'liga' Standard Ligatures in Latin lookup 0-1" zero nine zero four nine
LCarets2: 1 0
EndChar

StartChar: custom_0_9_0_5_0
Encoding: 3006 -1 2761
Width: 70
Flags: H
LayerCount: 2
Fore
SplineSet
17 25 m 1
 15 25 l 1
 15 27 l 1
 17 27 l 1
 17 25 l 1
17 29 m 1
 15 29 l 1
 15 31 l 1
 17 31 l 1
 17 29 l 1
17 33 m 1
 15 33 l 1
 15 35 l 1
 17 35 l 1
 17 33 l 1
23 25 m 1
 21 25 l 1
 21 27 l 1
 23 27 l 1
 23 25 l 1
26 25 m 1
 24 25 l 1
 24 27 l 1
 25 27 l 1
 25 26 l 1
 26 26 l 1
 26 25 l 1
27 26 m 1
 26 26 l 1
 26 27 l 1
 28 27 l 1
 28 25 l 1
 27 25 l 1
 27 26 l 1
31 25 m 1
 29 25 l 1
 29 27 l 1
 31 27 l 1
 31 25 l 1
23 33 m 1
 21 33 l 1
 21 35 l 1
 23 35 l 1
 23 33 l 1
25 33 m 1
 24 33 l 1
 24 35 l 1
 26 35 l 1
 26 34 l 1
 25 34 l 1
 25 33 l 1
28 33 m 1
 26 33 l 1
 26 34 l 1
 27 34 l 1
 27 35 l 1
 28 35 l 1
 28 33 l 1
31 29 m 1
 29 29 l 1
 29 31 l 1
 31 31 l 1
 31 29 l 1
36 31 m 1
 34 31 l 1
 34 33 l 1
 36 33 l 1
 36 31 l 1
31 33 m 1
 29 33 l 1
 29 35 l 1
 31 35 l 1
 31 33 l 1
36 35 m 1
 34 35 l 1
 34 37 l 1
 36 37 l 1
 36 35 l 1
41 25 m 1
 39 25 l 1
 39 27 l 1
 41 27 l 1
 41 25 l 1
44 25 m 1
 42 25 l 1
 42 27 l 1
 43 27 l 1
 43 26 l 1
 44 26 l 1
 44 25 l 1
45 26 m 1
 44 26 l 1
 44 27 l 1
 46 27 l 1
 46 25 l 1
 45 25 l 1
 45 26 l 1
49 25 m 1
 47 25 l 1
 47 27 l 1
 49 27 l 1
 49 25 l 1
41 29 m 1
 39 29 l 1
 39 31 l 1
 41 31 l 1
 41 29 l 1
41 33 m 1
 39 33 l 1
 39 35 l 1
 41 35 l 1
 41 33 l 1
49 29 m 1
 47 29 l 1
 47 31 l 1
 49 31 l 1
 49 29 l 1
49 33 m 1
 47 33 l 1
 47 35 l 1
 49 35 l 1
 49 33 l 1
55 25 m 1
 53 25 l 1
 53 27 l 1
 55 27 l 1
 55 25 l 1
58 25 m 1
 56 25 l 1
 56 27 l 1
 57 27 l 1
 57 26 l 1
 58 26 l 1
 58 25 l 1
59 26 m 1
 58 26 l 1
 58 27 l 1
 60 27 l 1
 60 25 l 1
 59 25 l 1
 59 26 l 1
63 25 m 1
 61 25 l 1
 61 27 l 1
 63 27 l 1
 63 25 l 1
55 29 m 1
 53 29 l 1
 53 31 l 1
 55 31 l 1
 55 29 l 1
55 33 m 1
 53 33 l 1
 53 35 l 1
 55 35 l 1
 55 33 l 1
57 33 m 1
 56 33 l 1
 56 35 l 1
 58 35 l 1
 58 34 l 1
 57 34 l 1
 57 33 l 1
60 33 m 1
 58 33 l 1
 58 34 l 1
 59 34 l 1
 59 35 l 1
 60 35 l 1
 60 33 l 1
63 29 m 1
 61 29 l 1
 61 31 l 1
 63 31 l 1
 63 29 l 1
63 33 m 1
 61 33 l 1
 61 35 l 1
 63 35 l 1
 63 33 l 1
17 37 m 1
 15 37 l 1
 15 39 l 1
 17 39 l 1
 17 37 l 1
17 41 m 1
 15 41 l 1
 15 43 l 1
 17 43 l 1
 17 41 l 1
23 37 m 1
 21 37 l 1
 21 39 l 1
 23 39 l 1
 23 37 l 1
23 41 m 1
 21 41 l 1
 21 43 l 1
 23 43 l 1
 23 41 l 1
26 41 m 1
 24 41 l 1
 24 43 l 1
 25 43 l 1
 25 42 l 1
 26 42 l 1
 26 41 l 1
27 42 m 1
 26 42 l 1
 26 43 l 1
 28 43 l 1
 28 41 l 1
 27 41 l 1
 27 42 l 1
31 41 m 1
 29 41 l 1
 29 43 l 1
 31 43 l 1
 31 41 l 1
41 37 m 1
 39 37 l 1
 39 39 l 1
 41 39 l 1
 41 37 l 1
41 41 m 1
 39 41 l 1
 39 43 l 1
 41 43 l 1
 41 41 l 1
44 41 m 1
 42 41 l 1
 42 43 l 1
 43 43 l 1
 43 42 l 1
 44 42 l 1
 44 41 l 1
45 42 m 1
 44 42 l 1
 44 43 l 1
 46 43 l 1
 46 41 l 1
 45 41 l 1
 45 42 l 1
49 37 m 1
 47 37 l 1
 47 39 l 1
 49 39 l 1
 49 37 l 1
49 41 m 1
 47 41 l 1
 47 43 l 1
 49 43 l 1
 49 41 l 1
55 41 m 1
 53 41 l 1
 53 43 l 1
 55 43 l 1
 55 41 l 1
58 41 m 1
 56 41 l 1
 56 43 l 1
 57 43 l 1
 57 42 l 1
 58 42 l 1
 58 41 l 1
59 42 m 1
 58 42 l 1
 58 43 l 1
 60 43 l 1
 60 41 l 1
 59 41 l 1
 59 42 l 1
63 37 m 1
 61 37 l 1
 61 39 l 1
 63 39 l 1
 63 37 l 1
63 41 m 1
 61 41 l 1
 61 43 l 1
 63 43 l 1
 63 41 l 1
EndSplineSet
Ligature2: "'liga' Standard Ligatures in Latin lookup 0-1" zero nine zero five zero
LCarets2: 1 0
EndChar

StartChar: custom_0_9_0_5_1
Encoding: 3007 -1 2762
Width: 70
Flags: H
LayerCount: 2
Fore
SplineSet
1 5 m 1
 0 5 l 1
 0 6 l 1
 1 6 l 1
 1 5 l 1
17 25 m 1
 15 25 l 1
 15 27 l 1
 17 27 l 1
 17 25 l 1
17 29 m 1
 15 29 l 1
 15 31 l 1
 17 31 l 1
 17 29 l 1
17 33 m 1
 15 33 l 1
 15 35 l 1
 17 35 l 1
 17 33 l 1
23 25 m 1
 21 25 l 1
 21 27 l 1
 23 27 l 1
 23 25 l 1
26 25 m 1
 24 25 l 1
 24 27 l 1
 25 27 l 1
 25 26 l 1
 26 26 l 1
 26 25 l 1
27 26 m 1
 26 26 l 1
 26 27 l 1
 28 27 l 1
 28 25 l 1
 27 25 l 1
 27 26 l 1
31 25 m 1
 29 25 l 1
 29 27 l 1
 31 27 l 1
 31 25 l 1
23 33 m 1
 21 33 l 1
 21 35 l 1
 23 35 l 1
 23 33 l 1
25 33 m 1
 24 33 l 1
 24 35 l 1
 26 35 l 1
 26 34 l 1
 25 34 l 1
 25 33 l 1
28 33 m 1
 26 33 l 1
 26 34 l 1
 27 34 l 1
 27 35 l 1
 28 35 l 1
 28 33 l 1
31 29 m 1
 29 29 l 1
 29 31 l 1
 31 31 l 1
 31 29 l 1
36 31 m 1
 34 31 l 1
 34 33 l 1
 36 33 l 1
 36 31 l 1
31 33 m 1
 29 33 l 1
 29 35 l 1
 31 35 l 1
 31 33 l 1
36 35 m 1
 34 35 l 1
 34 37 l 1
 36 37 l 1
 36 35 l 1
41 25 m 1
 39 25 l 1
 39 27 l 1
 41 27 l 1
 41 25 l 1
44 25 m 1
 42 25 l 1
 42 27 l 1
 43 27 l 1
 43 26 l 1
 44 26 l 1
 44 25 l 1
45 26 m 1
 44 26 l 1
 44 27 l 1
 46 27 l 1
 46 25 l 1
 45 25 l 1
 45 26 l 1
49 25 m 1
 47 25 l 1
 47 27 l 1
 49 27 l 1
 49 25 l 1
41 29 m 1
 39 29 l 1
 39 31 l 1
 41 31 l 1
 41 29 l 1
41 33 m 1
 39 33 l 1
 39 35 l 1
 41 35 l 1
 41 33 l 1
49 29 m 1
 47 29 l 1
 47 31 l 1
 49 31 l 1
 49 29 l 1
49 33 m 1
 47 33 l 1
 47 35 l 1
 49 35 l 1
 49 33 l 1
55 25 m 1
 53 25 l 1
 53 27 l 1
 55 27 l 1
 55 25 l 1
58 25 m 1
 56 25 l 1
 56 27 l 1
 57 27 l 1
 57 26 l 1
 58 26 l 1
 58 25 l 1
59 26 m 1
 58 26 l 1
 58 27 l 1
 60 27 l 1
 60 25 l 1
 59 25 l 1
 59 26 l 1
63 25 m 1
 61 25 l 1
 61 27 l 1
 63 27 l 1
 63 25 l 1
55 29 m 1
 53 29 l 1
 53 31 l 1
 55 31 l 1
 55 29 l 1
55 33 m 1
 53 33 l 1
 53 35 l 1
 55 35 l 1
 55 33 l 1
57 33 m 1
 56 33 l 1
 56 35 l 1
 58 35 l 1
 58 34 l 1
 57 34 l 1
 57 33 l 1
60 33 m 1
 58 33 l 1
 58 34 l 1
 59 34 l 1
 59 35 l 1
 60 35 l 1
 60 33 l 1
63 29 m 1
 61 29 l 1
 61 31 l 1
 63 31 l 1
 63 29 l 1
63 33 m 1
 61 33 l 1
 61 35 l 1
 63 35 l 1
 63 33 l 1
17 37 m 1
 15 37 l 1
 15 39 l 1
 17 39 l 1
 17 37 l 1
17 41 m 1
 15 41 l 1
 15 43 l 1
 17 43 l 1
 17 41 l 1
23 37 m 1
 21 37 l 1
 21 39 l 1
 23 39 l 1
 23 37 l 1
23 41 m 1
 21 41 l 1
 21 43 l 1
 23 43 l 1
 23 41 l 1
26 41 m 1
 24 41 l 1
 24 43 l 1
 25 43 l 1
 25 42 l 1
 26 42 l 1
 26 41 l 1
27 42 m 1
 26 42 l 1
 26 43 l 1
 28 43 l 1
 28 41 l 1
 27 41 l 1
 27 42 l 1
31 41 m 1
 29 41 l 1
 29 43 l 1
 31 43 l 1
 31 41 l 1
41 37 m 1
 39 37 l 1
 39 39 l 1
 41 39 l 1
 41 37 l 1
41 41 m 1
 39 41 l 1
 39 43 l 1
 41 43 l 1
 41 41 l 1
44 41 m 1
 42 41 l 1
 42 43 l 1
 43 43 l 1
 43 42 l 1
 44 42 l 1
 44 41 l 1
45 42 m 1
 44 42 l 1
 44 43 l 1
 46 43 l 1
 46 41 l 1
 45 41 l 1
 45 42 l 1
49 37 m 1
 47 37 l 1
 47 39 l 1
 49 39 l 1
 49 37 l 1
49 41 m 1
 47 41 l 1
 47 43 l 1
 49 43 l 1
 49 41 l 1
55 41 m 1
 53 41 l 1
 53 43 l 1
 55 43 l 1
 55 41 l 1
58 41 m 1
 56 41 l 1
 56 43 l 1
 57 43 l 1
 57 42 l 1
 58 42 l 1
 58 41 l 1
59 42 m 1
 58 42 l 1
 58 43 l 1
 60 43 l 1
 60 41 l 1
 59 41 l 1
 59 42 l 1
63 37 m 1
 61 37 l 1
 61 39 l 1
 63 39 l 1
 63 37 l 1
63 41 m 1
 61 41 l 1
 61 43 l 1
 63 43 l 1
 63 41 l 1
EndSplineSet
Ligature2: "'liga' Standard Ligatures in Latin lookup 0-1" zero nine zero five one
LCarets2: 1 0
EndChar

StartChar: custom_0_9_0_5_2
Encoding: 3008 -1 2763
Width: 70
Flags: H
LayerCount: 2
Fore
SplineSet
1 5 m 1
 0 5 l 1
 0 7 l 1
 1 7 l 1
 1 5 l 1
17 25 m 1
 15 25 l 1
 15 27 l 1
 17 27 l 1
 17 25 l 1
17 29 m 1
 15 29 l 1
 15 31 l 1
 17 31 l 1
 17 29 l 1
17 33 m 1
 15 33 l 1
 15 35 l 1
 17 35 l 1
 17 33 l 1
23 25 m 1
 21 25 l 1
 21 27 l 1
 23 27 l 1
 23 25 l 1
26 25 m 1
 24 25 l 1
 24 27 l 1
 25 27 l 1
 25 26 l 1
 26 26 l 1
 26 25 l 1
27 26 m 1
 26 26 l 1
 26 27 l 1
 28 27 l 1
 28 25 l 1
 27 25 l 1
 27 26 l 1
31 25 m 1
 29 25 l 1
 29 27 l 1
 31 27 l 1
 31 25 l 1
23 33 m 1
 21 33 l 1
 21 35 l 1
 23 35 l 1
 23 33 l 1
25 33 m 1
 24 33 l 1
 24 35 l 1
 26 35 l 1
 26 34 l 1
 25 34 l 1
 25 33 l 1
28 33 m 1
 26 33 l 1
 26 34 l 1
 27 34 l 1
 27 35 l 1
 28 35 l 1
 28 33 l 1
31 29 m 1
 29 29 l 1
 29 31 l 1
 31 31 l 1
 31 29 l 1
36 31 m 1
 34 31 l 1
 34 33 l 1
 36 33 l 1
 36 31 l 1
31 33 m 1
 29 33 l 1
 29 35 l 1
 31 35 l 1
 31 33 l 1
36 35 m 1
 34 35 l 1
 34 37 l 1
 36 37 l 1
 36 35 l 1
41 25 m 1
 39 25 l 1
 39 27 l 1
 41 27 l 1
 41 25 l 1
44 25 m 1
 42 25 l 1
 42 27 l 1
 43 27 l 1
 43 26 l 1
 44 26 l 1
 44 25 l 1
45 26 m 1
 44 26 l 1
 44 27 l 1
 46 27 l 1
 46 25 l 1
 45 25 l 1
 45 26 l 1
49 25 m 1
 47 25 l 1
 47 27 l 1
 49 27 l 1
 49 25 l 1
41 29 m 1
 39 29 l 1
 39 31 l 1
 41 31 l 1
 41 29 l 1
41 33 m 1
 39 33 l 1
 39 35 l 1
 41 35 l 1
 41 33 l 1
49 29 m 1
 47 29 l 1
 47 31 l 1
 49 31 l 1
 49 29 l 1
49 33 m 1
 47 33 l 1
 47 35 l 1
 49 35 l 1
 49 33 l 1
55 25 m 1
 53 25 l 1
 53 27 l 1
 55 27 l 1
 55 25 l 1
58 25 m 1
 56 25 l 1
 56 27 l 1
 57 27 l 1
 57 26 l 1
 58 26 l 1
 58 25 l 1
59 26 m 1
 58 26 l 1
 58 27 l 1
 60 27 l 1
 60 25 l 1
 59 25 l 1
 59 26 l 1
63 25 m 1
 61 25 l 1
 61 27 l 1
 63 27 l 1
 63 25 l 1
55 29 m 1
 53 29 l 1
 53 31 l 1
 55 31 l 1
 55 29 l 1
55 33 m 1
 53 33 l 1
 53 35 l 1
 55 35 l 1
 55 33 l 1
57 33 m 1
 56 33 l 1
 56 35 l 1
 58 35 l 1
 58 34 l 1
 57 34 l 1
 57 33 l 1
60 33 m 1
 58 33 l 1
 58 34 l 1
 59 34 l 1
 59 35 l 1
 60 35 l 1
 60 33 l 1
63 29 m 1
 61 29 l 1
 61 31 l 1
 63 31 l 1
 63 29 l 1
63 33 m 1
 61 33 l 1
 61 35 l 1
 63 35 l 1
 63 33 l 1
17 37 m 1
 15 37 l 1
 15 39 l 1
 17 39 l 1
 17 37 l 1
17 41 m 1
 15 41 l 1
 15 43 l 1
 17 43 l 1
 17 41 l 1
23 37 m 1
 21 37 l 1
 21 39 l 1
 23 39 l 1
 23 37 l 1
23 41 m 1
 21 41 l 1
 21 43 l 1
 23 43 l 1
 23 41 l 1
26 41 m 1
 24 41 l 1
 24 43 l 1
 25 43 l 1
 25 42 l 1
 26 42 l 1
 26 41 l 1
27 42 m 1
 26 42 l 1
 26 43 l 1
 28 43 l 1
 28 41 l 1
 27 41 l 1
 27 42 l 1
31 41 m 1
 29 41 l 1
 29 43 l 1
 31 43 l 1
 31 41 l 1
41 37 m 1
 39 37 l 1
 39 39 l 1
 41 39 l 1
 41 37 l 1
41 41 m 1
 39 41 l 1
 39 43 l 1
 41 43 l 1
 41 41 l 1
44 41 m 1
 42 41 l 1
 42 43 l 1
 43 43 l 1
 43 42 l 1
 44 42 l 1
 44 41 l 1
45 42 m 1
 44 42 l 1
 44 43 l 1
 46 43 l 1
 46 41 l 1
 45 41 l 1
 45 42 l 1
49 37 m 1
 47 37 l 1
 47 39 l 1
 49 39 l 1
 49 37 l 1
49 41 m 1
 47 41 l 1
 47 43 l 1
 49 43 l 1
 49 41 l 1
55 41 m 1
 53 41 l 1
 53 43 l 1
 55 43 l 1
 55 41 l 1
58 41 m 1
 56 41 l 1
 56 43 l 1
 57 43 l 1
 57 42 l 1
 58 42 l 1
 58 41 l 1
59 42 m 1
 58 42 l 1
 58 43 l 1
 60 43 l 1
 60 41 l 1
 59 41 l 1
 59 42 l 1
63 37 m 1
 61 37 l 1
 61 39 l 1
 63 39 l 1
 63 37 l 1
63 41 m 1
 61 41 l 1
 61 43 l 1
 63 43 l 1
 63 41 l 1
EndSplineSet
Ligature2: "'liga' Standard Ligatures in Latin lookup 0-1" zero nine zero five two
LCarets2: 1 0
EndChar

StartChar: custom_0_9_0_5_3
Encoding: 3009 -1 2764
Width: 70
Flags: H
LayerCount: 2
Fore
SplineSet
1 5 m 1
 0 5 l 1
 0 7 l 1
 1 7 l 1
 1 5 l 1
17 25 m 1
 15 25 l 1
 15 27 l 1
 17 27 l 1
 17 25 l 1
17 29 m 1
 15 29 l 1
 15 31 l 1
 17 31 l 1
 17 29 l 1
17 33 m 1
 15 33 l 1
 15 35 l 1
 17 35 l 1
 17 33 l 1
23 25 m 1
 21 25 l 1
 21 27 l 1
 23 27 l 1
 23 25 l 1
26 25 m 1
 24 25 l 1
 24 27 l 1
 25 27 l 1
 25 26 l 1
 26 26 l 1
 26 25 l 1
27 26 m 1
 26 26 l 1
 26 27 l 1
 28 27 l 1
 28 25 l 1
 27 25 l 1
 27 26 l 1
31 25 m 1
 29 25 l 1
 29 27 l 1
 31 27 l 1
 31 25 l 1
23 33 m 1
 21 33 l 1
 21 35 l 1
 23 35 l 1
 23 33 l 1
25 33 m 1
 24 33 l 1
 24 35 l 1
 26 35 l 1
 26 34 l 1
 25 34 l 1
 25 33 l 1
28 33 m 1
 26 33 l 1
 26 34 l 1
 27 34 l 1
 27 35 l 1
 28 35 l 1
 28 33 l 1
31 29 m 1
 29 29 l 1
 29 31 l 1
 31 31 l 1
 31 29 l 1
36 31 m 1
 34 31 l 1
 34 33 l 1
 36 33 l 1
 36 31 l 1
31 33 m 1
 29 33 l 1
 29 35 l 1
 31 35 l 1
 31 33 l 1
36 35 m 1
 34 35 l 1
 34 37 l 1
 36 37 l 1
 36 35 l 1
41 25 m 1
 39 25 l 1
 39 27 l 1
 41 27 l 1
 41 25 l 1
44 25 m 1
 42 25 l 1
 42 27 l 1
 43 27 l 1
 43 26 l 1
 44 26 l 1
 44 25 l 1
45 26 m 1
 44 26 l 1
 44 27 l 1
 46 27 l 1
 46 25 l 1
 45 25 l 1
 45 26 l 1
49 25 m 1
 47 25 l 1
 47 27 l 1
 49 27 l 1
 49 25 l 1
41 29 m 1
 39 29 l 1
 39 31 l 1
 41 31 l 1
 41 29 l 1
41 33 m 1
 39 33 l 1
 39 35 l 1
 41 35 l 1
 41 33 l 1
49 29 m 1
 47 29 l 1
 47 31 l 1
 49 31 l 1
 49 29 l 1
49 33 m 1
 47 33 l 1
 47 35 l 1
 49 35 l 1
 49 33 l 1
55 25 m 1
 53 25 l 1
 53 27 l 1
 55 27 l 1
 55 25 l 1
58 25 m 1
 56 25 l 1
 56 27 l 1
 57 27 l 1
 57 26 l 1
 58 26 l 1
 58 25 l 1
59 26 m 1
 58 26 l 1
 58 27 l 1
 60 27 l 1
 60 25 l 1
 59 25 l 1
 59 26 l 1
63 25 m 1
 61 25 l 1
 61 27 l 1
 63 27 l 1
 63 25 l 1
55 29 m 1
 53 29 l 1
 53 31 l 1
 55 31 l 1
 55 29 l 1
55 33 m 1
 53 33 l 1
 53 35 l 1
 55 35 l 1
 55 33 l 1
57 33 m 1
 56 33 l 1
 56 35 l 1
 58 35 l 1
 58 34 l 1
 57 34 l 1
 57 33 l 1
60 33 m 1
 58 33 l 1
 58 34 l 1
 59 34 l 1
 59 35 l 1
 60 35 l 1
 60 33 l 1
63 29 m 1
 61 29 l 1
 61 31 l 1
 63 31 l 1
 63 29 l 1
63 33 m 1
 61 33 l 1
 61 35 l 1
 63 35 l 1
 63 33 l 1
17 37 m 1
 15 37 l 1
 15 39 l 1
 17 39 l 1
 17 37 l 1
17 41 m 1
 15 41 l 1
 15 43 l 1
 17 43 l 1
 17 41 l 1
23 37 m 1
 21 37 l 1
 21 39 l 1
 23 39 l 1
 23 37 l 1
23 41 m 1
 21 41 l 1
 21 43 l 1
 23 43 l 1
 23 41 l 1
26 41 m 1
 24 41 l 1
 24 43 l 1
 25 43 l 1
 25 42 l 1
 26 42 l 1
 26 41 l 1
27 42 m 1
 26 42 l 1
 26 43 l 1
 28 43 l 1
 28 41 l 1
 27 41 l 1
 27 42 l 1
31 41 m 1
 29 41 l 1
 29 43 l 1
 31 43 l 1
 31 41 l 1
41 37 m 1
 39 37 l 1
 39 39 l 1
 41 39 l 1
 41 37 l 1
41 41 m 1
 39 41 l 1
 39 43 l 1
 41 43 l 1
 41 41 l 1
44 41 m 1
 42 41 l 1
 42 43 l 1
 43 43 l 1
 43 42 l 1
 44 42 l 1
 44 41 l 1
45 42 m 1
 44 42 l 1
 44 43 l 1
 46 43 l 1
 46 41 l 1
 45 41 l 1
 45 42 l 1
49 37 m 1
 47 37 l 1
 47 39 l 1
 49 39 l 1
 49 37 l 1
49 41 m 1
 47 41 l 1
 47 43 l 1
 49 43 l 1
 49 41 l 1
55 41 m 1
 53 41 l 1
 53 43 l 1
 55 43 l 1
 55 41 l 1
58 41 m 1
 56 41 l 1
 56 43 l 1
 57 43 l 1
 57 42 l 1
 58 42 l 1
 58 41 l 1
59 42 m 1
 58 42 l 1
 58 43 l 1
 60 43 l 1
 60 41 l 1
 59 41 l 1
 59 42 l 1
63 37 m 1
 61 37 l 1
 61 39 l 1
 63 39 l 1
 63 37 l 1
63 41 m 1
 61 41 l 1
 61 43 l 1
 63 43 l 1
 63 41 l 1
EndSplineSet
Ligature2: "'liga' Standard Ligatures in Latin lookup 0-1" zero nine zero five three
LCarets2: 1 0
EndChar

StartChar: custom_0_9_0_5_4
Encoding: 3010 -1 2765
Width: 70
Flags: H
LayerCount: 2
Fore
SplineSet
1 5 m 1
 0 5 l 1
 0 8 l 1
 1 8 l 1
 1 5 l 1
17 25 m 1
 15 25 l 1
 15 27 l 1
 17 27 l 1
 17 25 l 1
17 29 m 1
 15 29 l 1
 15 31 l 1
 17 31 l 1
 17 29 l 1
17 33 m 1
 15 33 l 1
 15 35 l 1
 17 35 l 1
 17 33 l 1
23 25 m 1
 21 25 l 1
 21 27 l 1
 23 27 l 1
 23 25 l 1
26 25 m 1
 24 25 l 1
 24 27 l 1
 25 27 l 1
 25 26 l 1
 26 26 l 1
 26 25 l 1
27 26 m 1
 26 26 l 1
 26 27 l 1
 28 27 l 1
 28 25 l 1
 27 25 l 1
 27 26 l 1
31 25 m 1
 29 25 l 1
 29 27 l 1
 31 27 l 1
 31 25 l 1
23 33 m 1
 21 33 l 1
 21 35 l 1
 23 35 l 1
 23 33 l 1
25 33 m 1
 24 33 l 1
 24 35 l 1
 26 35 l 1
 26 34 l 1
 25 34 l 1
 25 33 l 1
28 33 m 1
 26 33 l 1
 26 34 l 1
 27 34 l 1
 27 35 l 1
 28 35 l 1
 28 33 l 1
31 29 m 1
 29 29 l 1
 29 31 l 1
 31 31 l 1
 31 29 l 1
36 31 m 1
 34 31 l 1
 34 33 l 1
 36 33 l 1
 36 31 l 1
31 33 m 1
 29 33 l 1
 29 35 l 1
 31 35 l 1
 31 33 l 1
36 35 m 1
 34 35 l 1
 34 37 l 1
 36 37 l 1
 36 35 l 1
41 25 m 1
 39 25 l 1
 39 27 l 1
 41 27 l 1
 41 25 l 1
44 25 m 1
 42 25 l 1
 42 27 l 1
 43 27 l 1
 43 26 l 1
 44 26 l 1
 44 25 l 1
45 26 m 1
 44 26 l 1
 44 27 l 1
 46 27 l 1
 46 25 l 1
 45 25 l 1
 45 26 l 1
49 25 m 1
 47 25 l 1
 47 27 l 1
 49 27 l 1
 49 25 l 1
41 29 m 1
 39 29 l 1
 39 31 l 1
 41 31 l 1
 41 29 l 1
41 33 m 1
 39 33 l 1
 39 35 l 1
 41 35 l 1
 41 33 l 1
49 29 m 1
 47 29 l 1
 47 31 l 1
 49 31 l 1
 49 29 l 1
49 33 m 1
 47 33 l 1
 47 35 l 1
 49 35 l 1
 49 33 l 1
55 25 m 1
 53 25 l 1
 53 27 l 1
 55 27 l 1
 55 25 l 1
58 25 m 1
 56 25 l 1
 56 27 l 1
 57 27 l 1
 57 26 l 1
 58 26 l 1
 58 25 l 1
59 26 m 1
 58 26 l 1
 58 27 l 1
 60 27 l 1
 60 25 l 1
 59 25 l 1
 59 26 l 1
63 25 m 1
 61 25 l 1
 61 27 l 1
 63 27 l 1
 63 25 l 1
55 29 m 1
 53 29 l 1
 53 31 l 1
 55 31 l 1
 55 29 l 1
55 33 m 1
 53 33 l 1
 53 35 l 1
 55 35 l 1
 55 33 l 1
57 33 m 1
 56 33 l 1
 56 35 l 1
 58 35 l 1
 58 34 l 1
 57 34 l 1
 57 33 l 1
60 33 m 1
 58 33 l 1
 58 34 l 1
 59 34 l 1
 59 35 l 1
 60 35 l 1
 60 33 l 1
63 29 m 1
 61 29 l 1
 61 31 l 1
 63 31 l 1
 63 29 l 1
63 33 m 1
 61 33 l 1
 61 35 l 1
 63 35 l 1
 63 33 l 1
17 37 m 1
 15 37 l 1
 15 39 l 1
 17 39 l 1
 17 37 l 1
17 41 m 1
 15 41 l 1
 15 43 l 1
 17 43 l 1
 17 41 l 1
23 37 m 1
 21 37 l 1
 21 39 l 1
 23 39 l 1
 23 37 l 1
23 41 m 1
 21 41 l 1
 21 43 l 1
 23 43 l 1
 23 41 l 1
26 41 m 1
 24 41 l 1
 24 43 l 1
 25 43 l 1
 25 42 l 1
 26 42 l 1
 26 41 l 1
27 42 m 1
 26 42 l 1
 26 43 l 1
 28 43 l 1
 28 41 l 1
 27 41 l 1
 27 42 l 1
31 41 m 1
 29 41 l 1
 29 43 l 1
 31 43 l 1
 31 41 l 1
41 37 m 1
 39 37 l 1
 39 39 l 1
 41 39 l 1
 41 37 l 1
41 41 m 1
 39 41 l 1
 39 43 l 1
 41 43 l 1
 41 41 l 1
44 41 m 1
 42 41 l 1
 42 43 l 1
 43 43 l 1
 43 42 l 1
 44 42 l 1
 44 41 l 1
45 42 m 1
 44 42 l 1
 44 43 l 1
 46 43 l 1
 46 41 l 1
 45 41 l 1
 45 42 l 1
49 37 m 1
 47 37 l 1
 47 39 l 1
 49 39 l 1
 49 37 l 1
49 41 m 1
 47 41 l 1
 47 43 l 1
 49 43 l 1
 49 41 l 1
55 41 m 1
 53 41 l 1
 53 43 l 1
 55 43 l 1
 55 41 l 1
58 41 m 1
 56 41 l 1
 56 43 l 1
 57 43 l 1
 57 42 l 1
 58 42 l 1
 58 41 l 1
59 42 m 1
 58 42 l 1
 58 43 l 1
 60 43 l 1
 60 41 l 1
 59 41 l 1
 59 42 l 1
63 37 m 1
 61 37 l 1
 61 39 l 1
 63 39 l 1
 63 37 l 1
63 41 m 1
 61 41 l 1
 61 43 l 1
 63 43 l 1
 63 41 l 1
EndSplineSet
Ligature2: "'liga' Standard Ligatures in Latin lookup 0-1" zero nine zero five four
LCarets2: 1 0
EndChar

StartChar: custom_0_9_0_5_5
Encoding: 3011 -1 2766
Width: 70
Flags: H
LayerCount: 2
Fore
SplineSet
2 6 m 1
 0 6 l 1
 0 8 l 1
 1 8 l 1
 1 7 l 1
 2 7 l 1
 2 6 l 1
17 25 m 1
 15 25 l 1
 15 27 l 1
 17 27 l 1
 17 25 l 1
17 29 m 1
 15 29 l 1
 15 31 l 1
 17 31 l 1
 17 29 l 1
17 33 m 1
 15 33 l 1
 15 35 l 1
 17 35 l 1
 17 33 l 1
23 25 m 1
 21 25 l 1
 21 27 l 1
 23 27 l 1
 23 25 l 1
26 25 m 1
 24 25 l 1
 24 27 l 1
 25 27 l 1
 25 26 l 1
 26 26 l 1
 26 25 l 1
27 26 m 1
 26 26 l 1
 26 27 l 1
 28 27 l 1
 28 25 l 1
 27 25 l 1
 27 26 l 1
31 25 m 1
 29 25 l 1
 29 27 l 1
 31 27 l 1
 31 25 l 1
23 33 m 1
 21 33 l 1
 21 35 l 1
 23 35 l 1
 23 33 l 1
25 33 m 1
 24 33 l 1
 24 35 l 1
 26 35 l 1
 26 34 l 1
 25 34 l 1
 25 33 l 1
28 33 m 1
 26 33 l 1
 26 34 l 1
 27 34 l 1
 27 35 l 1
 28 35 l 1
 28 33 l 1
31 29 m 1
 29 29 l 1
 29 31 l 1
 31 31 l 1
 31 29 l 1
36 31 m 1
 34 31 l 1
 34 33 l 1
 36 33 l 1
 36 31 l 1
31 33 m 1
 29 33 l 1
 29 35 l 1
 31 35 l 1
 31 33 l 1
36 35 m 1
 34 35 l 1
 34 37 l 1
 36 37 l 1
 36 35 l 1
41 25 m 1
 39 25 l 1
 39 27 l 1
 41 27 l 1
 41 25 l 1
44 25 m 1
 42 25 l 1
 42 27 l 1
 43 27 l 1
 43 26 l 1
 44 26 l 1
 44 25 l 1
45 26 m 1
 44 26 l 1
 44 27 l 1
 46 27 l 1
 46 25 l 1
 45 25 l 1
 45 26 l 1
49 25 m 1
 47 25 l 1
 47 27 l 1
 49 27 l 1
 49 25 l 1
41 29 m 1
 39 29 l 1
 39 31 l 1
 41 31 l 1
 41 29 l 1
41 33 m 1
 39 33 l 1
 39 35 l 1
 41 35 l 1
 41 33 l 1
49 29 m 1
 47 29 l 1
 47 31 l 1
 49 31 l 1
 49 29 l 1
49 33 m 1
 47 33 l 1
 47 35 l 1
 49 35 l 1
 49 33 l 1
55 25 m 1
 53 25 l 1
 53 27 l 1
 55 27 l 1
 55 25 l 1
58 25 m 1
 56 25 l 1
 56 27 l 1
 57 27 l 1
 57 26 l 1
 58 26 l 1
 58 25 l 1
59 26 m 1
 58 26 l 1
 58 27 l 1
 60 27 l 1
 60 25 l 1
 59 25 l 1
 59 26 l 1
63 25 m 1
 61 25 l 1
 61 27 l 1
 63 27 l 1
 63 25 l 1
55 29 m 1
 53 29 l 1
 53 31 l 1
 55 31 l 1
 55 29 l 1
55 33 m 1
 53 33 l 1
 53 35 l 1
 55 35 l 1
 55 33 l 1
57 33 m 1
 56 33 l 1
 56 35 l 1
 58 35 l 1
 58 34 l 1
 57 34 l 1
 57 33 l 1
60 33 m 1
 58 33 l 1
 58 34 l 1
 59 34 l 1
 59 35 l 1
 60 35 l 1
 60 33 l 1
63 29 m 1
 61 29 l 1
 61 31 l 1
 63 31 l 1
 63 29 l 1
63 33 m 1
 61 33 l 1
 61 35 l 1
 63 35 l 1
 63 33 l 1
17 37 m 1
 15 37 l 1
 15 39 l 1
 17 39 l 1
 17 37 l 1
17 41 m 1
 15 41 l 1
 15 43 l 1
 17 43 l 1
 17 41 l 1
23 37 m 1
 21 37 l 1
 21 39 l 1
 23 39 l 1
 23 37 l 1
23 41 m 1
 21 41 l 1
 21 43 l 1
 23 43 l 1
 23 41 l 1
26 41 m 1
 24 41 l 1
 24 43 l 1
 25 43 l 1
 25 42 l 1
 26 42 l 1
 26 41 l 1
27 42 m 1
 26 42 l 1
 26 43 l 1
 28 43 l 1
 28 41 l 1
 27 41 l 1
 27 42 l 1
31 41 m 1
 29 41 l 1
 29 43 l 1
 31 43 l 1
 31 41 l 1
41 37 m 1
 39 37 l 1
 39 39 l 1
 41 39 l 1
 41 37 l 1
41 41 m 1
 39 41 l 1
 39 43 l 1
 41 43 l 1
 41 41 l 1
44 41 m 1
 42 41 l 1
 42 43 l 1
 43 43 l 1
 43 42 l 1
 44 42 l 1
 44 41 l 1
45 42 m 1
 44 42 l 1
 44 43 l 1
 46 43 l 1
 46 41 l 1
 45 41 l 1
 45 42 l 1
49 37 m 1
 47 37 l 1
 47 39 l 1
 49 39 l 1
 49 37 l 1
49 41 m 1
 47 41 l 1
 47 43 l 1
 49 43 l 1
 49 41 l 1
55 41 m 1
 53 41 l 1
 53 43 l 1
 55 43 l 1
 55 41 l 1
58 41 m 1
 56 41 l 1
 56 43 l 1
 57 43 l 1
 57 42 l 1
 58 42 l 1
 58 41 l 1
59 42 m 1
 58 42 l 1
 58 43 l 1
 60 43 l 1
 60 41 l 1
 59 41 l 1
 59 42 l 1
63 37 m 1
 61 37 l 1
 61 39 l 1
 63 39 l 1
 63 37 l 1
63 41 m 1
 61 41 l 1
 61 43 l 1
 63 43 l 1
 63 41 l 1
EndSplineSet
Ligature2: "'liga' Standard Ligatures in Latin lookup 0-1" zero nine zero five five
LCarets2: 1 0
EndChar

StartChar: custom_0_9_0_5_6
Encoding: 3012 -1 2767
Width: 70
Flags: H
LayerCount: 2
Fore
SplineSet
1 5 m 1
 0 5 l 1
 0 6 l 1
 1 6 l 1
 1 5 l 1
1 7 m 1
 0 7 l 1
 0 8 l 1
 2 8 l 1
 2 6 l 1
 1 6 l 1
 1 7 l 1
17 25 m 1
 15 25 l 1
 15 27 l 1
 17 27 l 1
 17 25 l 1
17 29 m 1
 15 29 l 1
 15 31 l 1
 17 31 l 1
 17 29 l 1
17 33 m 1
 15 33 l 1
 15 35 l 1
 17 35 l 1
 17 33 l 1
23 25 m 1
 21 25 l 1
 21 27 l 1
 23 27 l 1
 23 25 l 1
26 25 m 1
 24 25 l 1
 24 27 l 1
 25 27 l 1
 25 26 l 1
 26 26 l 1
 26 25 l 1
27 26 m 1
 26 26 l 1
 26 27 l 1
 28 27 l 1
 28 25 l 1
 27 25 l 1
 27 26 l 1
31 25 m 1
 29 25 l 1
 29 27 l 1
 31 27 l 1
 31 25 l 1
23 33 m 1
 21 33 l 1
 21 35 l 1
 23 35 l 1
 23 33 l 1
25 33 m 1
 24 33 l 1
 24 35 l 1
 26 35 l 1
 26 34 l 1
 25 34 l 1
 25 33 l 1
28 33 m 1
 26 33 l 1
 26 34 l 1
 27 34 l 1
 27 35 l 1
 28 35 l 1
 28 33 l 1
31 29 m 1
 29 29 l 1
 29 31 l 1
 31 31 l 1
 31 29 l 1
36 31 m 1
 34 31 l 1
 34 33 l 1
 36 33 l 1
 36 31 l 1
31 33 m 1
 29 33 l 1
 29 35 l 1
 31 35 l 1
 31 33 l 1
36 35 m 1
 34 35 l 1
 34 37 l 1
 36 37 l 1
 36 35 l 1
41 25 m 1
 39 25 l 1
 39 27 l 1
 41 27 l 1
 41 25 l 1
44 25 m 1
 42 25 l 1
 42 27 l 1
 43 27 l 1
 43 26 l 1
 44 26 l 1
 44 25 l 1
45 26 m 1
 44 26 l 1
 44 27 l 1
 46 27 l 1
 46 25 l 1
 45 25 l 1
 45 26 l 1
49 25 m 1
 47 25 l 1
 47 27 l 1
 49 27 l 1
 49 25 l 1
41 29 m 1
 39 29 l 1
 39 31 l 1
 41 31 l 1
 41 29 l 1
41 33 m 1
 39 33 l 1
 39 35 l 1
 41 35 l 1
 41 33 l 1
49 29 m 1
 47 29 l 1
 47 31 l 1
 49 31 l 1
 49 29 l 1
49 33 m 1
 47 33 l 1
 47 35 l 1
 49 35 l 1
 49 33 l 1
55 25 m 1
 53 25 l 1
 53 27 l 1
 55 27 l 1
 55 25 l 1
58 25 m 1
 56 25 l 1
 56 27 l 1
 57 27 l 1
 57 26 l 1
 58 26 l 1
 58 25 l 1
59 26 m 1
 58 26 l 1
 58 27 l 1
 60 27 l 1
 60 25 l 1
 59 25 l 1
 59 26 l 1
63 25 m 1
 61 25 l 1
 61 27 l 1
 63 27 l 1
 63 25 l 1
55 29 m 1
 53 29 l 1
 53 31 l 1
 55 31 l 1
 55 29 l 1
55 33 m 1
 53 33 l 1
 53 35 l 1
 55 35 l 1
 55 33 l 1
57 33 m 1
 56 33 l 1
 56 35 l 1
 58 35 l 1
 58 34 l 1
 57 34 l 1
 57 33 l 1
60 33 m 1
 58 33 l 1
 58 34 l 1
 59 34 l 1
 59 35 l 1
 60 35 l 1
 60 33 l 1
63 29 m 1
 61 29 l 1
 61 31 l 1
 63 31 l 1
 63 29 l 1
63 33 m 1
 61 33 l 1
 61 35 l 1
 63 35 l 1
 63 33 l 1
17 37 m 1
 15 37 l 1
 15 39 l 1
 17 39 l 1
 17 37 l 1
17 41 m 1
 15 41 l 1
 15 43 l 1
 17 43 l 1
 17 41 l 1
23 37 m 1
 21 37 l 1
 21 39 l 1
 23 39 l 1
 23 37 l 1
23 41 m 1
 21 41 l 1
 21 43 l 1
 23 43 l 1
 23 41 l 1
26 41 m 1
 24 41 l 1
 24 43 l 1
 25 43 l 1
 25 42 l 1
 26 42 l 1
 26 41 l 1
27 42 m 1
 26 42 l 1
 26 43 l 1
 28 43 l 1
 28 41 l 1
 27 41 l 1
 27 42 l 1
31 41 m 1
 29 41 l 1
 29 43 l 1
 31 43 l 1
 31 41 l 1
41 37 m 1
 39 37 l 1
 39 39 l 1
 41 39 l 1
 41 37 l 1
41 41 m 1
 39 41 l 1
 39 43 l 1
 41 43 l 1
 41 41 l 1
44 41 m 1
 42 41 l 1
 42 43 l 1
 43 43 l 1
 43 42 l 1
 44 42 l 1
 44 41 l 1
45 42 m 1
 44 42 l 1
 44 43 l 1
 46 43 l 1
 46 41 l 1
 45 41 l 1
 45 42 l 1
49 37 m 1
 47 37 l 1
 47 39 l 1
 49 39 l 1
 49 37 l 1
49 41 m 1
 47 41 l 1
 47 43 l 1
 49 43 l 1
 49 41 l 1
55 41 m 1
 53 41 l 1
 53 43 l 1
 55 43 l 1
 55 41 l 1
58 41 m 1
 56 41 l 1
 56 43 l 1
 57 43 l 1
 57 42 l 1
 58 42 l 1
 58 41 l 1
59 42 m 1
 58 42 l 1
 58 43 l 1
 60 43 l 1
 60 41 l 1
 59 41 l 1
 59 42 l 1
63 37 m 1
 61 37 l 1
 61 39 l 1
 63 39 l 1
 63 37 l 1
63 41 m 1
 61 41 l 1
 61 43 l 1
 63 43 l 1
 63 41 l 1
EndSplineSet
Ligature2: "'liga' Standard Ligatures in Latin lookup 0-1" zero nine zero five six
LCarets2: 1 0
EndChar

StartChar: custom_0_9_0_5_7
Encoding: 3013 -1 2768
Width: 70
Flags: H
LayerCount: 2
Fore
SplineSet
1 7 m 1
 0 7 l 1
 0 9 l 1
 1 9 l 1
 1 8 l 1
 2 8 l 1
 2 6 l 1
 1 6 l 1
 1 7 l 1
17 25 m 1
 15 25 l 1
 15 27 l 1
 17 27 l 1
 17 25 l 1
17 29 m 1
 15 29 l 1
 15 31 l 1
 17 31 l 1
 17 29 l 1
17 33 m 1
 15 33 l 1
 15 35 l 1
 17 35 l 1
 17 33 l 1
23 25 m 1
 21 25 l 1
 21 27 l 1
 23 27 l 1
 23 25 l 1
26 25 m 1
 24 25 l 1
 24 27 l 1
 25 27 l 1
 25 26 l 1
 26 26 l 1
 26 25 l 1
27 26 m 1
 26 26 l 1
 26 27 l 1
 28 27 l 1
 28 25 l 1
 27 25 l 1
 27 26 l 1
31 25 m 1
 29 25 l 1
 29 27 l 1
 31 27 l 1
 31 25 l 1
23 33 m 1
 21 33 l 1
 21 35 l 1
 23 35 l 1
 23 33 l 1
25 33 m 1
 24 33 l 1
 24 35 l 1
 26 35 l 1
 26 34 l 1
 25 34 l 1
 25 33 l 1
28 33 m 1
 26 33 l 1
 26 34 l 1
 27 34 l 1
 27 35 l 1
 28 35 l 1
 28 33 l 1
31 29 m 1
 29 29 l 1
 29 31 l 1
 31 31 l 1
 31 29 l 1
36 31 m 1
 34 31 l 1
 34 33 l 1
 36 33 l 1
 36 31 l 1
31 33 m 1
 29 33 l 1
 29 35 l 1
 31 35 l 1
 31 33 l 1
36 35 m 1
 34 35 l 1
 34 37 l 1
 36 37 l 1
 36 35 l 1
41 25 m 1
 39 25 l 1
 39 27 l 1
 41 27 l 1
 41 25 l 1
44 25 m 1
 42 25 l 1
 42 27 l 1
 43 27 l 1
 43 26 l 1
 44 26 l 1
 44 25 l 1
45 26 m 1
 44 26 l 1
 44 27 l 1
 46 27 l 1
 46 25 l 1
 45 25 l 1
 45 26 l 1
49 25 m 1
 47 25 l 1
 47 27 l 1
 49 27 l 1
 49 25 l 1
41 29 m 1
 39 29 l 1
 39 31 l 1
 41 31 l 1
 41 29 l 1
41 33 m 1
 39 33 l 1
 39 35 l 1
 41 35 l 1
 41 33 l 1
49 29 m 1
 47 29 l 1
 47 31 l 1
 49 31 l 1
 49 29 l 1
49 33 m 1
 47 33 l 1
 47 35 l 1
 49 35 l 1
 49 33 l 1
55 25 m 1
 53 25 l 1
 53 27 l 1
 55 27 l 1
 55 25 l 1
58 25 m 1
 56 25 l 1
 56 27 l 1
 57 27 l 1
 57 26 l 1
 58 26 l 1
 58 25 l 1
59 26 m 1
 58 26 l 1
 58 27 l 1
 60 27 l 1
 60 25 l 1
 59 25 l 1
 59 26 l 1
63 25 m 1
 61 25 l 1
 61 27 l 1
 63 27 l 1
 63 25 l 1
55 29 m 1
 53 29 l 1
 53 31 l 1
 55 31 l 1
 55 29 l 1
55 33 m 1
 53 33 l 1
 53 35 l 1
 55 35 l 1
 55 33 l 1
57 33 m 1
 56 33 l 1
 56 35 l 1
 58 35 l 1
 58 34 l 1
 57 34 l 1
 57 33 l 1
60 33 m 1
 58 33 l 1
 58 34 l 1
 59 34 l 1
 59 35 l 1
 60 35 l 1
 60 33 l 1
63 29 m 1
 61 29 l 1
 61 31 l 1
 63 31 l 1
 63 29 l 1
63 33 m 1
 61 33 l 1
 61 35 l 1
 63 35 l 1
 63 33 l 1
17 37 m 1
 15 37 l 1
 15 39 l 1
 17 39 l 1
 17 37 l 1
17 41 m 1
 15 41 l 1
 15 43 l 1
 17 43 l 1
 17 41 l 1
23 37 m 1
 21 37 l 1
 21 39 l 1
 23 39 l 1
 23 37 l 1
23 41 m 1
 21 41 l 1
 21 43 l 1
 23 43 l 1
 23 41 l 1
26 41 m 1
 24 41 l 1
 24 43 l 1
 25 43 l 1
 25 42 l 1
 26 42 l 1
 26 41 l 1
27 42 m 1
 26 42 l 1
 26 43 l 1
 28 43 l 1
 28 41 l 1
 27 41 l 1
 27 42 l 1
31 41 m 1
 29 41 l 1
 29 43 l 1
 31 43 l 1
 31 41 l 1
41 37 m 1
 39 37 l 1
 39 39 l 1
 41 39 l 1
 41 37 l 1
41 41 m 1
 39 41 l 1
 39 43 l 1
 41 43 l 1
 41 41 l 1
44 41 m 1
 42 41 l 1
 42 43 l 1
 43 43 l 1
 43 42 l 1
 44 42 l 1
 44 41 l 1
45 42 m 1
 44 42 l 1
 44 43 l 1
 46 43 l 1
 46 41 l 1
 45 41 l 1
 45 42 l 1
49 37 m 1
 47 37 l 1
 47 39 l 1
 49 39 l 1
 49 37 l 1
49 41 m 1
 47 41 l 1
 47 43 l 1
 49 43 l 1
 49 41 l 1
55 41 m 1
 53 41 l 1
 53 43 l 1
 55 43 l 1
 55 41 l 1
58 41 m 1
 56 41 l 1
 56 43 l 1
 57 43 l 1
 57 42 l 1
 58 42 l 1
 58 41 l 1
59 42 m 1
 58 42 l 1
 58 43 l 1
 60 43 l 1
 60 41 l 1
 59 41 l 1
 59 42 l 1
63 37 m 1
 61 37 l 1
 61 39 l 1
 63 39 l 1
 63 37 l 1
63 41 m 1
 61 41 l 1
 61 43 l 1
 63 43 l 1
 63 41 l 1
EndSplineSet
Ligature2: "'liga' Standard Ligatures in Latin lookup 0-1" zero nine zero five seven
LCarets2: 1 0
EndChar

StartChar: custom_0_9_0_5_8
Encoding: 3014 -1 2769
Width: 70
Flags: H
LayerCount: 2
Fore
SplineSet
1 8 m 1
 0 8 l 1
 0 9 l 1
 2 9 l 1
 2 6 l 1
 1 6 l 1
 1 8 l 1
17 25 m 1
 15 25 l 1
 15 27 l 1
 17 27 l 1
 17 25 l 1
17 29 m 1
 15 29 l 1
 15 31 l 1
 17 31 l 1
 17 29 l 1
17 33 m 1
 15 33 l 1
 15 35 l 1
 17 35 l 1
 17 33 l 1
23 25 m 1
 21 25 l 1
 21 27 l 1
 23 27 l 1
 23 25 l 1
26 25 m 1
 24 25 l 1
 24 27 l 1
 25 27 l 1
 25 26 l 1
 26 26 l 1
 26 25 l 1
27 26 m 1
 26 26 l 1
 26 27 l 1
 28 27 l 1
 28 25 l 1
 27 25 l 1
 27 26 l 1
31 25 m 1
 29 25 l 1
 29 27 l 1
 31 27 l 1
 31 25 l 1
23 33 m 1
 21 33 l 1
 21 35 l 1
 23 35 l 1
 23 33 l 1
25 33 m 1
 24 33 l 1
 24 35 l 1
 26 35 l 1
 26 34 l 1
 25 34 l 1
 25 33 l 1
28 33 m 1
 26 33 l 1
 26 34 l 1
 27 34 l 1
 27 35 l 1
 28 35 l 1
 28 33 l 1
31 29 m 1
 29 29 l 1
 29 31 l 1
 31 31 l 1
 31 29 l 1
36 31 m 1
 34 31 l 1
 34 33 l 1
 36 33 l 1
 36 31 l 1
31 33 m 1
 29 33 l 1
 29 35 l 1
 31 35 l 1
 31 33 l 1
36 35 m 1
 34 35 l 1
 34 37 l 1
 36 37 l 1
 36 35 l 1
41 25 m 1
 39 25 l 1
 39 27 l 1
 41 27 l 1
 41 25 l 1
44 25 m 1
 42 25 l 1
 42 27 l 1
 43 27 l 1
 43 26 l 1
 44 26 l 1
 44 25 l 1
45 26 m 1
 44 26 l 1
 44 27 l 1
 46 27 l 1
 46 25 l 1
 45 25 l 1
 45 26 l 1
49 25 m 1
 47 25 l 1
 47 27 l 1
 49 27 l 1
 49 25 l 1
41 29 m 1
 39 29 l 1
 39 31 l 1
 41 31 l 1
 41 29 l 1
41 33 m 1
 39 33 l 1
 39 35 l 1
 41 35 l 1
 41 33 l 1
49 29 m 1
 47 29 l 1
 47 31 l 1
 49 31 l 1
 49 29 l 1
49 33 m 1
 47 33 l 1
 47 35 l 1
 49 35 l 1
 49 33 l 1
55 25 m 1
 53 25 l 1
 53 27 l 1
 55 27 l 1
 55 25 l 1
58 25 m 1
 56 25 l 1
 56 27 l 1
 57 27 l 1
 57 26 l 1
 58 26 l 1
 58 25 l 1
59 26 m 1
 58 26 l 1
 58 27 l 1
 60 27 l 1
 60 25 l 1
 59 25 l 1
 59 26 l 1
63 25 m 1
 61 25 l 1
 61 27 l 1
 63 27 l 1
 63 25 l 1
55 29 m 1
 53 29 l 1
 53 31 l 1
 55 31 l 1
 55 29 l 1
55 33 m 1
 53 33 l 1
 53 35 l 1
 55 35 l 1
 55 33 l 1
57 33 m 1
 56 33 l 1
 56 35 l 1
 58 35 l 1
 58 34 l 1
 57 34 l 1
 57 33 l 1
60 33 m 1
 58 33 l 1
 58 34 l 1
 59 34 l 1
 59 35 l 1
 60 35 l 1
 60 33 l 1
63 29 m 1
 61 29 l 1
 61 31 l 1
 63 31 l 1
 63 29 l 1
63 33 m 1
 61 33 l 1
 61 35 l 1
 63 35 l 1
 63 33 l 1
17 37 m 1
 15 37 l 1
 15 39 l 1
 17 39 l 1
 17 37 l 1
17 41 m 1
 15 41 l 1
 15 43 l 1
 17 43 l 1
 17 41 l 1
23 37 m 1
 21 37 l 1
 21 39 l 1
 23 39 l 1
 23 37 l 1
23 41 m 1
 21 41 l 1
 21 43 l 1
 23 43 l 1
 23 41 l 1
26 41 m 1
 24 41 l 1
 24 43 l 1
 25 43 l 1
 25 42 l 1
 26 42 l 1
 26 41 l 1
27 42 m 1
 26 42 l 1
 26 43 l 1
 28 43 l 1
 28 41 l 1
 27 41 l 1
 27 42 l 1
31 41 m 1
 29 41 l 1
 29 43 l 1
 31 43 l 1
 31 41 l 1
41 37 m 1
 39 37 l 1
 39 39 l 1
 41 39 l 1
 41 37 l 1
41 41 m 1
 39 41 l 1
 39 43 l 1
 41 43 l 1
 41 41 l 1
44 41 m 1
 42 41 l 1
 42 43 l 1
 43 43 l 1
 43 42 l 1
 44 42 l 1
 44 41 l 1
45 42 m 1
 44 42 l 1
 44 43 l 1
 46 43 l 1
 46 41 l 1
 45 41 l 1
 45 42 l 1
49 37 m 1
 47 37 l 1
 47 39 l 1
 49 39 l 1
 49 37 l 1
49 41 m 1
 47 41 l 1
 47 43 l 1
 49 43 l 1
 49 41 l 1
55 41 m 1
 53 41 l 1
 53 43 l 1
 55 43 l 1
 55 41 l 1
58 41 m 1
 56 41 l 1
 56 43 l 1
 57 43 l 1
 57 42 l 1
 58 42 l 1
 58 41 l 1
59 42 m 1
 58 42 l 1
 58 43 l 1
 60 43 l 1
 60 41 l 1
 59 41 l 1
 59 42 l 1
63 37 m 1
 61 37 l 1
 61 39 l 1
 63 39 l 1
 63 37 l 1
63 41 m 1
 61 41 l 1
 61 43 l 1
 63 43 l 1
 63 41 l 1
EndSplineSet
Ligature2: "'liga' Standard Ligatures in Latin lookup 0-1" zero nine zero five eight
LCarets2: 1 0
EndChar

StartChar: custom_0_9_0_5_9
Encoding: 3015 -1 2770
Width: 70
Flags: H
LayerCount: 2
Fore
SplineSet
1 6 m 1
 0 6 l 1
 0 7 l 1
 1 7 l 1
 1 6 l 1
1 8 m 1
 0 8 l 1
 0 9 l 1
 2 9 l 1
 2 8 l 1
 3 8 l 1
 3 7 l 1
 1 7 l 1
 1 8 l 1
17 25 m 1
 15 25 l 1
 15 27 l 1
 17 27 l 1
 17 25 l 1
17 29 m 1
 15 29 l 1
 15 31 l 1
 17 31 l 1
 17 29 l 1
17 33 m 1
 15 33 l 1
 15 35 l 1
 17 35 l 1
 17 33 l 1
23 25 m 1
 21 25 l 1
 21 27 l 1
 23 27 l 1
 23 25 l 1
26 25 m 1
 24 25 l 1
 24 27 l 1
 25 27 l 1
 25 26 l 1
 26 26 l 1
 26 25 l 1
27 26 m 1
 26 26 l 1
 26 27 l 1
 28 27 l 1
 28 25 l 1
 27 25 l 1
 27 26 l 1
31 25 m 1
 29 25 l 1
 29 27 l 1
 31 27 l 1
 31 25 l 1
23 33 m 1
 21 33 l 1
 21 35 l 1
 23 35 l 1
 23 33 l 1
25 33 m 1
 24 33 l 1
 24 35 l 1
 26 35 l 1
 26 34 l 1
 25 34 l 1
 25 33 l 1
28 33 m 1
 26 33 l 1
 26 34 l 1
 27 34 l 1
 27 35 l 1
 28 35 l 1
 28 33 l 1
31 29 m 1
 29 29 l 1
 29 31 l 1
 31 31 l 1
 31 29 l 1
36 31 m 1
 34 31 l 1
 34 33 l 1
 36 33 l 1
 36 31 l 1
31 33 m 1
 29 33 l 1
 29 35 l 1
 31 35 l 1
 31 33 l 1
36 35 m 1
 34 35 l 1
 34 37 l 1
 36 37 l 1
 36 35 l 1
41 25 m 1
 39 25 l 1
 39 27 l 1
 41 27 l 1
 41 25 l 1
44 25 m 1
 42 25 l 1
 42 27 l 1
 43 27 l 1
 43 26 l 1
 44 26 l 1
 44 25 l 1
45 26 m 1
 44 26 l 1
 44 27 l 1
 46 27 l 1
 46 25 l 1
 45 25 l 1
 45 26 l 1
49 25 m 1
 47 25 l 1
 47 27 l 1
 49 27 l 1
 49 25 l 1
41 29 m 1
 39 29 l 1
 39 31 l 1
 41 31 l 1
 41 29 l 1
41 33 m 1
 39 33 l 1
 39 35 l 1
 41 35 l 1
 41 33 l 1
49 29 m 1
 47 29 l 1
 47 31 l 1
 49 31 l 1
 49 29 l 1
49 33 m 1
 47 33 l 1
 47 35 l 1
 49 35 l 1
 49 33 l 1
55 25 m 1
 53 25 l 1
 53 27 l 1
 55 27 l 1
 55 25 l 1
58 25 m 1
 56 25 l 1
 56 27 l 1
 57 27 l 1
 57 26 l 1
 58 26 l 1
 58 25 l 1
59 26 m 1
 58 26 l 1
 58 27 l 1
 60 27 l 1
 60 25 l 1
 59 25 l 1
 59 26 l 1
63 25 m 1
 61 25 l 1
 61 27 l 1
 63 27 l 1
 63 25 l 1
55 29 m 1
 53 29 l 1
 53 31 l 1
 55 31 l 1
 55 29 l 1
55 33 m 1
 53 33 l 1
 53 35 l 1
 55 35 l 1
 55 33 l 1
57 33 m 1
 56 33 l 1
 56 35 l 1
 58 35 l 1
 58 34 l 1
 57 34 l 1
 57 33 l 1
60 33 m 1
 58 33 l 1
 58 34 l 1
 59 34 l 1
 59 35 l 1
 60 35 l 1
 60 33 l 1
63 29 m 1
 61 29 l 1
 61 31 l 1
 63 31 l 1
 63 29 l 1
63 33 m 1
 61 33 l 1
 61 35 l 1
 63 35 l 1
 63 33 l 1
17 37 m 1
 15 37 l 1
 15 39 l 1
 17 39 l 1
 17 37 l 1
17 41 m 1
 15 41 l 1
 15 43 l 1
 17 43 l 1
 17 41 l 1
23 37 m 1
 21 37 l 1
 21 39 l 1
 23 39 l 1
 23 37 l 1
23 41 m 1
 21 41 l 1
 21 43 l 1
 23 43 l 1
 23 41 l 1
26 41 m 1
 24 41 l 1
 24 43 l 1
 25 43 l 1
 25 42 l 1
 26 42 l 1
 26 41 l 1
27 42 m 1
 26 42 l 1
 26 43 l 1
 28 43 l 1
 28 41 l 1
 27 41 l 1
 27 42 l 1
31 41 m 1
 29 41 l 1
 29 43 l 1
 31 43 l 1
 31 41 l 1
41 37 m 1
 39 37 l 1
 39 39 l 1
 41 39 l 1
 41 37 l 1
41 41 m 1
 39 41 l 1
 39 43 l 1
 41 43 l 1
 41 41 l 1
44 41 m 1
 42 41 l 1
 42 43 l 1
 43 43 l 1
 43 42 l 1
 44 42 l 1
 44 41 l 1
45 42 m 1
 44 42 l 1
 44 43 l 1
 46 43 l 1
 46 41 l 1
 45 41 l 1
 45 42 l 1
49 37 m 1
 47 37 l 1
 47 39 l 1
 49 39 l 1
 49 37 l 1
49 41 m 1
 47 41 l 1
 47 43 l 1
 49 43 l 1
 49 41 l 1
55 41 m 1
 53 41 l 1
 53 43 l 1
 55 43 l 1
 55 41 l 1
58 41 m 1
 56 41 l 1
 56 43 l 1
 57 43 l 1
 57 42 l 1
 58 42 l 1
 58 41 l 1
59 42 m 1
 58 42 l 1
 58 43 l 1
 60 43 l 1
 60 41 l 1
 59 41 l 1
 59 42 l 1
63 37 m 1
 61 37 l 1
 61 39 l 1
 63 39 l 1
 63 37 l 1
63 41 m 1
 61 41 l 1
 61 43 l 1
 63 43 l 1
 63 41 l 1
EndSplineSet
Ligature2: "'liga' Standard Ligatures in Latin lookup 0-1" zero nine zero five nine
LCarets2: 1 0
EndChar

